<?xml version="1.0" encoding="utf-8"?>
<!-- Generator: Adobe Illustrator 19.1.0, SVG Export Plug-In . SVG Version: 6.00 Build 0)  -->
<svg version="1.1" id="svg" xmlns="http://www.w3.org/2000/svg" xmlns:xlink="http://www.w3.org/1999/xlink" x="0px" y="0px"
	 viewBox="-646.9 361.8 113 86" enable-background="new -646.9 361.8 113 86" xml:space="preserve">
<path fill-rule="evenodd" clip-rule="evenodd" fill="#D7D7D7" d="M-537.9,361.8h-105c-2.2,0-4,1.8-4,4v78c0,2.2,1.8,4,4,4h29.4
	c0-1.9,1.6-3.5,3.5-3.5c1.9,0,3.5,1.6,3.5,3.5h32.7c0-1.9,1.6-3.5,3.5-3.5c1.9,0,3.5,1.6,3.5,3.5h28.9c2.2,0,4-1.8,4-4v-78
	C-533.9,363.6-535.7,361.8-537.9,361.8z"/>
<g id="icon">
	<path fill="#1F7A34" d="M-548.7,421.4v-44.1h-83.5v44.1H-548.7z"/>
	<path fill="#161616" d="M-607.9,417.9h-16.8c-1.5,0-2.7-1.2-2.7-2.7v-21.3c0-2.5,1.7-3.7,3.2-3.7l16.4,1c1.5,0,2.7,1.2,2.7,2.7
		l0.9,20.8C-604.3,416.1-605.4,417.9-607.9,417.9z"/>
	<path fill="#3A3A3A" d="M-607,416.9h-16.8c-1.5,0-2.7-1.2-2.7-2.7v-21.3c0-1.5,1.2-2.7,2.7-2.7h16.8c1.5,0,2.7,1.2,2.7,2.7v21.3
		C-604.3,415.6-605.5,416.9-607,416.9z"/>
	<path fill="#161616" d="M-574.6,417.9h-23.1c-1.5,0-2.7-1.2-2.7-2.7v-21.3c0-2.5,1.7-3.7,3.2-3.7l16.4,1c1.5,0,2.7,1.2,2.7,2.7
		l6.5,20.3C-571.6,415.6-572.5,417.9-574.6,417.9z"/>
	<path fill="#3A3A3A" d="M-574.7,416.9h-21.8c-1.7,0-3.1-1.4-3.1-3.1v-20.6c0-1.7,1.4-3.1,3.1-3.1h21.8c1.7,0,3.1,1.4,3.1,3.1v20.6
		C-571.6,415.5-573,416.9-574.7,416.9z"/>
	<path fill="#161616" d="M-623.7,386.5L-623.7,386.5c-0.3,0-0.6-0.3-0.6-0.6v-2.1c0-0.3,0.3-0.6,0.6-0.6l0,0c0.3,0,0.6,0.3,0.6,0.6
		v2.1C-623.1,386.2-623.4,386.5-623.7,386.5z"/>
	<g>
		<path fill="#D6D6D6" d="M-623.1,383.8L-623.1,383.8c0-0.4-0.3-0.7-0.6-0.7s-0.6,0.3-0.6,0.6v0.1H-623.1z"/>
		<path fill="#D6D6D6" d="M-624.3,385.8L-624.3,385.8c0,0.4,0.3,0.7,0.6,0.7s0.6-0.3,0.6-0.6v-0.1H-624.3z"/>
	</g>
	<path fill="#161616" d="M-621.5,386.5L-621.5,386.5c-0.3,0-0.6-0.3-0.6-0.6v-2.1c0-0.3,0.3-0.6,0.6-0.6l0,0c0.3,0,0.6,0.3,0.6,0.6
		v2.1C-620.9,386.2-621.2,386.5-621.5,386.5z"/>
	<g>
		<path fill="#D6D6D6" d="M-620.9,383.8L-620.9,383.8c0-0.4-0.3-0.7-0.6-0.7s-0.6,0.3-0.6,0.6v0.1H-620.9z"/>
		<path fill="#D6D6D6" d="M-622.1,385.8L-622.1,385.8c0,0.4,0.3,0.7,0.6,0.7s0.6-0.3,0.6-0.6v-0.1H-622.1z"/>
	</g>
	<path fill="#161616" d="M-619.3,386.5L-619.3,386.5c-0.3,0-0.6-0.3-0.6-0.6v-2.1c0-0.3,0.3-0.6,0.6-0.6l0,0c0.3,0,0.6,0.3,0.6,0.6
		v2.1C-618.7,386.2-619,386.5-619.3,386.5z"/>
	<g>
		<path fill="#D6D6D6" d="M-618.7,383.8L-618.7,383.8c0-0.4-0.3-0.7-0.6-0.7c-0.3,0-0.6,0.3-0.6,0.6v0.1H-618.7z"/>
		<path fill="#D6D6D6" d="M-619.9,385.8L-619.9,385.8c0,0.4,0.3,0.7,0.6,0.7c0.3,0,0.6-0.3,0.6-0.6v-0.1H-619.9z"/>
	</g>
	<path fill="#161616" d="M-617.1,386.5L-617.1,386.5c-0.3,0-0.6-0.3-0.6-0.6v-2.1c0-0.3,0.3-0.6,0.6-0.6l0,0c0.3,0,0.6,0.3,0.6,0.6
		v2.1C-616.5,386.2-616.8,386.5-617.1,386.5z"/>
	<g>
		<path fill="#D6D6D6" d="M-616.5,383.8L-616.5,383.8c0-0.4-0.3-0.7-0.6-0.7s-0.6,0.3-0.6,0.6v0.1H-616.5z"/>
		<path fill="#D6D6D6" d="M-617.7,385.8L-617.7,385.8c0,0.4,0.3,0.7,0.6,0.7s0.6-0.3,0.6-0.6v-0.1H-617.7z"/>
	</g>
	<path fill="#161616" d="M-602.3,394.1L-602.3,394.1c-0.3,0-0.6-0.3-0.6-0.6v-2.1c0-0.3,0.3-0.6,0.6-0.6l0,0c0.3,0,0.6,0.3,0.6,0.6
		v2.1C-601.7,393.8-601.9,394.1-602.3,394.1z"/>
	<g>
		<path fill="#D6D6D6" d="M-601.7,391.4L-601.7,391.4c0-0.4-0.3-0.7-0.6-0.7s-0.6,0.3-0.6,0.6v0.1H-601.7z"/>
		<path fill="#D6D6D6" d="M-602.9,393.4L-602.9,393.4c0,0.4,0.3,0.7,0.6,0.7s0.6-0.3,0.6-0.6v-0.1H-602.9z"/>
	</g>
	<path fill="#161616" d="M-602.3,402.8L-602.3,402.8c-0.3,0-0.6-0.3-0.6-0.6v-2.1c0-0.3,0.3-0.6,0.6-0.6l0,0c0.3,0,0.6,0.3,0.6,0.6
		v2.1C-601.7,402.6-601.9,402.8-602.3,402.8z"/>
	<g>
		<path fill="#D6D6D6" d="M-601.7,400.1L-601.7,400.1c0-0.4-0.3-0.7-0.6-0.7s-0.6,0.3-0.6,0.6v0.1H-601.7z"/>
		<path fill="#D6D6D6" d="M-602.9,402.2L-602.9,402.2c0,0.4,0.3,0.7,0.6,0.7s0.6-0.3,0.6-0.6v-0.1H-602.9z"/>
	</g>
	<path fill="#FFFFFF" d="M-584.1,386.5L-584.1,386.5c-0.3,0-0.6-0.3-0.6-0.6v-2.1c0-0.3,0.3-0.6,0.6-0.6l0,0c0.3,0,0.6,0.3,0.6,0.6
		v2.1C-583.5,386.2-583.8,386.5-584.1,386.5z"/>
	<g>
		<path fill="#BFBFBF" d="M-583.5,383.8L-583.5,383.8c0-0.4-0.3-0.7-0.6-0.7c-0.3,0-0.6,0.3-0.6,0.6v0.1H-583.5z"/>
		<path fill="#BFBFBF" d="M-584.7,385.8L-584.7,385.8c0,0.4,0.3,0.7,0.6,0.7c0.3,0,0.6-0.3,0.6-0.6v-0.1H-584.7z"/>
	</g>
	<path fill="#FFFFFF" d="M-602.3,413.8L-602.3,413.8c-0.3,0-0.6-0.3-0.6-0.6v-2.1c0-0.3,0.3-0.6,0.6-0.6l0,0c0.3,0,0.6,0.3,0.6,0.6
		v2.1C-601.7,413.5-601.9,413.8-602.3,413.8z"/>
	<g>
		<path fill="#BFBFBF" d="M-601.7,411.1L-601.7,411.1c0-0.4-0.3-0.7-0.6-0.7s-0.6,0.3-0.6,0.6v0.1H-601.7z"/>
		<path fill="#BFBFBF" d="M-602.9,413.2L-602.9,413.2c0,0.4,0.3,0.7,0.6,0.7s0.6-0.3,0.6-0.6v-0.1H-602.9z"/>
	</g>
	<path fill="#FFFFFF" d="M-567.7,386.5L-567.7,386.5c-0.3,0-0.6-0.3-0.6-0.6v-2.1c0-0.3,0.3-0.6,0.6-0.6l0,0c0.3,0,0.6,0.3,0.6,0.6
		v2.1C-567.1,386.2-567.4,386.5-567.7,386.5z"/>
	<g>
		<path fill="#BFBFBF" d="M-567.1,383.8L-567.1,383.8c0-0.4-0.3-0.7-0.6-0.7s-0.6,0.3-0.6,0.6v0.1H-567.1z"/>
		<path fill="#BFBFBF" d="M-568.3,385.8L-568.3,385.8c0,0.4,0.3,0.7,0.6,0.7s0.6-0.3,0.6-0.6v-0.1H-568.3z"/>
	</g>
	<path fill="#FFFFFF" d="M-565.4,385.6v-0.4c0-0.4,0.3-0.8,0.8-0.8h1.8c0.4,0,0.8,0.3,0.8,0.8v0.4c0,0.4-0.3,0.8-0.8,0.8h-1.8
		C-565,386.4-565.4,386-565.4,385.6z"/>
	<g>
		<path fill="#BFBFBF" d="M-562.7,386.4L-562.7,386.4c0.4,0,0.7-0.4,0.7-1s-0.3-1-0.6-1h-0.1V386.4z"/>
		<path fill="#BFBFBF" d="M-564.7,384.4L-564.7,384.4c-0.4,0-0.7,0.4-0.7,1s0.3,1,0.6,1h0.1V384.4z"/>
	</g>
	<path fill="#FFFFFF" d="M-590.9,385.6v-0.4c0-0.4,0.3-0.8,0.8-0.8h1.8c0.4,0,0.8,0.3,0.8,0.8v0.4c0,0.4-0.3,0.8-0.8,0.8h-1.8
		C-590.5,386.4-590.9,386-590.9,385.6z"/>
	<g>
		<path fill="#BFBFBF" d="M-588.2,386.4L-588.2,386.4c0.4,0,0.7-0.4,0.7-1s-0.3-1-0.6-1h-0.1V386.4z"/>
		<path fill="#BFBFBF" d="M-590.2,384.4L-590.2,384.4c-0.4,0-0.7,0.4-0.7,1s0.3,1,0.6,1h0.1V384.4z"/>
	</g>
	<path fill="#161616" d="M-563.8,393.5L-563.8,393.5c-0.3,0-0.6-0.3-0.6-0.6v-2.1c0-0.3,0.3-0.6,0.6-0.6l0,0c0.3,0,0.6,0.3,0.6,0.6
		v2.1C-563.2,393.2-563.4,393.5-563.8,393.5z"/>
	<g>
		<path fill="#D6D6D6" d="M-563.2,390.8L-563.2,390.8c0-0.4-0.3-0.7-0.6-0.7s-0.6,0.3-0.6,0.6v0.1H-563.2z"/>
		<path fill="#D6D6D6" d="M-564.4,392.8L-564.4,392.8c0,0.4,0.3,0.7,0.6,0.7s0.6-0.3,0.6-0.6v-0.1H-564.4z"/>
	</g>
	<path fill="#161616" d="M-570.1,391.8L-570.1,391.8c0-0.3,0.3-0.6,0.6-0.6h2.1c0.3,0,0.6,0.3,0.6,0.6l0,0c0,0.3-0.3,0.6-0.6,0.6
		h-2.1C-569.8,392.4-570.1,392.1-570.1,391.8z"/>
	<g>
		<path fill="#D6D6D6" d="M-567.4,392.4L-567.4,392.4c0.4,0,0.7-0.3,0.7-0.6s-0.3-0.6-0.6-0.6h-0.1V392.4z"/>
		<path fill="#D6D6D6" d="M-569.5,391.2L-569.5,391.2c-0.4,0-0.7,0.3-0.7,0.6s0.3,0.6,0.6,0.6h0.1V391.2z"/>
	</g>
	<path fill="#161616" d="M-561.6,393.5L-561.6,393.5c-0.3,0-0.6-0.3-0.6-0.6v-2.1c0-0.3,0.3-0.6,0.6-0.6l0,0c0.3,0,0.6,0.3,0.6,0.6
		v2.1C-561,393.2-561.3,393.5-561.6,393.5z"/>
	<g>
		<path fill="#D6D6D6" d="M-561,390.8L-561,390.8c0-0.4-0.3-0.7-0.6-0.7s-0.6,0.3-0.6,0.6v0.1H-561z"/>
		<path fill="#D6D6D6" d="M-562.2,392.8L-562.2,392.8c0,0.4,0.3,0.7,0.6,0.7s0.6-0.3,0.6-0.6v-0.1H-562.2z"/>
	</g>
	<path fill="#161616" d="M-563.8,417.2L-563.8,417.2c-0.3,0-0.6-0.3-0.6-0.6v-2.1c0-0.3,0.3-0.6,0.6-0.6l0,0c0.3,0,0.6,0.3,0.6,0.6
		v2.1C-563.2,416.9-563.4,417.2-563.8,417.2z"/>
	<g>
		<path fill="#D6D6D6" d="M-563.2,414.5L-563.2,414.5c0-0.4-0.3-0.7-0.6-0.7s-0.6,0.3-0.6,0.6v0.1H-563.2z"/>
		<path fill="#D6D6D6" d="M-564.4,416.5L-564.4,416.5c0,0.4,0.3,0.7,0.6,0.7s0.6-0.3,0.6-0.6v-0.1H-564.4z"/>
	</g>
	<path fill="#161616" d="M-568.4,417.2L-568.4,417.2c-0.3,0-0.6-0.3-0.6-0.6v-2.1c0-0.3,0.3-0.6,0.6-0.6l0,0c0.3,0,0.6,0.3,0.6,0.6
		v2.1C-567.8,416.9-568.1,417.2-568.4,417.2z"/>
	<g>
		<path fill="#D6D6D6" d="M-567.8,414.5L-567.8,414.5c0-0.4-0.3-0.7-0.6-0.7s-0.6,0.3-0.6,0.6v0.1H-567.8z"/>
		<path fill="#D6D6D6" d="M-569,416.5L-569,416.5c0,0.4,0.3,0.7,0.6,0.7s0.6-0.3,0.6-0.6v-0.1H-569z"/>
	</g>
	<path fill="#161616" d="M-561.6,417.2L-561.6,417.2c-0.3,0-0.6-0.3-0.6-0.6v-2.1c0-0.3,0.3-0.6,0.6-0.6l0,0c0.3,0,0.6,0.3,0.6,0.6
		v2.1C-561,416.9-561.3,417.2-561.6,417.2z"/>
	<g>
		<path fill="#D6D6D6" d="M-561,414.5L-561,414.5c0-0.4-0.3-0.7-0.6-0.7s-0.6,0.3-0.6,0.6v0.1H-561z"/>
		<path fill="#D6D6D6" d="M-562.2,416.5L-562.2,416.5c0,0.4,0.3,0.7,0.6,0.7s0.6-0.3,0.6-0.6v-0.1H-562.2z"/>
	</g>
	<path fill="#68552B" d="M-571.9,388.8h-8.6c-0.8,0-1.4-0.6-1.4-1.4v-4c0-1,1-1.5,1.8-1.5l7.8,0.5c0.8,0,1.4,0.6,1.4,1.4l0.4,3.3
		C-570.5,387.8-570.7,388.8-571.9,388.8z"/>
	<path fill="#8C733C" d="M-571.8,388.3h-8.2c-0.8,0-1.4-0.6-1.4-1.4v-3.6c0-0.8,0.6-1.4,1.4-1.4h8.2c0.8,0,1.4,0.6,1.4,1.4v3.6
		C-570.5,387.7-571.1,388.3-571.8,388.3z"/>
	<polyline fill="none" stroke="#A08344" points="-558.5,416.9 -549.5,416.9 -549.5,413.2 -556.7,413.2 -556.7,409.9 -549.5,409.9 
		-549.5,406.3 -556.7,406.3 -556.7,402.6 -549.5,402.6 -549.5,398.9 -556.7,398.9 -556.7,395.5 -549.5,395.5 -549.5,391.5 
		-556.7,391.5 -556.7,387.7 -549.5,387.7 -549.5,383.8 -557,383.8 -557,380.1 -549.5,380.1 -549.5,378.9 	"/>
</g>
<g>
	<path fill="#5D6069" d="M-615.1,435.9h-0.9v2.1h-1.2v-5.7h2.1c0.7,0,1.2,0.1,1.6,0.4s0.5,0.7,0.5,1.3c0,0.4-0.1,0.7-0.3,1
		s-0.4,0.5-0.8,0.6l1.2,2.3v0.1h-1.3L-615.1,435.9z M-616.1,434.9h0.9c0.3,0,0.5-0.1,0.7-0.2s0.2-0.4,0.2-0.6c0-0.3-0.1-0.5-0.2-0.6
		s-0.4-0.2-0.7-0.2h-0.9V434.9z"/>
	<path fill="#5D6069" d="M-610.1,434.2l1.1-2h1.3l-1.7,2.8l1.7,2.9h-1.4l-1.1-2l-1.1,2h-1.4l1.7-2.9l-1.7-2.8h1.3L-610.1,434.2z"/>
	<path fill="#5D6069" d="M-607.1,438v-5.7h1.8c0.5,0,0.9,0.1,1.3,0.3s0.7,0.5,0.9,1s0.3,0.9,0.3,1.4v0.3c0,0.5-0.1,1-0.3,1.4
		s-0.5,0.7-0.9,1s-0.8,0.3-1.3,0.3H-607.1z M-605.9,433.2v3.8h0.6c0.5,0,0.8-0.1,1.1-0.4s0.4-0.7,0.4-1.3V435c0-0.6-0.1-1-0.4-1.3
		s-0.6-0.4-1.1-0.4H-605.9z"/>
</g>
<g>
	<path fill="#5D6069" d="M-573.3,433.2h-1.7v4.7h-1.2v-4.7h-1.7v-0.9h4.6V433.2z"/>
	<path fill="#5D6069" d="M-570.6,434.2l1.1-2h1.3l-1.7,2.8l1.7,2.9h-1.4l-1.1-2l-1.1,2h-1.4l1.7-2.9l-1.7-2.8h1.3L-570.6,434.2z"/>
	<path fill="#5D6069" d="M-567.6,438v-5.7h1.8c0.5,0,0.9,0.1,1.3,0.3s0.7,0.5,0.9,1s0.3,0.9,0.3,1.4v0.3c0,0.5-0.1,1-0.3,1.4
		s-0.5,0.7-0.9,1s-0.8,0.3-1.3,0.3H-567.6z M-566.4,433.2v3.8h0.6c0.5,0,0.8-0.1,1.1-0.4s0.4-0.7,0.4-1.3V435c0-0.6-0.1-1-0.4-1.3
		s-0.6-0.4-1.1-0.4H-566.4z"/>
</g>
</svg>
