<?xml version="1.0" encoding="utf-8"?>
<!-- Generator: Adobe Illustrator 18.1.1, SVG Export Plug-In . SVG Version: 6.00 Build 0)  -->
<svg version="1.1" id="svg2" xmlns="http://www.w3.org/2000/svg" xmlns:xlink="http://www.w3.org/1999/xlink" x="0px" y="0px"
	 viewBox="-644.4 354.5 81.5 76.6" enable-background="new -644.4 354.5 81.5 76.6" xml:space="preserve">
<path fill-rule="evenodd" clip-rule="evenodd" fill="#D7D7D7" d="M-566.9,354.5h-73.5c-2.2,0-4,1.8-4,4v68.6c0,2.2,1.8,4,4,4h33.3
	c0-1.9,1.6-3.5,3.5-3.5c1.9,0,3.5,1.6,3.5,3.5h33.3c2.2,0,4-1.8,4-4v-68.6C-562.9,356.3-564.7,354.5-566.9,354.5z"/>
<g>
	<g id="icon">
		<path fill="none" stroke="#000000" stroke-width="1.0423" d="M-606,404.6v11.3"/>
		<path fill="none" stroke="#FF0000" stroke-width="1.0423" d="M-601.4,404.6c0,0,0,8.6,0,11.3"/>
		<g>
			<path d="M-626.5,385.3c-1.1,0.3-2.4,1.8-2.4,3.4s1.1,3.1,2.4,3.4c1.2,0.3,6.6,1.7,6.6,1.7v-10.2L-626.5,385.3z M-625.3,390.1
				c-0.7,0-1.3-0.6-1.3-1.3c0-0.7,0.6-1.3,1.3-1.3s1.3,0.6,1.3,1.3C-624,389.5-624.6,390.1-625.3,390.1z"/>
		</g>
		<g>
			<path d="M-580.9,385.3c-1.2-0.3-6.6-1.7-6.6-1.7v10.2l6.6-1.7c1.1-0.3,2.4-1.8,2.4-3.4C-578.6,387.1-579.7,385.6-580.9,385.3z
				 M-582.1,390.1c-0.7,0-1.3-0.6-1.3-1.3c0-0.7,0.6-1.3,1.3-1.3c0.7,0,1.3,0.6,1.3,1.3C-580.7,389.5-581.3,390.1-582.1,390.1z"/>
		</g>
		<circle fill="#0D0D0D" cx="-603.7" cy="388.8" r="18.1"/>
		<g>
			<circle cx="-603.7" cy="388.8" r="18.1"/>
		</g>
		<circle fill="#D7D8D9" cx="-603.7" cy="388.8" r="3.1"/>
		<path fill="none" stroke="#58595B" stroke-width="0.6453" stroke-linecap="round" stroke-linejoin="round" d="M-620.8,392
			c-0.8-4.4,0-9.1,2.8-13.1c5.5-7.9,16.3-9.9,24.2-4.4"/>
		<g>
			<g>
				<path fill="none" stroke="#3F3F41" stroke-width="7.240000e-02" stroke-linecap="round" stroke-linejoin="round" d="
					M-594.2,398.3c5.3-5.3,5.3-13.8,0-19c-5.3-5.3-13.8-5.3-19,0c-5.3,5.3-5.3,13.8,0,19C-607.9,403.5-599.4,403.5-594.2,398.3z"/>
				<path fill="none" stroke="#3F3F41" stroke-width="7.240000e-02" stroke-linecap="round" stroke-linejoin="round" d="
					M-612.1,397.2c-4.7-4.7-4.7-12.2,0-16.9c4.7-4.7,12.2-4.7,16.9,0c4.7,4.7,4.7,12.2,0,16.9S-607.5,401.9-612.1,397.2z"/>
				
					<circle fill="none" stroke="#3F3F41" stroke-width="7.240000e-02" stroke-linecap="round" stroke-linejoin="round" cx="-603.7" cy="388.8" r="10.5"/>
				<path fill="none" stroke="#3F3F41" stroke-width="7.240000e-02" stroke-linecap="round" stroke-linejoin="round" d="M-610,395.1
					c-3.5-3.5-3.5-9.2,0-12.7c3.5-3.5,9.2-3.5,12.7,0c3.5,3.5,3.5,9.2,0,12.7C-600.8,398.6-606.5,398.6-610,395.1z"/>
				
					<circle fill="none" stroke="#3F3F41" stroke-width="7.240000e-02" stroke-linecap="round" stroke-linejoin="round" cx="-603.7" cy="388.8" r="7.5"/>
				<path fill="none" stroke="#3F3F41" stroke-width="7.240000e-02" stroke-linecap="round" stroke-linejoin="round" d="M-607.9,393
					c-2.3-2.3-2.3-6.1,0-8.5c2.3-2.3,6.1-2.3,8.5,0s2.3,6.1,0,8.5C-601.8,395.3-605.6,395.3-607.9,393z"/>
			</g>
		</g>
		<path fill="none" stroke="#303032" stroke-width="0.6453" stroke-linecap="round" stroke-linejoin="round" d="M-611,404.6
			c8.7,4,19.1,0.2,23.1-8.6c2.2-4.8,2-10,0-14.4"/>
	</g>
	<circle fill="#FFFFFF" stroke="#FFCC33" stroke-miterlimit="10" cx="-594.7" cy="401.1" r="7.1"/>
	<path fill="#FFCC33" d="M-594.7,405.6L-594.7,405.6c-0.6,0-1.1-0.5-1.1-1.1v-6.9c0-0.6,0.5-1.1,1.1-1.1l0,0c0.6,0,1.1,0.5,1.1,1.1
		v6.9C-593.6,405.2-594.1,405.6-594.7,405.6z"/>
	<path fill="#FFCC33" d="M-599.2,401.1L-599.2,401.1c0-0.6,0.5-1.1,1.1-1.1h6.9c0.6,0,1.1,0.5,1.1,1.1l0,0c0,0.6-0.5,1.1-1.1,1.1
		h-6.9C-598.7,402.2-599.2,401.7-599.2,401.1z"/>
</g>
</svg>
