<?xml version="1.0" encoding="utf-8"?>
<!-- Generator: Adobe Illustrator 18.1.1, SVG Export Plug-In . SVG Version: 6.00 Build 0)  -->
<svg version="1.1" id="svg2" xmlns="http://www.w3.org/2000/svg" xmlns:xlink="http://www.w3.org/1999/xlink" x="0px" y="0px"
	 viewBox="-619.7 367.5 81.5 76.6" enable-background="new -619.7 367.5 81.5 76.6" xml:space="preserve">
<path fill-rule="evenodd" clip-rule="evenodd" fill="#D7D7D7" d="M-542.1,367.5h-73.5c-2.2,0-4,1.8-4,4v68.6c0,2.2,1.8,4,4,4h33.3
	c0-1.9,1.6-3.5,3.5-3.5c1.9,0,3.5,1.6,3.5,3.5h33.3c2.2,0,4-1.8,4-4v-68.6C-538.1,369.3-539.9,367.5-542.1,367.5z"/>
<g id="icon">
	<path fill="none" stroke="#000000" stroke-width="1.0423" d="M-580.7,417.6v11.1"/>
	<path fill="none" stroke="#FF0000" stroke-width="1.0423" d="M-576,417.6c0,0,0,8.4,0,11.1"/>
	<g>
		<path d="M-601.3,398.3c-1.1,0.3-2.4,1.8-2.4,3.4s1.1,3.1,2.4,3.4c1.2,0.3,6.6,1.7,6.6,1.7v-10.2L-601.3,398.3z M-600.1,403
			c-0.7,0-1.3-0.6-1.3-1.3c0-0.7,0.6-1.3,1.3-1.3s1.3,0.6,1.3,1.3C-598.8,402.4-599.4,403-600.1,403z"/>
	</g>
	<g>
		<path d="M-555.5,398.3c-1.2-0.3-6.6-1.7-6.6-1.7v10.2l6.6-1.7c1.1-0.3,2.4-1.8,2.4-3.4C-553.1,400.1-554.2,398.6-555.5,398.3z
			 M-556.6,403c-0.7,0-1.3-0.6-1.3-1.3c0-0.7,0.6-1.3,1.3-1.3c0.7,0,1.3,0.6,1.3,1.3C-555.3,402.4-555.9,403-556.6,403z"/>
	</g>
	<circle fill="#0D0D0D" cx="-578.4" cy="401.7" r="18.3"/>
	<g>
		<circle cx="-578.4" cy="401.7" r="18.3"/>
	</g>
	<circle fill="#D7D8D9" cx="-578.4" cy="401.7" r="3.1"/>
	<path fill="none" stroke="#58595B" stroke-width="0.6453" stroke-linecap="round" stroke-linejoin="round" d="M-595.6,404.9
		c-0.8-4.4,0-9.2,2.8-13.2c5.5-8,16.4-10,24.4-4.5"/>
	<g>
		<g>
			<path fill="none" stroke="#3F3F41" stroke-width="7.240000e-02" stroke-linecap="round" stroke-linejoin="round" d="
				M-568.8,411.3c5.3-5.3,5.3-13.9,0-19.1c-5.3-5.3-13.9-5.3-19.1,0c-5.3,5.3-5.3,13.9,0,19.1C-582.7,416.6-574.1,416.6-568.8,411.3
				z"/>
			<path fill="none" stroke="#3F3F41" stroke-width="7.240000e-02" stroke-linecap="round" stroke-linejoin="round" d="
				M-586.9,410.2c-4.7-4.7-4.7-12.3,0-17c4.7-4.7,12.3-4.7,17,0c4.7,4.7,4.7,12.3,0,17C-574.6,414.9-582.2,414.9-586.9,410.2z"/>
			
				<circle fill="none" stroke="#3F3F41" stroke-width="7.240000e-02" stroke-linecap="round" stroke-linejoin="round" cx="-578.4" cy="401.7" r="10.5"/>
			<path fill="none" stroke="#3F3F41" stroke-width="7.240000e-02" stroke-linecap="round" stroke-linejoin="round" d="
				M-584.8,408.1c-3.5-3.5-3.5-9.2,0-12.8c3.5-3.5,9.2-3.5,12.8,0s3.5,9.2,0,12.8C-575.5,411.6-581.2,411.6-584.8,408.1z"/>
			
				<circle fill="none" stroke="#3F3F41" stroke-width="7.240000e-02" stroke-linecap="round" stroke-linejoin="round" cx="-578.4" cy="401.7" r="7.5"/>
			<path fill="none" stroke="#3F3F41" stroke-width="7.240000e-02" stroke-linecap="round" stroke-linejoin="round" d="M-582.6,406
				c-2.4-2.4-2.4-6.2,0-8.5c2.4-2.4,6.2-2.4,8.5,0c2.4,2.4,2.4,6.2,0,8.5C-576.5,408.3-580.3,408.3-582.6,406z"/>
		</g>
	</g>
	<path fill="none" stroke="#303032" stroke-width="0.6453" stroke-linecap="round" stroke-linejoin="round" d="M-585.7,417.6
		c8.8,4,19.2,0.2,23.2-8.6c2.2-4.8,2.1-10.1,0-14.5"/>
</g>
</svg>
