<?xml version="1.0" encoding="utf-8"?>
<!-- Generator: Adobe Illustrator 19.1.0, SVG Export Plug-In . SVG Version: 6.00 Build 0)  -->
<svg version="1.1" id="svg" xmlns="http://www.w3.org/2000/svg" xmlns:xlink="http://www.w3.org/1999/xlink" x="0px" y="0px"
	 width="73px" height="98px" viewBox="-626.9 334.8 73 98" enable-background="new -626.9 334.8 73 98" xml:space="preserve">
<metadata><?xpacket begin="﻿" id="W5M0MpCehiHzreSzNTczkc9d"?>
<x:xmpmeta xmlns:x="adobe:ns:meta/" x:xmptk="Adobe XMP Core 5.6-c067 79.157747, 2015/03/30-23:40:42        ">
   <rdf:RDF xmlns:rdf="http://www.w3.org/1999/02/22-rdf-syntax-ns#">
      <rdf:Description rdf:about=""
            xmlns:xmp="http://ns.adobe.com/xap/1.0/"
            xmlns:xmpGImg="http://ns.adobe.com/xap/1.0/g/img/"
            xmlns:xmpTPg="http://ns.adobe.com/xap/1.0/t/pg/"
            xmlns:stDim="http://ns.adobe.com/xap/1.0/sType/Dimensions#"
            xmlns:xmpG="http://ns.adobe.com/xap/1.0/g/"
            xmlns:dc="http://purl.org/dc/elements/1.1/"
            xmlns:xmpMM="http://ns.adobe.com/xap/1.0/mm/"
            xmlns:stRef="http://ns.adobe.com/xap/1.0/sType/ResourceRef#"
            xmlns:stEvt="http://ns.adobe.com/xap/1.0/sType/ResourceEvent#"
            xmlns:pdf="http://ns.adobe.com/pdf/1.3/">
         <xmp:CreatorTool>Adobe Illustrator CC 2015 (Macintosh)</xmp:CreatorTool>
         <xmp:CreateDate>2017-01-30T13:21:53+01:00</xmp:CreateDate>
         <xmp:ModifyDate>2017-01-30T13:21:54+01:00</xmp:ModifyDate>
         <xmp:MetadataDate>2017-01-30T13:21:54+01:00</xmp:MetadataDate>
         <xmp:Thumbnails>
            <rdf:Alt>
               <rdf:li rdf:parseType="Resource">
                  <xmpGImg:width>192</xmpGImg:width>
                  <xmpGImg:height>256</xmpGImg:height>
                  <xmpGImg:format>JPEG</xmpGImg:format>
                  <xmpGImg:image>/9j/4AAQSkZJRgABAgEASABIAAD/7QAsUGhvdG9zaG9wIDMuMAA4QklNA+0AAAAAABAASAAAAAEA&#xA;AQBIAAAAAQAB/+4ADkFkb2JlAGTAAAAAAf/bAIQABgQEBAUEBgUFBgkGBQYJCwgGBggLDAoKCwoK&#xA;DBAMDAwMDAwQDA4PEA8ODBMTFBQTExwbGxscHx8fHx8fHx8fHwEHBwcNDA0YEBAYGhURFRofHx8f&#xA;Hx8fHx8fHx8fHx8fHx8fHx8fHx8fHx8fHx8fHx8fHx8fHx8fHx8fHx8fHx8f/8AAEQgBAADAAwER&#xA;AAIRAQMRAf/EAaIAAAAHAQEBAQEAAAAAAAAAAAQFAwIGAQAHCAkKCwEAAgIDAQEBAQEAAAAAAAAA&#xA;AQACAwQFBgcICQoLEAACAQMDAgQCBgcDBAIGAnMBAgMRBAAFIRIxQVEGE2EicYEUMpGhBxWxQiPB&#xA;UtHhMxZi8CRygvElQzRTkqKyY3PCNUQnk6OzNhdUZHTD0uIIJoMJChgZhJRFRqS0VtNVKBry4/PE&#xA;1OT0ZXWFlaW1xdXl9WZ2hpamtsbW5vY3R1dnd4eXp7fH1+f3OEhYaHiImKi4yNjo+Ck5SVlpeYmZ&#xA;qbnJ2en5KjpKWmp6ipqqusra6voRAAICAQIDBQUEBQYECAMDbQEAAhEDBCESMUEFURNhIgZxgZEy&#xA;obHwFMHR4SNCFVJicvEzJDRDghaSUyWiY7LCB3PSNeJEgxdUkwgJChgZJjZFGidkdFU38qOzwygp&#xA;0+PzhJSktMTU5PRldYWVpbXF1eX1RlZmdoaWprbG1ub2R1dnd4eXp7fH1+f3OEhYaHiImKi4yNjo&#xA;+DlJWWl5iZmpucnZ6fkqOkpaanqKmqq6ytrq+v/aAAwDAQACEQMRAD8A9C6pqk00zRxsVgU0AG3K&#xA;nc4qwDzz+ZWh+VI/Slrd6m68orGMgEA9Gkbfgv4+2bLQdl5NSbG0O/8AV3uJqdXHFz3Pc8Q8w/mz&#xA;511mRx9eawtm+zb2ZMQA8C4PqN71bOt03Y+nxD6eI953/Y6XLr8s+tDyYjNPPO/qTyNLIeruxY/e&#xA;c2cYgCgKcQyJ5q1jqmpWEgksbua1kBqGhkaM18aqRkMmKExUgD70xySjyNM/8rfnj5m02RIdXpqt&#xA;kNmLUS4UeIkAo3+yG/jmm1fYOLILh6JfZ+Pc7DD2lOP1eofa9x8ueZtG8xact/pU4lhJ4yIdpI26&#xA;8XXsf8xnI6nS5MEuGYou6xZo5BcSmuY7a7FXYq7FXYq7FXYq7FXYq7FXYq7FXYq7FXYq4Eg1Gx8c&#xA;VTrRtTlaUW07Fg392x6gjtXFXm/5leeY/Kmh+rFxfU7smOxibcAgfFIw/lSv30zZdl6A6nJR+gc/&#xA;1fFxNXqfCjfU8nzJeXl1eXUt1dStPczsXllc1ZmPUk538ICIEYigHmpSMjZ5qWSQyDyB5ag8z+b9&#xA;N0KeZreG+d0eaMAsvGNn2B2/ZzF1uoOHFKYF03afEMkxE9Uw/Mr8tNZ8j6x9Wua3Gmzkmw1BRRZF&#xA;H7LfyyL+0v0jbKez+0IamFjaQ5j8dGeq0ssUvLvYfmwcZO/KHmzU/LGsRajZNVRRbm3JISWPujfw&#xA;PY5ia3Rw1GMwl8D3Fv0+eWKVh9TaLrFjrOlW2p2L87W6QPGT1HYq3+Up2PvnnmfDLFMwlzD0+PIJ&#xA;xEhyKNypm7FXYq7FXYq7FXYq7FXYq7FXYq7FXYq7FXYqiNO/3ug/11/Xir5a/NnzDJrPnW+o/K2s&#xA;GNnbr2AiJDkf60nI1zv+x9MMWnj3y3Px/Y81r8vHlPcNmHZtHDetfkn5S/LnzVZaro2sySL5juVI&#xA;sSW4BIlAbnb70aQMKuG/Z6bcs0Xa+q1GCUZw/uxz/b5fjudlocOLIDGX1fjk35L8ia35M/O/Q9M1&#xA;NKoZZmtLtQfTnj9CT409/wCZeoOOr1sNRopyj5WO7cLg08sWoiC9y1TUPLnm7Xdc/LzWLF5Pq0MV&#xA;wsoBKlJEUh1kA/dSRu+1evvuM5rHDJghDUQPMkfjvDtpyjkkccg+WvzH8i3PkrzNLo81wl1EVE1r&#xA;MpHJoXJC+ogNUbbcfdtna6DWDUY+MCu/3vP6nTnFPhYvma472j/nH3zFI36Q8vytVFH1y1BPTcJK&#xA;B96n785X2j0w9OUe4/odz2Vl5w+L2bOWdw7FXYq7FXYq7FXYq7FXYq7FXYq7FXYq7FXYqiNO/wB7&#xA;oP8AXX9eKviyeZ555J5N5JWZ3Puxqc9SjEAADo8fI2bWYUKtpd3VndRXdpK8FzA4khmjJV0dTUMp&#xA;HQjIyiJCjuCmMiDYfVP5Q/mPYfmBaw22tWqt5k0OlwtwE+BqgxeujDaNiG4uveu22w4ntTQS0pJg&#xA;f3c9v2PQ6PUjMPUPVFG/mz+Y2meQLKWWxtUk8ya0KxEp8J9JRGJZm/aEYoFSv8TlfZmglqpVI/u4&#xA;fih72Wr1IwjYeqT5N1LUr/VL+fUNQne5vblzJPPIaszH/PYds7nHjjCIjEUA87KRkbPNDZNin3kn&#xA;zhH5R1+LWpYXuII0eOaGMhWYSLxFCdtmoc1HbkQdLI91feHO7OlWYedvRv8AoZ/Qf+rJdf8AIyPO&#xA;Dejd/wBDP6D/ANWS6/5GR4q7/oZ/Qf8AqyXX/IyPFXf9DP6D/wBWS6/5GR4q7/oZ/Qf+rJdf8jI8&#xA;Vd/0M/oP/Vkuv+RkeKu/6Gf0H/qyXX/IyPFXf9DP6D/1ZLr/AJGR4q7/AKGf0H/qyXX/ACMjxVlv&#xA;k386vJnmm8XT4XlsNQkNIbe8Cp6h8I3VnUn2JB8MVZ7irsVdirsVdiqI07/e6D/XX9eKvjLVLGSw&#xA;1K7sZARJazSQsD1rGxU1+7PT8WQTgJDqLeQyR4ZEdyGyxin3kryVrfnDW49K0qOrH4ri4avpwx13&#xA;kkP6h1J2GYur1cMEOKX9rdgwSyyoPqHy5/gn8u7zR/I2m/v9a1Zy1w4p6rcY2czzn9lTx4on9pzj&#xA;M/jasSzy2hH8UP0u/wAfh4SMY+oq/mf/AAb541TVfy+1eMpqVlHHdWsu3MB41b1oWpsyF6Mp6jxF&#xA;aR0/jaaMdRD6Tsf1FOXgyk45cw+WfPPknV/J2vy6PqQDMB6ltcJ9iaFiQsi+HQgg9Dna6PWQ1GPj&#xA;j/YXn8+CWKXCWP5lNKE1Rwtow/mIA++v8M03b2Th0xH84gfp/Q5/Zsby33BJc4V6F2KrowhkUSEq&#xA;hI5MBUgdzTFU4+p+V/8Alvl/4Bv+aMVWy2nloRsY76UuAeI4Hc9v2R+vFUnxV2KuxV2Kto7o6ujF&#xA;XUgqwNCCNwQRir7M/LXzBceYPI2j6tctzuZ4Sk7/AM0kLtC7f7JoycUsmxV2KuxV2KojTv8Ae6D/&#xA;AF1/Xir5x/PHytJpvmb9LwpSy1Uciw6LcIAJAf8AWFG9987bsHVjJi4D9UPu/GzoO0sPDPi6S+95&#xA;vm9da9G/Ln85L3yT5f1PTLXToJ7i6Pq2d2QFZJSAv76grIijdRXY+x21Gv7KGoyRkZEAcx+ruc7T&#xA;a04okAKf5R6lf6p+cej6hqE73N7c3E0k88hqzMYJP8wO2S7UxxhpJRiKAA+8I0cjLOCef7HvX5le&#xA;efK/5ei81SC3jn816yqCOGtXZYlEaPKeqwpToPtHp3I5js/R5dVUSaxQ/G3m7fU54YbP8ZfKOt63&#xA;qmuapcapqlw1zfXLcpZW/AAdAoGwA2Azt8OGOOIjEUA89kyGZs80DlrBKNVnDyiJTsnX5nOM9oNW&#xA;J5BjHKHP3/sd92Zh4YcR/i+5A5z7snYq7FXYq7FXYq7FXYqmWs6wNS+r0t0t/QTh8O9ensKAU2GK&#xA;pbir62/Ir/yVeif9HX/UZNilnuKuxV2KuxVEad/vdB/rr+vFUi8zeXNO8xaNPpV+pMMoqki/ajkH&#xA;2XWvcf2ZkaXUywZBOPMNWbEMkTEvmHzZ5Q1jyxqbWWoxUU1NvcqP3cqA/aQ/rHUZ6Bo9bj1EOKB9&#xA;46h5rPp5YpUUkzLaEw0DXtS0DWLbV9MkEV9aEtBIyhwCylD8LAg7Mcqz4Y5YGEvpLPHkMJCQ5hbr&#xA;et6prmqT6pqlw11fXLcpZn/AADYKBsANhjhwxxxEYiohcmQzNnmgctYK1vAXPI/YH45pu1e1Y4I8&#xA;Md8h+zzLn6PRnIbP0/ejc4ckk2XoQKcDTfAqYxvzQN49cVXYq7FXYq7FXYq7FXYqkfm//jmxf8Zl&#xA;/wCINir6H/Ir/wAlXon/AEdf9Rk2BLPcVdirsVdiqI07/e6D/XX9eKofFUFrGi6VrNi9jqdsl1av&#xA;uY3HQ/zKRure43y3DnnilxQNFhkxxmKkLDybzF/zj7ykaXy/qAVDUi1vK7ewlQH8V+nOk03tHtWW&#xA;PxH6nVZeyv5h+bD7j8lvzEik4pp6Tr/PHcQAf8lHQ/hmzj25pSN5V8D+pxJdnZh0v4q9h+R/n65c&#xA;CeCCyU9WmmRqf8ifVyOTt7TR5Ey9w/XSY9m5TzoIT80Py2/wX5Zs7035ur67uhA/FAkaJ6bMeNSz&#xA;E1Xrt8s0ur9oMkxWMcA7+v7HPw9mQjvL1fcxLSCTp0JJqSDU/wCyOaEkk2XZAUjMCuxVE2b7lD8x&#xA;iqKxV2KuxV2KuxV2KuxVI/N//HNi/wCMy/8AEGxV9D/kV/5KvRP+jr/qMmwJZ7irsVdirsVRGnf7&#xA;3Qf66/rxVD4q7FXYq7FXYq8c/wCcnP8AlEtK/wCY/wD5kyYq8b0f/jmwfI/rOFCMxV2KrkYq4Yds&#xA;VTAEEAjocVbxV2KuxV2KuxV2KpH5v/45sX/GZf8AiDYq+h/yK/8AJV6J/wBHX/UZNgSz3FXYq7FX&#xA;YqiNO/3ug/11/XiqHxV2KuxV2KuxV45/zk5/yiWlf8x//MmTFXjej/8AHNg+R/WcKEZirsVdiqMt&#xA;H5JxPVf1Yqr4q7FXYq7FXYq7FUj83/8AHNi/4zL/AMQbFX0P+RX/AJKvRP8Ao6/6jJsCWe4q7FXY&#xA;q7FURp3+90H+uv68VQ+KuxV2KuxV2KvHP+cnP+US0r/mP/5kyYq8b0f/AI5sHyP6zhQjMVdirsVV&#xA;IH4SA9jscVR+KuxV2KuxV2KuxVI/N/8AxzYv+My/8QbFX0P+RX/kq9E/6Ov+oybAlnuKuxV2KuxV&#xA;Ead/vdB/rr+vFUPirsVdirsVdirxz/nJz/lEtK/5j/8AmTJirxvR/wDjmwfI/rOFCMxV2KuxV2Ko&#xA;+B+cYPcbHFVTFXYq7FXYq7FUj83/APHNi/4zL/xBsVfQ/wCRX/kq9E/6Ov8AqMmwJZ7irsVdirsV&#xA;RGnf73Qf66/rxVD4q7FXYq7FXYq8c/5yc/5RLSv+Y/8A5kyYq8b0f/jmwfI/rOFCMxVGaTpk+pXq&#xA;W0O1d3fsqjqxyjUZxijxFjKVC3oWn+XdJsYwqQLJJT4pZAGYn6en0ZzmbWZMh3OziSyEo8xQAElF&#xA;AHU0GY/EWFpVdeZvLFqxSW7h5DqIwZP+IBsyoaPPLkD933sxCRXWnmPy1dsFgu4Sx6K49Mn5BwuO&#xA;TSZocwfv+5TGQTT0ov5F+4Zi8R72FoG/0LTrxCDEIpP2ZUABB96dcycGtyYzzsdxZxyEMJvrOazu&#xA;nt5ftIdiOhB6EZ0mHMMkRIOZGVi1DLUpH5v/AOObF/xmX/iDYq+h/wAiv/JV6J/0df8AUZNgSz3F&#xA;XYq7FXYqiNO/3ug/11/XiqHxV2KuxV2KuxV45/zk5/yiWlf8x/8AzJkxV43o/wDxzYPkf1nChGYq&#xA;zP8AL+FPSvJqfGWRK+AAJ/jmk7WkbiHHznky3NO47FPNen6ldXDNeXy2fl+JQ0hSvNjtVSv7RJ6d&#xA;vpzaaLLCI9MeLKW2BA5c0msJrGQcNE8ufXYl2a6uqPyI/wBYFQfpzMyxkN8uXhPcGZvqXX8mmrSL&#xA;XPL505ZNku7WigH5AcT+PyxxCfPFk4/IqL6FPfKlhq1nIQl4l7oUicraQk8wewA/Z9xmDrsuOY3j&#xA;w5erXMg+9k+a1rYt50jQS2sgHxsrqT7KQR/xI5u+yJGpD3OTgPNjebhvSPzf/wAc2L/jMv8AxBsV&#xA;fQ/5Ff8Akq9E/wCjr/qMmwJZ7irsVdirsVRGnf73Qf66/rxVD4q7FXYq7FXYq8c/5yc/5RLSv+Y/&#xA;/mTJirxvR/8AjmwfI/rOFCMxVm3kD/eO7/4yL/xHNF2t9Ufc42fmGVZqWhZcW8FxC0M8ayxPs8bg&#xA;FT33BwxmYmwaKgsev/LuuXd6Y4tSFjpSAC3gtgUYCnQheI/E/LNhi1eKMbMeLJ1JbBMAct29N8va&#xA;1bXTQXl+uo6Q6ESQ3ClnJ7ABuVKf630YM2qxyjcY8GTyUyB6bshhhihiWKJBHEg4oiigAHYAZgSk&#xA;SbPNrXYFYz51/wCPP/nr/wAaZueyP4vh+lyMHVjGbpyEj83/APHNi/4zL/xBsVfQ/wCRX/kq9E/6&#xA;Ov8AqMmwJZ7irsVdirsVRGnf73Qf66/rxVD4q7FXYq7FXYq8c/5yc/5RLSv+Y/8A5kyYq8b0f/jm&#xA;wfI/rOFCMxVm3kD/AHju/wDjIv8AxHNF2t9Ufc42fmGVZqWh2KozR5Xi1aykSgdJ4ytQCKhx2OTx&#xA;Gpg+aY83axK8urXsj0LvPIWoABUuewxym5k+ay5oPIIdirGfOv8Ax5/89f8AjTNz2R/F8P0uRg6s&#xA;YzdOQkfm/wD45sX/ABmX/iDYq+h/yK/8lXon/R1/1GTYEs9xV2KuxV2KojTv97oP9df14qh8Vdir&#xA;sVdirsVeOf8AOTn/ACiWlf8AMf8A8yZMVeN6P/xzYPkf1nChGYqzbyB/vHd/8ZF/4jmi7W+qPucb&#xA;PzDP9E0u0u722Sa4ThJKiPF+8DUau1QlK7eOYGHGJSFnq1RjZZN5btdBi8vRyT6cmraldXb29nGt&#xA;V5kIrbs3Hiq13JGZunjjGPePFIyoNsAK5WU8stK0VdTh07WPLsFlLdBjaTRyerG5QVZCduLAZlQx&#xA;Q4hGcBG+XVmIi6IXatD5B027ktX0driSBRJdtbxGRYEbo0p5Cm2+OUaeBrhuudDl71lwDolXn7Rf&#xA;LsOi2F5pcUNslzKCtwoejI0bMOgY7/LKNdhxiEZQAFscsRQIYdd6VBDYm7S6Rv38kIjAk6IFOxKj&#xA;f4u+a6eICN31aTHZg3nX/jz/AOev/GmbPsj+L4fpbsHVjGbpyEj83/8AHNi/4zL/AMQbFX0P+RX/&#xA;AJKvRP8Ao6/6jJsCWe4q7FXYq7FURp3+90H+uv68VQ+KuxV2KuxV2KvHP+cnP+US0r/mP/5kyYq8&#xA;b0f/AI5sHyP6zhQjMVZr+X7r9WvEr8QdGI9iCP4Zo+1h6olxs/MMvhmlglWWJykiEMjDqCO+akEg&#xA;2GgFmnkj17yxjh0+WNNZ0q5e7topahJYZkEcqGny6+/05stFco1H64mx5g82/HuNuYZpb2Gv6nrF&#xA;nfatBFZW2n8ngtY39V3ldePJmAACgdM2UceScxKYERHpzbgCTZa1bypqFxqF5dadqRsl1KNIr6Mx&#xA;iQMEHAMtSKHhtjl0sjImMq4uaygb2PNif5lXNjaWGmeXrVubWShpKmpUKnBOXu1Sc1/aMoxjHGP4&#xA;WnMQAAwJmZiSxqSST8zmqaGKedJFMtpHX4lV2I9mIA/4jm77Iiakfc5OAc2N5uG9I/N//HNi/wCM&#xA;y/8AEGxV9D/kV/5KvRP+jr/qMmwJZ7irsVdirsVRGnf73Qf66/rxVD4q7FXYq7FXYq8c/wCcnP8A&#xA;lEtK/wCY/wD5kyYq8b0f/jmwfI/rOFCMxVMtA1h9Lv1moWhccJ0HUqe49xmLq9P4sK69GGSHEHpF&#xA;ne2t5CJraRZIz3B6exHY5zOTFKBqQouGYkc0XbXNxbTpPbyNFNGapIhIYH2IyMZGJsc0A0zGx/Nf&#xA;XoIhHcww3RAoJSCjn58Tx+4ZsYdqZANwC3DOVmo/mn5guYjFbJFZhhQyICz/AEFjQfdgydp5JChQ&#xA;U5yWHyyySyNLK5eRyWd2JJJPUknNcSSbLShL7ULWyhMtw4Ufsr+0x8AMtw4JZDUQyjEnkwLUL6W9&#xA;u3uJNix+FeyqOgzqMGEY4CIcyMaFIfLmSR+b/wDjmxf8Zl/4g2Kvof8AIr/yVeif9HX/AFGTYEs9&#xA;xV2KuxV2KojTv97oP9df14qh8VdirsVdirsVeOf85Of8olpX/Mf/AMyZMVeN6P8A8c2D5H9ZwoRm&#xA;KuxVUhnnhbnDI0bfzISp+8ZGUBLYi1ItEfpnWP8AluuP+Rr/ANcq/LY/5sfkGPAO536Z1j/luuP+&#xA;Rr/1x/LY/wCbH5BeAdzv0zrH/Ldcf8jX/rj+Wx/zY/ILwDud+mdY/wCW64/5Gv8A1x/LY/5sfkF4&#xA;B3NQXEskjeq7Ozb8mJJ+85bGIAoMqRGSV2KpH5v/AOObF/xmX/iDYq+h/wAiv/JV6J/0df8AUZNg&#xA;Sz3FXYq7FXYqiNO/3ug/11/XiqHxV2KuxV2KuxV45/zk5/yiWlf8x/8AzJkxV43o/wDxzYPkf1nC&#xA;hGYq7FXYq7FXYq7FXYq2jFWDDtiqYgggEdDireKpH5v/AOObF/xmX/iDYq+h/wAiv/JV6J/0df8A&#xA;UZNgSz3FXYq7FXYqiNO/3ug/11/XiqHxV2KuxV2KuxV45/zk5/yiWlf8x/8AzJkxV43o/wDxzYPk&#xA;f1nChGYq7FXYq7FXYq7FXYq7FUZaPVCp6r+rFVfFUj83/wDHNi/4zL/xBsVfQ/5Ff+Sr0T/o6/6j&#xA;JsCWe4q7FXYq7FURp3+90H+uv68VQ+KuxV2KuxV2KvHP+cnP+US0r/mP/wCZMmKvG9H/AOObB8j+&#xA;s4UIzFXYq7FXYq7FXYq7FXYqqQPwkB7HY4qj8VSPzf8A8c2L/jMv/EGxV9D/AJFf+Sr0T/o6/wCo&#xA;ybAlnuKuxV2KuxVEad/vdB/rr+vFUPirsVdirsVdirxz/nJz/lEtK/5j/wDmTJirxvR/+ObB8j+s&#xA;4UIzFXYq7FXYq7FXYq7FXYq7FUfA/OMHuNjiqT+b/wDjmxf8Zl/4g2Kvof8AIr/yVeif9HX/AFGT&#xA;YEs9xV2KuxV2KojTv97oP9df14qh8VdirsVdirsVeOf85Of8olpX/Mf/AMyZMVeN6P8A8c2D5H9Z&#xA;woRmKuxV2KuxV2KuxV2KuxV2Kq9o9H4no368VS/zf/xzYv8AjMv/ABBsVfQ/5Ff+Sr0T/o6/6jJs&#xA;CWe4q7FXYq7FURp3+90H+uv68VQ+KuxV2KuxV2KvHP8AnJz/AJRLSv8AmP8A+ZMmKvG9H/45sHyP&#xA;6zhQjMVdirsVdirsVdirsVdirsVbBIII6jpiqD82MG0qFh3mX/iDYq+ifyK/8lXon/R1/wBRk2BL&#xA;PcVdirsVdiqI07/e6D/XX9eKofFXYq7FXYq7FXjn/OTn/KJaV/zH/wDMmTFXz7BrF7BCsUZXgmwq&#xA;K++KF/6f1HxX/gcVd+n9R8V/4HFXfp/UfFf+BxV36f1HxX/gcVd+n9R8V/4HFXfp/UfFf+BxV36f&#xA;1HxX/gcVd+n9R8V/4HFXfp/UfFf+BxV36f1HxX/gcVU7vV7y7gEExUxq3MUFDWhH8cVfVP5Ff+Sr&#xA;0T/o6/6jJsUs9xV2KuxV2KojTv8Ae6D/AF1/XiqHxV2KuxV2KuxV5F/zkvaTy+SrG4jXlHb36GYj&#xA;9kPFIoY+3Kg+nFXzTihGaTDYzX0cd9KYbY15ONt6bCprTfFKjeJbx3cyWzmSBXIic9SoOxxQo4q7&#xA;FUx0gaKVuf0mXDcP9H48vtb1+z36UrtilLsUOxV2KpjGNF/Q0hdn/SnP4BvTjUf7GlPpxSl2KHYq&#xA;+vfyWs57T8sNCimXi7RSzAH+SeeSVD9KuDilm2KuxV2KuxVEad/vdB/rr+vFUPirsVdirsVdiqC1&#xA;rRtO1rSrnStRiE1ldoY5oztt1BB7FSAQexxV85+Yv+ccfONpeuNEkh1OxZj6TNIsMyr2EivRa+6n&#xA;fwGKpT/yoH8zv+rdF/0kwf8ANeKu/wCVA/md/wBW6L/pJg/5rxV3/KgfzO/6t0X/AEkwf814q7/l&#xA;QP5nf9W6L/pJg/5rxV3/ACoH8zv+rdF/0kwf814q7/lQP5nf9W6L/pJg/wCa8Vd/yoH8zv8Aq3Rf&#xA;9JMH/NeKu/5UD+Z3/Vui/wCkmD/mvFXf8qB/M7/q3Rf9JMH/ADXirv8AlQP5nf8AVui/6SYP+a8V&#xA;ZR5J/wCcctYkv47rzXJHb2MTBmsYX9SWWn7LOvwop7kEn5dcVfQsUUcUSRRKEijUKiKKKqqKAADs&#xA;Biq7FXYq7FXYqiNO/wB7oP8AXX9eKofFXYq7FXYq7FXYq7FXYq7FXYq7FXYq7FXYq7FXYq7FXYq7&#xA;FXYq7FXYq7FURp3+90H+uv68VQ+KuxV2KuxV2KuxV2KuxV2KuxV2KuxV2KuxV2KuxV2KuxV2KuxV&#xA;2KuxV2KojTv97oP9df14qidU0uaGZpI1LQMagjfjXscVS7FXYq7FXYq7FXYq7FXYq7FXYq7FXYq7&#xA;FXYq7FXYq7FXYq7FXYq7FXAEmg3PhiqdaNpkqyi5nUqF/u1PUk96Yq//2Q==</xmpGImg:image>
               </rdf:li>
            </rdf:Alt>
         </xmp:Thumbnails>
         <xmpTPg:NPages>1</xmpTPg:NPages>
         <xmpTPg:HasVisibleTransparency>True</xmpTPg:HasVisibleTransparency>
         <xmpTPg:HasVisibleOverprint>False</xmpTPg:HasVisibleOverprint>
         <xmpTPg:MaxPageSize rdf:parseType="Resource">
            <stDim:w>73.000000</stDim:w>
            <stDim:h>98.000000</stDim:h>
            <stDim:unit>Pixels</stDim:unit>
         </xmpTPg:MaxPageSize>
         <xmpTPg:PlateNames>
            <rdf:Seq>
               <rdf:li>Cyan</rdf:li>
               <rdf:li>Magenta</rdf:li>
               <rdf:li>Yellow</rdf:li>
               <rdf:li>Black</rdf:li>
            </rdf:Seq>
         </xmpTPg:PlateNames>
         <xmpTPg:SwatchGroups>
            <rdf:Seq>
               <rdf:li rdf:parseType="Resource">
                  <xmpG:groupName>Grupo de muestras por defecto</xmpG:groupName>
                  <xmpG:groupType>0</xmpG:groupType>
               </rdf:li>
            </rdf:Seq>
         </xmpTPg:SwatchGroups>
         <dc:format>image/svg+xml</dc:format>
         <dc:title>
            <rdf:Alt>
               <rdf:li xml:lang="x-default">mobile</rdf:li>
            </rdf:Alt>
         </dc:title>
         <xmpMM:RenditionClass>proof:pdf</xmpMM:RenditionClass>
         <xmpMM:DocumentID>xmp.did:f14bacbc-1a21-4e24-815f-1a01fc166942</xmpMM:DocumentID>
         <xmpMM:InstanceID>xmp.iid:f14bacbc-1a21-4e24-815f-1a01fc166942</xmpMM:InstanceID>
         <xmpMM:OriginalDocumentID>uuid:fe80ed43-59f5-4e43-a217-713116d1ccd2</xmpMM:OriginalDocumentID>
         <xmpMM:DerivedFrom rdf:parseType="Resource">
            <stRef:instanceID>xmp.iid:b4448cf0-7f76-461f-9a08-f832b968c099</stRef:instanceID>
            <stRef:documentID>xmp.did:b4448cf0-7f76-461f-9a08-f832b968c099</stRef:documentID>
            <stRef:originalDocumentID>uuid:fe80ed43-59f5-4e43-a217-713116d1ccd2</stRef:originalDocumentID>
            <stRef:renditionClass>proof:pdf</stRef:renditionClass>
         </xmpMM:DerivedFrom>
         <xmpMM:History>
            <rdf:Seq>
               <rdf:li rdf:parseType="Resource">
                  <stEvt:action>saved</stEvt:action>
                  <stEvt:instanceID>xmp.iid:88740106-d28c-4652-8f71-81ed5129f9cb</stEvt:instanceID>
                  <stEvt:when>2017-01-10T15:31:50+01:00</stEvt:when>
                  <stEvt:softwareAgent>Adobe Illustrator CC 2015 (Macintosh)</stEvt:softwareAgent>
                  <stEvt:changed>/</stEvt:changed>
               </rdf:li>
               <rdf:li rdf:parseType="Resource">
                  <stEvt:action>saved</stEvt:action>
                  <stEvt:instanceID>xmp.iid:f14bacbc-1a21-4e24-815f-1a01fc166942</stEvt:instanceID>
                  <stEvt:when>2017-01-30T13:21:54+01:00</stEvt:when>
                  <stEvt:softwareAgent>Adobe Illustrator CC 2015 (Macintosh)</stEvt:softwareAgent>
                  <stEvt:changed>/</stEvt:changed>
               </rdf:li>
            </rdf:Seq>
         </xmpMM:History>
         <pdf:Producer>Adobe PDF library 15.00</pdf:Producer>
      </rdf:Description>
   </rdf:RDF>
</x:xmpmeta>
                                                                                                    
                                                                                                    
                                                                                                    
                                                                                                    
                                                                                                    
                                                                                                    
                                                                                                    
                                                                                                    
                                                                                                    
                                                                                                    
                                                                                                    
                                                                                                    
                                                                                                    
                                                                                                    
                                                                                                    
                                                                                                    
                                                                                                    
                                                                                                    
                                                                                                    
                                                                                                    
                           
<?xpacket end="w"?>
	</metadata>
<path fill-rule="evenodd" clip-rule="evenodd" fill="#D7D7D7" d="M-557.9,334.8h-65c-2.2,0-4,1.8-4,4v90c0,2.2,1.8,4,4,4h65
	c2.2,0,4-1.8,4-4v-90C-553.9,336.6-555.7,334.8-557.9,334.8z"/>
<g>
	<g>
		<path fill-rule="evenodd" clip-rule="evenodd" fill="#202121" d="M-575.1,422.8h-30.6c-2.2,0-4-1.8-4-4v-68.9c0-2.2,1.8-4,4-4
			h30.6c2.2,0,4,1.8,4,4v68.9C-571.1,421-572.9,422.8-575.1,422.8z"/>
	</g>
	<g>
		<path fill-rule="evenodd" clip-rule="evenodd" fill="#4A4B4C" d="M-607.8,353.2h34.8v62.1h-34.8V353.2z"/>
		<path opacity="8.000000e-02" fill-rule="evenodd" clip-rule="evenodd" fill="#FFFFFF" d="M-573,353.2v62.1h-0.6l-26-62.1H-573z"/>
	</g>
	<path fill-rule="evenodd" clip-rule="evenodd" fill="#666666" d="M-577.1,350.2c0.4,0,0.7,0.3,0.7,0.7c0,0.4-0.3,0.7-0.7,0.7
		s-0.7-0.3-0.7-0.7C-577.8,350.5-577.5,350.2-577.1,350.2z"/>
	<path fill-rule="evenodd" clip-rule="evenodd" fill="#666666" d="M-602.6,418.6c0.4,0,0.7,0.3,0.7,0.7c0,0.4-0.3,0.7-0.7,0.7
		c-0.4,0-0.7-0.3-0.7-0.7C-603.3,418.9-603,418.6-602.6,418.6z"/>
	<path fill-rule="evenodd" clip-rule="evenodd" fill="#666666" d="M-591,418.4c0.4,0,0.7,0.3,0.7,0.7c0,0.4-0.3,0.7-0.7,0.7
		s-0.7-0.3-0.7-0.7C-591.7,418.7-591.3,418.4-591,418.4z"/>
	<path fill-rule="evenodd" clip-rule="evenodd" fill="#666666" d="M-579.3,418.4c0.4,0,0.7,0.3,0.7,0.7c0,0.4-0.3,0.7-0.7,0.7
		s-0.7-0.3-0.7-0.7C-580,418.7-579.7,418.4-579.3,418.4z"/>
	<g>
		<g>
			<path fill-rule="evenodd" clip-rule="evenodd" fill="#595A5B" d="M-587.7,348.4h-5.5c-0.3,0-0.5,0.2-0.5,0.5s0.2,0.5,0.5,0.5h5.5
				c0.3,0,0.5-0.2,0.5-0.5S-587.4,348.4-587.7,348.4z"/>
		</g>
	</g>
</g>
<g>
	<polygon fill="#FFFFFF" points="-581.4,391.4 -599,391.6 -599.7,380 -580.8,380 	"/>
	<path fill="#82AD3A" d="M-584.6,393.3h-11.3c-2.8,0-5.1-2.3-5.1-5.2v-11.3c0-2.8,2.3-5.1,5.1-5.1h11.3c2.8,0,5.1,2.3,5.1,5.1v10.8
		C-579.5,390.5-581.8,393.3-584.6,393.3z M-595.3,385.9v0.3v1.4c0,2,2.2,3.7,4.9,3.7h0.1c2.7,0,5-1.8,5-3.8v-1.3v-0.4v-1.6h-10
		V385.9z M-589.5,381.1c0-0.4-0.3-0.6-0.6-0.6c-0.4,0-0.6,0.3-0.6,0.6c0,0.3,0.2,0.5,0.4,0.6v2.2h0.5v-2.2
		C-589.7,381.6-589.5,381.4-589.5,381.1z M-596.3,385.9v-1.1c0-0.1-0.2-0.2-0.3-0.2c-0.1,0-0.3,0.1-0.3,0.2v1.1h-0.8v-0.6
		c0-0.1,0-0.2-0.1-0.2s-0.1,0.1-0.1,0.2v0.6h-0.9c-0.1,0-0.2,0-0.2,0.1c0,0.1,0.1,0.1,0.2,0.1h0.9v0.7c0,0.1,0,0.2,0.1,0.2
		s0.1-0.1,0.1-0.2v-0.7h0.8v1.2c0,0.1,0.2,0.2,0.3,0.2c0.1,0,0.3-0.1,0.3-0.2v-1.2h0.8v-0.3H-596.3z M-581.6,385.9h-0.7v-0.6
		c0-0.1-0.2-0.2-0.3-0.2c-0.1,0-0.3,0.1-0.3,0.2v0.6h-0.8v-1.1c0-0.1,0-0.2-0.1-0.2c-0.1,0-0.1,0.1-0.1,0.2v1.1h-1.1v0.3h1.1v1.2
		c0,0.1,0,0.2,0.1,0.2c0.1,0,0.1-0.1,0.1-0.2v-1.2h0.8v0.7c0,0.1,0.2,0.2,0.3,0.2c0.1,0,0.3-0.1,0.3-0.2v-0.7h0.7
		c0.1,0,0.2,0,0.2-0.1C-581.4,385.9-581.5,385.9-581.6,385.9z M-588,388.5c-0.8,0-1.4-0.6-1.4-1.4c0-0.7,0.6-1.4,1.4-1.4
		c0.8,0,1.4,0.6,1.4,1.4C-586.6,387.9-587.2,388.5-588,388.5z M-587.7,386.4c-0.1,0-0.2-0.1-0.3-0.1c-0.4,0-0.8,0.3-0.8,0.8
		c0,0.3,0.2,0.6,0.5,0.7c0.1,0,0.2,0.1,0.3,0.1c0.3,0,0.6-0.2,0.7-0.5c0,0,0,0,0,0c0,0,0,0,0-0.1c0,0,0,0,0,0c0,0,0,0,0-0.1
		c0,0,0,0,0,0c0,0,0,0,0,0c0,0,0,0,0,0C-587.2,386.8-587.4,386.5-587.7,386.4z M-587.2,387.1c0-0.3-0.2-0.6-0.5-0.7
		C-587.4,386.5-587.2,386.8-587.2,387.1z M-592.7,389c-1.1,0-1.9-0.8-1.9-1.9c0-1,0.9-1.9,1.9-1.9c1.1,0,1.9,0.8,1.9,1.9
		C-590.8,388.2-591.7,389-592.7,389z M-592.7,385.8c-0.7,0-1.3,0.6-1.3,1.3s0.6,1.3,1.3,1.3c0.7,0,1.3-0.6,1.3-1.3
		S-592,385.8-592.7,385.8z"/>
	<g>
		<g>
			<path fill="#373B44" d="M-589,378.3c-0.4-0.2-0.8-0.2-1.3-0.2c-0.4,0-0.8,0.1-1.3,0.2c-0.4,0.2-0.8,0.4-1.1,0.6
				c0,0-0.1,0.1-0.1,0.1c0,0.1,0.1,0.2,0.4,0.5c0.3,0.3,0.4,0,0.5,0c0,0,0.1,0,0.2-0.1c0.1-0.1,0.3-0.2,0.5-0.3
				c0.2-0.1,0.5-0.1,0.7-0.1c0.2,0,0.5,0,0.7,0.1c0.2,0.1,0.4,0.2,0.5,0.3c0.1,0.1,0.2,0.1,0.2,0.1c0.1,0,0.2,0.3,0.5,0
				s0.4-0.4,0.4-0.5c0,0,0-0.1-0.1-0.1C-588.2,378.6-588.6,378.4-589,378.3z M-588.2,376.4c-0.7-0.3-1.4-0.4-2-0.4
				c-0.7,0-1.4,0.1-2,0.4c-0.7,0.3-1.2,0.6-1.7,1.1c0,0-0.1,0.1-0.1,0.1c0,0.1,0.1,0.2,0.4,0.5c0.3,0.3,0.4,0,0.5,0
				c0,0,0.1,0,0.2-0.1c0.1-0.1,0.2-0.2,0.4-0.3c0.2-0.1,0.4-0.2,0.6-0.3c0.2-0.1,0.5-0.2,0.8-0.3c0.3-0.1,0.6-0.1,0.9-0.1
				c0.5,0,1,0.1,1.4,0.3c0.4,0.2,0.9,0.5,1.4,0.8c0,0,0.1,0,0.1,0c0.1,0,0.2,0.3,0.5,0c0.3-0.3,0.4-0.4,0.4-0.5c0,0,0-0.1-0.1-0.1
				C-587,377-587.5,376.6-588.2,376.4z M-585,376c-0.7-0.7-1.5-1.2-2.4-1.5c-0.9-0.4-1.9-0.5-2.8-0.5c-1,0-1.9,0.2-2.8,0.5
				c-0.9,0.4-1.7,0.9-2.4,1.5c0,0-0.1,0.1-0.1,0.1c0,0.1,0.1,0.2,0.4,0.5c0.3,0.3,0.4,0,0.5,0c0,0,0.1,0,0.1,0c0.6-0.6,1.3-1,2-1.3
				c0.7-0.3,1.4-0.4,2.3-0.4c0.8,0,1.6,0.1,2.3,0.4c0.7,0.3,1.4,0.7,2,1.3c0,0,0.1,0,0.1,0c0.1,0,0.2,0.2,0.5,0
				c0.3-0.3,0.4-0.4,0.4-0.5C-585,376.1-585,376-585,376z"/>
		</g>
	</g>
</g>
<g>
	<circle fill="#1A42C1" cx="-615.1" cy="346.7" r="11.9"/>
</g>
<g>
	<path fill="#FFFFFF" d="M-610.4,343.5l-4.2-4.2h-0.7v5.6l-3.4-3.4l-1,1l4.1,4.1l-4.1,4.1l1,1l3.4-3.4v5.6h0.7l4.2-4.2l-3.2-3.2
		L-610.4,343.5z M-613.8,342.1l1.4,1.4l-1.4,1.4V342.1z M-612.4,349.8l-1.4,1.4v-2.8L-612.4,349.8z M-612.4,349.8"/>
</g>
</svg>
