<svg xmlns="http://www.w3.org/2000/svg" viewBox="0 0 211 299"><defs><style>.a{fill:#d7d7d7;}.b{fill:#ebd13e;}.b,.c,.d,.e,.f{stroke:#515151;stroke-miterlimit:10;}.b,.d,.e,.f{stroke-width:0.25px;}.c{fill:#947f6c;stroke-width:0.5px;}.d{fill:#e5dbb8;}.e{fill:#b3b3b3;}.f{fill:#211d1c;}</style></defs><title>tom_enchufe_amarillo_final</title><path class="a" d="M293,50H106A12,12,0,0,0,94,62V337a12,12,0,0,0,12,12h86v-.5a7.5,7.5,0,0,1,15,0v.5h86a12,12,0,0,0,12-12V62A12,12,0,0,0,293,50Z" transform="translate(-94 -50)"/><rect class="b" x="62.88" y="89.18" width="85.63" height="12.44" rx="6" ry="6"/><rect class="c" x="169.63" y="96.37" width="60.47" height="8.78" rx="3.96" ry="3.96" transform="translate(206.63 -149.1) rotate(90)"/><rect class="b" x="156.69" y="278.97" width="85.63" height="12.44" rx="6" ry="6" transform="translate(-179.69 434.69) rotate(-90)"/><rect class="d" x="45" y="207.74" width="120" height="16.1" rx="6" ry="6"/><rect class="b" x="70.01" y="120.65" width="35.86" height="138.32"/><rect class="b" x="105.87" y="120.65" width="35.13" height="138.32"/><ellipse class="b" cx="105.5" cy="120.89" rx="35.49" ry="3.9"/><path class="b" d="M226.94,125.18H199.78v46.94s27.16,0,27.16-2.93Z" transform="translate(-94 -50)"/><path class="b" d="M172.09,125.18h27.78v46.94s-27.78,0-27.78-2.93Z" transform="translate(-94 -50)"/><ellipse class="b" cx="105.5" cy="75.37" rx="27.44" ry="3.02"/><path class="e" d="M199.87,126.47s22.69,0,22.69-2.2V82.56H176.45v41.72c0,2.2,23.42,2.2,23.42,2.2" transform="translate(-94 -50)"/><path class="f" d="M199.29,77S186,77,186,77.64V90.15H213V77.64c0-.66-13.75-.66-13.75-.66" transform="translate(-94 -50)"/><path class="f" d="M199.13,81.37s-22.69,0-22.69.88V98.93h46.11V82.25c0-.88-23.42-.88-23.42-.88" transform="translate(-94 -50)"/></svg>