<?xml version="1.0" encoding="utf-8"?>
<!-- Generator: Adobe Illustrator 19.1.0, SVG Export Plug-In . SVG Version: 6.00 Build 0)  -->
<svg version="1.1" id="svg" xmlns:xml="http://www.w3.org/XML/1998/namespace"
	 xmlns="http://www.w3.org/2000/svg" xmlns:xlink="http://www.w3.org/1999/xlink" x="0px" y="0px" viewBox="-649.8 376 73.8 84.3"
	 enable-background="new -649.8 376 73.8 84.3" xml:space="preserve">
<path fill-rule="evenodd" clip-rule="evenodd" fill="#D7D7D7" d="M-580,376h-65.9c-2.2,0-4,1.8-4,4v76.2c0,2.2,1.8,4,4,4h11
	c0-1.9,1.6-3.5,3.5-3.5c1.9,0,3.5,1.6,3.5,3.5h11.3c0-1.9,1.6-3.5,3.5-3.5s3.5,1.6,3.5,3.5h11.7c0-1.9,1.6-3.5,3.5-3.5
	c1.9,0,3.5,1.6,3.5,3.5h10.9c2.2,0,4-1.8,4-4V380C-576,377.8-577.8,376-580,376z"/>
<g id="icon">
	<g>
		<g>
			<polygon fill="#A0A0A0" points="-618.2,389.7 -620,391.7 -606.3,391.7 -608.3,389.7 			"/>
			<rect x="-606.5" y="391.7" fill="#BFBFBF" width="0.2" height="15.2"/>
			<rect x="-607.2" y="391.7" fill="#C4C4C4" width="0.3" height="15.2"/>
			<polygon fill="#7F7F7F" points="-606.9,406.9 -606.5,406.9 -606.5,391.7 -607.9,390.2 -606.9,391.7 			"/>
			<polygon fill="#919191" points="-608.6,390.2 -607.9,391.7 -607.9,406.9 -607.2,406.9 -607.2,391.7 			"/>
			<rect x="-608.3" y="391.7" fill="#B5B5B5" width="0.5" height="15.2"/>
			<rect x="-609.8" y="391.7" fill="#CECECE" width="0.6" height="15.2"/>
			<polygon fill="#9B9B9B" points="-609.6,390.2 -609.2,391.7 -609.2,406.9 -608.3,406.9 -608.3,391.7 			"/>
			<polygon fill="#B5B5B5" points="-610.8,390.2 -610.8,391.7 -610.8,406.9 -609.8,406.9 -609.8,391.7 			"/>
			<rect x="-611.4" y="391.7" fill="#DDDDDD" width="0.7" height="15.2"/>
			<rect x="-613.3" y="391.7" fill="#F2F2F2" width="0.7" height="15.2"/>
			<polygon fill="#EAEAEA" points="-612.2,390.2 -612.6,391.7 -612.6,406.9 -611.4,406.9 -611.4,391.7 			"/>
			<polygon fill="#EAEAEA" points="-613.7,390.2 -614.5,391.7 -614.5,406.9 -613.3,406.9 -613.3,391.7 			"/>
			<rect x="-615.1" y="391.7" fill="#DDDDDD" width="0.7" height="15.2"/>
			<rect x="-616.7" y="391.7" fill="#CECECE" width="0.6" height="15.2"/>
			<polygon fill="#B5B5B5" points="-615.1,390.2 -616.2,391.7 -616.2,406.9 -615.1,406.9 -615.1,391.7 			"/>
			<polygon fill="#A5A5A5" points="-616.4,390.2 -617.6,391.7 -617.6,406.9 -616.7,406.9 -616.7,391.7 			"/>
			<rect x="-618.1" y="391.7" fill="#B5B5B5" width="0.5" height="15.2"/>
			<rect x="-619.2" y="391.7" fill="#B5B5B5" width="0.3" height="15.2"/>
			<polygon fill="#919191" points="-617.4,390.2 -618.8,391.7 -618.8,406.9 -618.1,406.9 -618.1,391.7 			"/>
			<polygon fill="#7F7F7F" points="-618.2,390.2 -619.6,391.7 -619.6,406.9 -619.2,406.9 -619.2,391.7 			"/>
			<rect x="-619.8" y="391.7" fill="#B5B5B5" width="0.2" height="15.2"/>
			<rect x="-620" y="391.7" fill="#7F7F7F" width="0.2" height="15.2"/>
		</g>
		<linearGradient id="SVGID_1_" gradientUnits="userSpaceOnUse" x1="-620.0076" y1="408.3608" x2="-606.2925" y2="408.3608">
			<stop  offset="0" style="stop-color:#878787"/>
			<stop  offset="0.5" style="stop-color:#FFFFFF"/>
			<stop  offset="1" style="stop-color:#878787"/>
		</linearGradient>
		<rect x="-620" y="406.9" fill="url(#SVGID_1_)" width="13.7" height="2.9"/>
		<linearGradient id="SVGID_2_" gradientUnits="userSpaceOnUse" x1="-617.791" y1="411.2602" x2="-608.5091" y2="411.2602">
			<stop  offset="0" style="stop-color:#878787"/>
			<stop  offset="0.5" style="stop-color:#FFFFFF"/>
			<stop  offset="1" style="stop-color:#878787"/>
		</linearGradient>
		<rect x="-617.8" y="409.8" fill="url(#SVGID_2_)" width="9.3" height="2.9"/>
		<linearGradient id="SVGID_3_" gradientUnits="userSpaceOnUse" x1="-614.7891" y1="413.0723" x2="-611.511" y2="413.0723">
			<stop  offset="0" style="stop-color:#B5B5B5"/>
			<stop  offset="0.5" style="stop-color:#FFFFFF"/>
			<stop  offset="1" style="stop-color:#B5B5B5"/>
		</linearGradient>
		<rect x="-614.8" y="412.7" fill="url(#SVGID_3_)" width="3.3" height="0.7"/>
		<linearGradient id="SVGID_4_" gradientUnits="userSpaceOnUse" x1="-621.3875" y1="419.006" x2="-604.7878" y2="419.006">
			<stop  offset="0" style="stop-color:#878787"/>
			<stop  offset="0.5" style="stop-color:#FFFFFF"/>
			<stop  offset="1" style="stop-color:#878787"/>
		</linearGradient>
		<rect x="-621.4" y="413.4" fill="url(#SVGID_4_)" width="16.6" height="11.1"/>
		<rect x="-613.8" y="389.7" fill="#D7D7D7" width="1.6" height="8.9"/>
		<rect x="-628" y="425.3" fill="#289E57" width="29.6" height="4.3"/>
		<rect x="-628" y="429.6" fill="#2E52A3" width="29.6" height="3.7"/>
	</g>
	<rect x="-628" y="424.6" fill="#FFFFFF" width="29.6" height="0.7"/>
	<rect x="-606.6" y="429.6" fill="#BFBFBF" width="3.7" height="7.4"/>
	<rect x="-615" y="429.6" fill="#BFBFBF" width="3.7" height="7.4"/>
	<rect x="-623.3" y="429.6" fill="#BFBFBF" width="3.7" height="7.4"/>
</g>
<g>
	<path fill="#5D6069" d="M-631.8,449.8l-0.6,0.7v1.7h-1.2v-6h1.2v2.7l0.5-0.8l1.5-2h1.5l-2.1,2.7l2.2,3.4h-1.5L-631.8,449.8z"/>
</g>
<g>
	<path fill="#5D6069" d="M-614.5,450.7c0-0.2-0.1-0.4-0.2-0.5s-0.5-0.3-0.9-0.4s-0.8-0.3-1-0.4c-0.7-0.4-1-0.9-1-1.5
		c0-0.3,0.1-0.6,0.3-0.9c0.2-0.3,0.4-0.5,0.8-0.6s0.7-0.2,1.2-0.2c0.4,0,0.8,0.1,1.2,0.2c0.3,0.2,0.6,0.4,0.8,0.7
		c0.2,0.3,0.3,0.6,0.3,1h-1.2c0-0.3-0.1-0.5-0.3-0.6c-0.2-0.2-0.4-0.2-0.7-0.2c-0.3,0-0.5,0.1-0.7,0.2c-0.2,0.1-0.3,0.3-0.3,0.5
		c0,0.2,0.1,0.4,0.3,0.5c0.2,0.1,0.5,0.3,0.9,0.4c0.7,0.2,1.2,0.5,1.5,0.8c0.3,0.3,0.5,0.7,0.5,1.2c0,0.5-0.2,0.9-0.6,1.2
		c-0.4,0.3-0.9,0.4-1.6,0.4c-0.5,0-0.9-0.1-1.3-0.3c-0.4-0.2-0.7-0.4-0.9-0.7c-0.2-0.3-0.3-0.6-0.3-1h1.2c0,0.7,0.4,1,1.2,1
		c0.3,0,0.5-0.1,0.7-0.2S-614.5,450.9-614.5,450.7z"/>
	<path fill="#5D6069" d="M-609,451h-2.2l-0.4,1.2h-1.3l2.2-6h1.2l2.3,6h-1.3L-609,451z M-610.8,450h1.5l-0.8-2.3L-610.8,450z"/>
</g>
<g>
	<path fill="#5D6069" d="M-595.4,450.7c0-0.2-0.1-0.4-0.2-0.5s-0.5-0.3-0.9-0.4s-0.8-0.3-1-0.4c-0.7-0.4-1-0.9-1-1.5
		c0-0.3,0.1-0.6,0.3-0.9c0.2-0.3,0.4-0.5,0.8-0.6s0.7-0.2,1.2-0.2c0.4,0,0.8,0.1,1.2,0.2c0.3,0.2,0.6,0.4,0.8,0.7
		c0.2,0.3,0.3,0.6,0.3,1h-1.2c0-0.3-0.1-0.5-0.3-0.6c-0.2-0.2-0.4-0.2-0.7-0.2c-0.3,0-0.5,0.1-0.7,0.2c-0.2,0.1-0.3,0.3-0.3,0.5
		c0,0.2,0.1,0.4,0.3,0.5c0.2,0.1,0.5,0.3,0.9,0.4c0.7,0.2,1.2,0.5,1.5,0.8c0.3,0.3,0.5,0.7,0.5,1.2c0,0.5-0.2,0.9-0.6,1.2
		c-0.4,0.3-0.9,0.4-1.6,0.4c-0.5,0-0.9-0.1-1.3-0.3c-0.4-0.2-0.7-0.4-0.9-0.7c-0.2-0.3-0.3-0.6-0.3-1h1.2c0,0.7,0.4,1,1.2,1
		c0.3,0,0.5-0.1,0.7-0.2S-595.4,450.9-595.4,450.7z"/>
	<path fill="#5D6069" d="M-593.3,452.3v-6h2.1c0.7,0,1.3,0.1,1.7,0.4c0.4,0.3,0.6,0.7,0.6,1.2c0,0.3-0.1,0.6-0.2,0.8
		s-0.4,0.4-0.6,0.5c0.3,0.1,0.6,0.2,0.7,0.5s0.3,0.5,0.3,0.9c0,0.6-0.2,1-0.6,1.3c-0.4,0.3-0.9,0.5-1.6,0.5H-593.3z M-592.1,448.7
		h0.9c0.6,0,0.9-0.3,0.9-0.8c0-0.3-0.1-0.5-0.2-0.6c-0.2-0.1-0.4-0.2-0.8-0.2h-0.9V448.7z M-592.1,449.6v1.6h1.1
		c0.3,0,0.5-0.1,0.7-0.2c0.2-0.1,0.2-0.3,0.2-0.6c0-0.6-0.3-0.8-0.9-0.8H-592.1z"/>
</g>
</svg>
