<?xml version="1.0" encoding="utf-8"?>
<!-- Generator: Adobe Illustrator 19.1.0, SVG Export Plug-In . SVG Version: 6.00 Build 0)  -->
<svg version="1.1" id="svg" xmlns="http://www.w3.org/2000/svg" xmlns:xlink="http://www.w3.org/1999/xlink" x="0px" y="0px"
	 viewBox="-606.2 352.2 107.2 113.3" enable-background="new -606.2 352.2 107.2 113.3" xml:space="preserve">
<path fill-rule="evenodd" clip-rule="evenodd" fill="#D7D7D7" d="M-502.9,465.5h-99.2c-2.2,0-4-1.8-4-4V356.2c0-2.2,1.8-4,4-4h27.7
	c0,1.9,1.6,3.5,3.5,3.5c1.9,0,3.5-1.6,3.5-3.5h29.6c0,1.9,1.6,3.5,3.5,3.5c1.9,0,3.5-1.6,3.5-3.5h27.9c2.2,0,4,1.8,4,4v105.3
	C-498.9,463.7-500.7,465.5-502.9,465.5z"/>
<path fill-rule="evenodd" clip-rule="evenodd" fill="#FFFFFF" d="M-546.3,403.2h-0.4c-0.4,0-0.8-0.4-0.8-0.8v-4.2
	c0-0.4,0.4-0.8,0.8-0.8h0.4c0.4,0,0.8,0.4,0.8,0.8v4.2C-545.5,402.8-545.9,403.2-546.3,403.2z"/>
<path fill-rule="evenodd" clip-rule="evenodd" fill="#FFFFFF" d="M-540.1,403.2h-0.4c-0.4,0-0.8-0.4-0.8-0.8v-4.2
	c0-0.4,0.4-0.8,0.8-0.8h0.4c0.4,0,0.8,0.4,0.8,0.8v4.2C-539.3,402.8-539.6,403.2-540.1,403.2z"/>
<linearGradient id="SVGID_1_" gradientUnits="userSpaceOnUse" x1="-543.6115" y1="402.1412" x2="-543.6115" y2="408.5091">
	<stop  offset="0" style="stop-color:#383838"/>
	<stop  offset="0.9929" style="stop-color:#1C1C1C"/>
</linearGradient>
<rect x="-550.3" y="402.1" fill-rule="evenodd" clip-rule="evenodd" fill="url(#SVGID_1_)" width="13.4" height="6.4"/>
<path fill-rule="evenodd" clip-rule="evenodd" fill="#FFFFFF" d="M-566.9,424.3v-0.4c0-0.4-0.4-0.8-0.8-0.8h-4.2
	c-0.4,0-0.8,0.4-0.8,0.8v0.4c0,0.4,0.4,0.8,0.8,0.8h4.2C-567.2,425.1-566.9,424.7-566.9,424.3z"/>
<path fill-rule="evenodd" clip-rule="evenodd" fill="#FFFFFF" d="M-566.9,432.2v-0.4c0-0.4-0.4-0.8-0.8-0.8h-4.2
	c-0.4,0-0.8,0.4-0.8,0.8v0.4c0,0.4,0.4,0.8,0.8,0.8h4.2C-567.2,433-566.9,432.7-566.9,432.2z"/>
<path fill-rule="evenodd" clip-rule="evenodd" fill="#FFFFFF" d="M-557.1,424.3v-0.4c0-0.4-0.4-0.8-0.8-0.8h-4.2
	c-0.4,0-0.8,0.4-0.8,0.8v0.4c0,0.4,0.4,0.8,0.8,0.8h4.2C-557.5,425.1-557.1,424.7-557.1,424.3z"/>
<path fill-rule="evenodd" clip-rule="evenodd" fill="#FFFFFF" d="M-557.1,428.2v-0.4c0-0.4-0.4-0.8-0.8-0.8h-4.2
	c-0.4,0-0.8,0.4-0.8,0.8v0.4c0,0.4,0.4,0.8,0.8,0.8h4.2C-557.5,429-557.1,428.6-557.1,428.2z"/>
<path fill-rule="evenodd" clip-rule="evenodd" fill="#FFFFFF" d="M-557.1,432.2v-0.4c0-0.4-0.4-0.8-0.8-0.8h-4.2
	c-0.4,0-0.8,0.4-0.8,0.8v0.4c0,0.4,0.4,0.8,0.8,0.8h4.2C-557.5,433-557.1,432.7-557.1,432.2z"/>
<linearGradient id="SVGID_2_" gradientUnits="userSpaceOnUse" x1="-557.4185" y1="414.5897" x2="-557.4185" y2="420.9576" gradientTransform="matrix(-8.979300e-11 1 1 8.979300e-11 -982.4991 985.3683)">
	<stop  offset="0" style="stop-color:#383838"/>
	<stop  offset="0.9929" style="stop-color:#1C1C1C"/>
</linearGradient>
<rect x="-567.9" y="421.2" fill-rule="evenodd" clip-rule="evenodd" fill="url(#SVGID_2_)" width="6.4" height="13.4"/>
<linearGradient id="SVGID_3_" gradientUnits="userSpaceOnUse" x1="-566.712" y1="378.3387" x2="-566.712" y2="388.311">
	<stop  offset="0" style="stop-color:#383838"/>
	<stop  offset="0.9929" style="stop-color:#1C1C1C"/>
</linearGradient>
<rect x="-571.9" y="378.3" fill-rule="evenodd" clip-rule="evenodd" fill="url(#SVGID_3_)" width="10.3" height="10"/>
<path fill="#FFFFFF" d="M-583.1,432.7L-583.1,432.7c-0.9,0-1.7-0.8-1.7-1.7v-6c0-0.9,0.8-1.7,1.7-1.7l0,0c0.9,0,1.7,0.8,1.7,1.7v6
	C-581.4,431.9-582.2,432.7-583.1,432.7z"/>
<linearGradient id="SVGID_4_" gradientUnits="userSpaceOnUse" x1="-584.8229" y1="427.9499" x2="-581.3854" y2="427.9499">
	<stop  offset="0" style="stop-color:#C59600"/>
	<stop  offset="0.9968" style="stop-color:#BF8500"/>
</linearGradient>
<rect x="-584.8" y="424.9" fill="url(#SVGID_4_)" width="3.4" height="6"/>
<path fill="#FFFFFF" d="M-547,432.7L-547,432.7c-0.9,0-1.7-0.8-1.7-1.7v-6c0-0.9,0.8-1.7,1.7-1.7l0,0c0.9,0,1.7,0.8,1.7,1.7v6
	C-545.3,431.9-546.1,432.7-547,432.7z"/>
<linearGradient id="SVGID_5_" gradientUnits="userSpaceOnUse" x1="-548.7537" y1="427.9499" x2="-545.3162" y2="427.9499">
	<stop  offset="0" style="stop-color:#C59600"/>
	<stop  offset="0.9968" style="stop-color:#BF8500"/>
</linearGradient>
<rect x="-548.8" y="424.9" fill="url(#SVGID_5_)" width="3.4" height="6"/>
<path fill="#FFFFFF" d="M-541.5,432.7L-541.5,432.7c-0.9,0-1.7-0.8-1.7-1.7v-6c0-0.9,0.8-1.7,1.7-1.7l0,0c0.9,0,1.7,0.8,1.7,1.7v6
	C-539.8,431.9-540.6,432.7-541.5,432.7z"/>
<linearGradient id="SVGID_6_" gradientUnits="userSpaceOnUse" x1="-543.2537" y1="427.9499" x2="-539.8162" y2="427.9499">
	<stop  offset="0" style="stop-color:#C59600"/>
	<stop  offset="0.9968" style="stop-color:#BF8500"/>
</linearGradient>
<rect x="-543.3" y="424.9" fill="url(#SVGID_6_)" width="3.4" height="6"/>
<path fill="#FFFFFF" d="M-580.4,407L-580.4,407c0-0.9,0.8-1.7,1.7-1.7h6c0.9,0,1.7,0.8,1.7,1.7l0,0c0,0.9-0.8,1.7-1.7,1.7h-6
	C-579.6,408.8-580.4,408-580.4,407z"/>
<linearGradient id="SVGID_7_" gradientUnits="userSpaceOnUse" x1="-577.1579" y1="416.8164" x2="-573.7204" y2="416.8164" gradientTransform="matrix(4.489700e-11 1 -1 4.489700e-11 -158.8503 982.483)">
	<stop  offset="0" style="stop-color:#383838"/>
	<stop  offset="0.9929" style="stop-color:#1C1C1C"/>
</linearGradient>
<rect x="-578.7" y="405.3" fill="url(#SVGID_7_)" width="6" height="3.4"/>
<path fill="#FFFFFF" d="M-580.4,400.3L-580.4,400.3c0-0.9,0.8-1.7,1.7-1.7h6c0.9,0,1.7,0.8,1.7,1.7v0c0,0.9-0.8,1.7-1.7,1.7h-6
	C-579.6,402-580.4,401.2-580.4,400.3z"/>
<linearGradient id="SVGID_8_" gradientUnits="userSpaceOnUse" x1="-583.9186" y1="416.8164" x2="-580.4811" y2="416.8164" gradientTransform="matrix(4.489700e-11 1 -1 4.489700e-11 -158.8503 982.483)">
	<stop  offset="0" style="stop-color:#383838"/>
	<stop  offset="0.9929" style="stop-color:#1C1C1C"/>
</linearGradient>
<rect x="-578.7" y="398.6" fill="url(#SVGID_8_)" width="6" height="3.4"/>
<path fill="#FFFFFF" d="M-575.4,444.9L-575.4,444.9c0-0.9,0.8-1.7,1.7-1.7h6c0.9,0,1.7,0.8,1.7,1.7l0,0c0,0.9-0.8,1.7-1.7,1.7h-6
	C-574.7,446.7-575.4,445.9-575.4,444.9z"/>
<linearGradient id="SVGID_9_" gradientUnits="userSpaceOnUse" x1="-539.252" y1="411.8617" x2="-535.8145" y2="411.8617" gradientTransform="matrix(4.489700e-11 1 -1 4.489700e-11 -158.8503 982.483)">
	<stop  offset="0" style="stop-color:#383838"/>
	<stop  offset="0.9929" style="stop-color:#1C1C1C"/>
</linearGradient>
<rect x="-573.7" y="443.2" fill="url(#SVGID_9_)" width="6" height="3.4"/>
<path fill="#FFFFFF" d="M-554.2,444.9L-554.2,444.9c0-0.9,0.8-1.7,1.7-1.7h6c0.9,0,1.7,0.8,1.7,1.7l0,0c0,0.9-0.8,1.7-1.7,1.7h-6
	C-553.4,446.7-554.2,445.9-554.2,444.9z"/>
<linearGradient id="SVGID_10_" gradientUnits="userSpaceOnUse" x1="-539.252" y1="390.642" x2="-535.8145" y2="390.642" gradientTransform="matrix(4.489700e-11 1 -1 4.489700e-11 -158.8503 982.483)">
	<stop  offset="0" style="stop-color:#383838"/>
	<stop  offset="0.9929" style="stop-color:#1C1C1C"/>
</linearGradient>
<rect x="-552.5" y="443.2" fill="url(#SVGID_10_)" width="6" height="3.4"/>
<linearGradient id="SVGID_11_" gradientUnits="userSpaceOnUse" x1="-568.2754" y1="382.2946" x2="-568.2754" y2="387.311">
	<stop  offset="0" style="stop-color:#E8E8E8"/>
	<stop  offset="0.9929" style="stop-color:#C9C9C9"/>
</linearGradient>
<rect x="-570.9" y="382.3" fill-rule="evenodd" clip-rule="evenodd" fill="url(#SVGID_11_)" width="5.2" height="5"/>
<linearGradient id="SVGID_12_" gradientUnits="userSpaceOnUse" x1="-537.8349" y1="388.3243" x2="-544.7974" y2="376.265">
	<stop  offset="0" style="stop-color:#6A5300"/>
	<stop  offset="0.9968" style="stop-color:#947000"/>
</linearGradient>
<circle fill-rule="evenodd" clip-rule="evenodd" fill="url(#SVGID_12_)" cx="-541.3" cy="382.3" r="7"/>
<linearGradient id="SVGID_13_" gradientUnits="userSpaceOnUse" x1="-540.1816" y1="384.2597" x2="-542.4507" y2="380.3296">
	<stop  offset="0" style="stop-color:#E8E8E8"/>
	<stop  offset="0.9929" style="stop-color:#C9C9C9"/>
</linearGradient>
<circle fill-rule="evenodd" clip-rule="evenodd" fill="url(#SVGID_13_)" cx="-541.3" cy="382.3" r="2.3"/>
<g>
	<g>
		<path fill="#A3A3A3" d="M-518.5,456c-3.9,0-7.1-3.2-7.1-7.1c0-2.6,1.4-4.9,3.6-6.2v-12.3c0-1.9,1.5-3.4,3.4-3.4
			c1.9,0,3.4,1.5,3.4,3.4v12.2c2.2,1.2,3.7,3.6,3.7,6.2C-511.4,452.8-514.6,456-518.5,456z M-518.6,428.3c-1.2,0-2.2,1-2.2,2.2v12.6
			c0,0.2-0.1,0.4-0.3,0.6c-2,1-3.3,3-3.3,5.3c0,3.2,2.6,5.9,5.9,5.9s5.9-2.6,5.9-5.9c0-2.2-1.3-4.3-3.3-5.3
			c-0.2-0.1-0.3-0.3-0.3-0.6v-12.6C-516.4,429.3-517.4,428.3-518.6,428.3z"/>
	</g>
	<g>
		<path fill="#A3A3A3" d="M-517.7,444.6v-6.9c0-0.5-0.4-0.9-0.9-0.9c-0.5,0-0.9,0.4-0.9,0.9v6.9c-2,0.4-3.5,2.2-3.5,4.3
			c0,2.4,2,4.4,4.4,4.4c2.4,0,4.4-2,4.4-4.4C-514.1,446.8-515.6,445-517.7,444.6z"/>
	</g>
	<g>
		<path fill="#A3A3A3" d="M-509.2,431.2h-3.2c-0.6,0-1.1-0.5-1.1-1.1l0,0c0-0.6,0.5-1.1,1.1-1.1h3.2c0.6,0,1.1,0.5,1.1,1.1l0,0
			C-508.2,430.7-508.7,431.2-509.2,431.2z"/>
	</g>
	<g>
		<path fill="#A3A3A3" d="M-509.2,434.6h-3.2c-0.6,0-1.1-0.5-1.1-1.1l0,0c0-0.6,0.5-1.1,1.1-1.1h3.2c0.6,0,1.1,0.5,1.1,1.1l0,0
			C-508.2,434.1-508.7,434.6-509.2,434.6z"/>
	</g>
	<g>
		<path fill="#A3A3A3" d="M-509.2,438.1h-3.2c-0.6,0-1.1-0.5-1.1-1.1l0,0c0-0.6,0.5-1.1,1.1-1.1h3.2c0.6,0,1.1,0.5,1.1,1.1l0,0
			C-508.2,437.6-508.7,438.1-509.2,438.1z"/>
	</g>
	<g>
		<path fill="#A3A3A3" d="M-510.2,441.9h-2.3c-0.6,0-1.1-0.5-1.1-1.1l0,0c0-0.6,0.5-1.1,1.1-1.1h2.3c0.6,0,1.1,0.5,1.1,1.1l0,0
			C-509.2,441.5-509.6,441.9-510.2,441.9z"/>
	</g>
</g>
<g>
	<path fill="#5D6069" d="M-575.3,365.3c0-0.2-0.1-0.4-0.2-0.5s-0.5-0.3-0.9-0.4s-0.8-0.3-1-0.4c-0.7-0.4-1-0.9-1-1.5
		c0-0.3,0.1-0.6,0.3-0.9c0.2-0.3,0.4-0.5,0.8-0.6s0.7-0.2,1.2-0.2c0.4,0,0.8,0.1,1.2,0.2c0.3,0.2,0.6,0.4,0.8,0.7
		c0.2,0.3,0.3,0.6,0.3,1h-1.2c0-0.3-0.1-0.5-0.3-0.6c-0.2-0.2-0.4-0.2-0.7-0.2c-0.3,0-0.5,0.1-0.7,0.2c-0.2,0.1-0.3,0.3-0.3,0.5
		c0,0.2,0.1,0.4,0.3,0.5c0.2,0.1,0.5,0.3,0.9,0.4c0.7,0.2,1.2,0.5,1.5,0.8c0.3,0.3,0.5,0.7,0.5,1.2c0,0.5-0.2,0.9-0.6,1.2
		c-0.4,0.3-0.9,0.4-1.6,0.4c-0.5,0-0.9-0.1-1.3-0.3c-0.4-0.2-0.7-0.4-0.9-0.7c-0.2-0.3-0.3-0.6-0.3-1h1.2c0,0.7,0.4,1,1.2,1
		c0.3,0,0.5-0.1,0.7-0.2S-575.3,365.5-575.3,365.3z"/>
	<path fill="#5D6069" d="M-573.2,366.9v-6h1.9c0.5,0,1,0.1,1.4,0.4c0.4,0.2,0.7,0.6,1,1c0.2,0.4,0.4,0.9,0.4,1.5v0.3
		c0,0.6-0.1,1.1-0.3,1.5c-0.2,0.4-0.6,0.8-1,1s-0.9,0.4-1.4,0.4H-573.2z M-572,361.8v4h0.6c0.5,0,0.9-0.2,1.1-0.5s0.4-0.8,0.4-1.4
		v-0.3c0-0.6-0.1-1.1-0.4-1.4c-0.3-0.3-0.6-0.5-1.1-0.5H-572z"/>
	<path fill="#5D6069" d="M-564.4,365.6h-2.2l-0.4,1.2h-1.3l2.2-6h1.2l2.3,6h-1.3L-564.4,365.6z M-566.2,364.6h1.5l-0.8-2.3
		L-566.2,364.6z"/>
</g>
<g>
	<path fill="#5D6069" d="M-537.4,365.3c0-0.2-0.1-0.4-0.2-0.5s-0.5-0.3-0.9-0.4s-0.8-0.3-1-0.4c-0.7-0.4-1-0.9-1-1.5
		c0-0.3,0.1-0.6,0.3-0.9c0.2-0.3,0.4-0.5,0.8-0.6s0.7-0.2,1.2-0.2c0.4,0,0.8,0.1,1.2,0.2c0.3,0.2,0.6,0.4,0.8,0.7
		c0.2,0.3,0.3,0.6,0.3,1h-1.2c0-0.3-0.1-0.5-0.3-0.6c-0.2-0.2-0.4-0.2-0.7-0.2c-0.3,0-0.5,0.1-0.7,0.2c-0.2,0.1-0.3,0.3-0.3,0.5
		c0,0.2,0.1,0.4,0.3,0.5c0.2,0.1,0.5,0.3,0.9,0.4c0.7,0.2,1.2,0.5,1.5,0.8c0.3,0.3,0.5,0.7,0.5,1.2c0,0.5-0.2,0.9-0.6,1.2
		c-0.4,0.3-0.9,0.4-1.6,0.4c-0.5,0-0.9-0.1-1.3-0.3c-0.4-0.2-0.7-0.4-0.9-0.7c-0.2-0.3-0.3-0.6-0.3-1h1.2c0,0.7,0.4,1,1.2,1
		c0.3,0,0.5-0.1,0.7-0.2S-537.4,365.5-537.4,365.3z"/>
	<path fill="#5D6069" d="M-530.5,364.9c0,0.7-0.3,1.2-0.7,1.5c-0.4,0.4-1,0.6-1.7,0.6c-0.8,0-1.4-0.3-1.8-0.8
		c-0.4-0.5-0.7-1.2-0.7-2.1v-0.4c0-0.6,0.1-1.1,0.3-1.5c0.2-0.4,0.5-0.8,0.9-1c0.4-0.2,0.8-0.4,1.3-0.4c0.7,0,1.3,0.2,1.7,0.6
		c0.4,0.4,0.7,0.9,0.7,1.6h-1.2c0-0.4-0.1-0.7-0.3-0.8s-0.5-0.3-0.9-0.3c-0.4,0-0.7,0.1-0.9,0.4c-0.2,0.3-0.3,0.8-0.3,1.4v0.5
		c0,0.7,0.1,1.1,0.3,1.4c0.2,0.3,0.5,0.5,0.9,0.5c0.4,0,0.7-0.1,0.9-0.3s0.3-0.4,0.3-0.8H-530.5z"/>
	<path fill="#5D6069" d="M-528.5,365.9h2.6v1h-3.9v-6h1.2V365.9z"/>
</g>
</svg>
