<?xml version="1.0" encoding="utf-8"?>
<!-- Generator: Adobe Illustrator 18.1.1, SVG Export Plug-In . SVG Version: 6.00 Build 0)  -->
<svg version="1.1"
	 id="Ebene_1" xmlns:cc="http://creativecommons.org/ns#" xmlns:rdf="http://www.w3.org/1999/02/22-rdf-syntax-ns#" xmlns:svg="http://www.w3.org/2000/svg" xmlns:dc="http://purl.org/dc/elements/1.1/"
	 xmlns="http://www.w3.org/2000/svg" xmlns:xlink="http://www.w3.org/1999/xlink" x="0px" y="0px" viewBox="-576.6 385.9 92.6 79.7"
	 enable-background="new -576.6 385.9 92.6 79.7" xml:space="preserve">
<path fill-rule="evenodd" clip-rule="evenodd" fill="#D7D7D7" d="M-488.1,385.9h-84.6c-2.2,0-4,1.8-4,4v71.7c0,2.2,1.8,4,4,4h38.8
	c0-1.9,1.6-3.5,3.5-3.5c1.9,0,3.5,1.6,3.5,3.5h38.8c2.2,0,4-1.8,4-4v-71.7C-484.1,387.7-485.8,385.9-488.1,385.9z"/>
<g id="breadboard" transform="translate(-0.555968,45.0334)">
	<rect x="-560.5" y="384.2" fill="#333333" width="61.3" height="20.8"/>
	<polygon fill="#565656" points="-499.2,384.2 -560.5,384.2 -555.9,378.7 -503.5,378.7 	"/>
	<rect x="-531.8" y="361.6" fill="#333333" width="4.2" height="25.8"/>
	<polygon fill="#565656" points="-528.3,356.2 -531.3,356.2 -531.8,361.6 -527.6,361.6 	"/>
	<path fill="#3139C9" d="M-533.3,380.7c0,0-3.4,1.9-10.1,1.9s-10.1-1.9-10.1-1.9v-12.6c0,0,0.4-9.2,10.1-9.2
		c9.7,0,10.1,9.2,10.1,9.2V380.7z"/>
	<ellipse fill="#4756E2" cx="-543.6" cy="362.1" rx="4.4" ry="1.8"/>
	<path fill="#414144" d="M-505.3,380.7c0,0-3.4,1.9-10.1,1.9s-10.1-1.9-10.1-1.9v-12.6c0,0,0.4-9.2,10.1-9.2
		c9.7,0,10.1,9.2,10.1,9.2V380.7z"/>
	<ellipse fill="#606060" cx="-515.5" cy="362.1" rx="4.4" ry="1.8"/>
</g>
</svg>
