<?xml version="1.0" encoding="utf-8"?>
<!-- Generator: Adobe Illustrator 19.1.0, SVG Export Plug-In . SVG Version: 6.00 Build 0)  -->
<svg version="1.1"
	 id="Ebene_1" xmlns:rdf="http://www.w3.org/1999/02/22-rdf-syntax-ns#" xmlns:dc="http://purl.org/dc/elements/1.1/" xmlns:svg="http://www.w3.org/2000/svg" xmlns:cc="http://creativecommons.org/ns#"
	 xmlns="http://www.w3.org/2000/svg" xmlns:xlink="http://www.w3.org/1999/xlink" x="0px" y="0px" viewBox="-582.3 370.2 96.5 88.1"
	 enable-background="new -582.3 370.2 96.5 88.1" xml:space="preserve">
<path fill-rule="evenodd" clip-rule="evenodd" fill="#D7D7D7" d="M-489.8,370.2h-88.5c-2.2,0-4,1.8-4,4v80.1c0,2.2,1.8,4,4,4h24.6
	c0-1.9,1.6-3.5,3.5-3.5s3.5,1.6,3.5,3.5h25.1c0-1.9,1.6-3.5,3.5-3.5s3.5,1.6,3.5,3.5h24.7c2.2,0,4-1.8,4-4v-80.1
	C-485.8,372-487.5,370.2-489.8,370.2z"/>
<g id="breadboard" transform="translate(-0.555968,45.0334)">
	<rect x="-565.7" y="370.6" fill="#333333" width="24.5" height="16.9"/>
	<polygon fill="#262626" points="-538.6,369.1 -541.2,387.5 -541.2,370.6 -538.6,352.2 	"/>
	<polygon fill="#565656" points="-541.2,370.6 -565.7,370.6 -560.8,352.2 -538.6,352.2 	"/>
	<path fill="#414144" d="M-542.1,359.8c0,0-3,1.6-8.8,1.6s-8.8-1.6-8.8-1.6v-10.9c0,0,0.4-7.9,8.8-7.9s8.8,7.9,8.8,7.9V359.8z"/>
	<ellipse fill="#606060" cx="-550.9" cy="343.7" rx="3.8" ry="1.6"/>
	<rect x="-563.2" y="347.1" fill="#333333" width="23.3" height="13.6"/>
	<polygon points="-539.6,345.9 -539.9,347.2 -539.9,360.8 -539.6,359.5 	"/>
	<polygon fill="#565656" points="-539.6,345.9 -562.7,345.9 -563.2,347.2 -539.9,347.2 	"/>
	<path fill="#3139C9" d="M-542.8,367.4c0,0-3.3,1.8-9.7,1.8s-9.7-1.8-9.7-1.8v-12.1c0,0,0.4-8.8,9.7-8.8s9.7,8.8,9.7,8.8V367.4z"/>
	<ellipse fill="#4756E2" cx="-552.5" cy="350" rx="3.9" ry="1.6"/>
</g>
<g id="breadboard_1_" transform="translate(-0.555968,45.0334)">
	<rect x="-525.4" y="370.6" fill="#333333" width="24.5" height="16.9"/>
	<polygon fill="#262626" points="-528,369.1 -525.4,387.5 -525.4,370.6 -528,352.2 	"/>
	<polygon fill="#565656" points="-525.4,370.6 -500.9,370.6 -505.8,352.2 -528,352.2 	"/>
	<path fill="#414144" d="M-524.6,359.8c0,0,3,1.6,8.8,1.6s8.8-1.6,8.8-1.6v-10.9c0,0-0.4-7.9-8.8-7.9c-8.4,0-8.8,7.9-8.8,7.9V359.8z
		"/>
	<ellipse fill="#606060" cx="-515.7" cy="343.7" rx="3.8" ry="1.6"/>
	<rect x="-526.8" y="347.1" fill="#333333" width="23.3" height="13.6"/>
	<polygon points="-527,345.9 -526.7,347.2 -526.8,360.8 -527,359.5 	"/>
	<polygon fill="#565656" points="-527,345.9 -503.9,345.9 -503.5,347.2 -526.7,347.2 	"/>
	<path fill="#3139C9" d="M-523.8,367.4c0,0,3.3,1.8,9.7,1.8c6.4,0,9.7-1.8,9.7-1.8v-12.1c0,0-0.4-8.8-9.7-8.8
		c-9.3,0-9.7,8.8-9.7,8.8V367.4z"/>
	<ellipse fill="#4756E2" cx="-514.1" cy="350" rx="3.9" ry="1.6"/>
</g>
<g>
	<path fill="#5D6069" d="M-515.9,450.7h-4.1v-0.8l2-2.1c0.3-0.3,0.5-0.5,0.6-0.8c0.1-0.2,0.2-0.4,0.2-0.6c0-0.3-0.1-0.5-0.2-0.6
		s-0.3-0.2-0.6-0.2c-0.3,0-0.5,0.1-0.6,0.3s-0.2,0.4-0.2,0.7h-1.2c0-0.4,0.1-0.7,0.3-1c0.2-0.3,0.4-0.5,0.7-0.7
		c0.3-0.2,0.7-0.3,1.1-0.3c0.6,0,1.1,0.1,1.5,0.4c0.3,0.3,0.5,0.7,0.5,1.3c0,0.3-0.1,0.6-0.2,0.9c-0.2,0.3-0.4,0.7-0.8,1.1l-1.4,1.4
		h2.6V450.7z"/>
</g>
<g>
	<path fill="#5D6069" d="M-549.5,450.5h-1.2v-4.6l-1.4,0.4v-1l2.5-0.9h0.1V450.5z"/>
</g>
</svg>
