<?xml version="1.0" encoding="utf-8"?>
<!-- Generator: Adobe Illustrator 19.1.0, SVG Export Plug-In . SVG Version: 6.00 Build 0)  -->
<svg version="1.1" id="svg2" xmlns="http://www.w3.org/2000/svg" xmlns:xlink="http://www.w3.org/1999/xlink" x="0px" y="0px"
	 viewBox="-586.2 383.7 100.3 101.9" enable-background="new -586.2 383.7 100.3 101.9" xml:space="preserve">
<path fill-rule="evenodd" clip-rule="evenodd" fill="#D7D7D7" d="M-489.8,383.7h-42.7c0,1.9-1.6,3.5-3.5,3.5c-1.9,0-3.5-1.6-3.5-3.5
	h-42.6c-2.2,0-4,1.8-4,4v93.9c0,2.2,1.8,4,4,4h25.5c0-1.9,1.6-3.5,3.5-3.5c1.9,0,3.5,1.6,3.5,3.5h26c0-1.9,1.6-3.5,3.5-3.5
	c1.9,0,3.5,1.6,3.5,3.5h26.8c2.2,0,4-1.8,4-4v-93.9C-485.8,385.5-487.6,383.7-489.8,383.7z"/>
<g>
	<path fill="#5D6069" d="M-558.4,473.1l1.1-2.1h1.4l-1.8,3l1.8,3h-1.4l-1.2-2.1l-1.2,2.1h-1.4l1.8-3l-1.8-3h1.4L-558.4,473.1z"/>
	<path fill="#5D6069" d="M-552.9,475.6l1.4-4.5h1.4l-2.1,6h-1.3l-2.1-6h1.4L-552.9,475.6z"/>
	<path fill="#5D6069" d="M-544.8,476.3c-0.2,0.3-0.5,0.5-1,0.6c-0.4,0.1-0.9,0.2-1.4,0.2c-0.5,0-1-0.1-1.4-0.3
		c-0.4-0.2-0.7-0.6-0.9-1c-0.2-0.4-0.3-0.9-0.3-1.5v-0.4c0-0.6,0.1-1.1,0.3-1.6s0.5-0.8,0.9-1c0.4-0.2,0.8-0.4,1.3-0.4
		c0.7,0,1.3,0.2,1.7,0.5c0.4,0.3,0.6,0.8,0.7,1.5h-1.2c-0.1-0.3-0.2-0.6-0.4-0.8s-0.5-0.2-0.8-0.2c-0.4,0-0.7,0.2-1,0.5
		s-0.3,0.8-0.3,1.4v0.4c0,0.6,0.1,1.1,0.4,1.4c0.2,0.3,0.6,0.5,1.1,0.5c0.5,0,0.8-0.1,1-0.3v-1h-1.1v-0.9h2.4V476.3z"/>
</g>
<g>
	<path fill="#5D6069" d="M-526.1,473.8l1.3-2.7h1.4l-2,3.9v2.2h-1.3v-2.2l-2-3.9h1.4L-526.1,473.8z"/>
	<path fill="#5D6069" d="M-520.7,475.6l1.4-4.5h1.4l-2.1,6h-1.3l-2.1-6h1.4L-520.7,475.6z"/>
	<path fill="#5D6069" d="M-512.6,476.3c-0.2,0.3-0.5,0.5-1,0.6c-0.4,0.1-0.9,0.2-1.4,0.2c-0.5,0-1-0.1-1.4-0.3
		c-0.4-0.2-0.7-0.6-0.9-1c-0.2-0.4-0.3-0.9-0.3-1.5v-0.4c0-0.6,0.1-1.1,0.3-1.6s0.5-0.8,0.9-1c0.4-0.2,0.8-0.4,1.3-0.4
		c0.7,0,1.3,0.2,1.7,0.5c0.4,0.3,0.6,0.8,0.7,1.5h-1.2c-0.1-0.3-0.2-0.6-0.4-0.8s-0.5-0.2-0.8-0.2c-0.4,0-0.7,0.2-1,0.5
		s-0.3,0.8-0.3,1.4v0.4c0,0.6,0.1,1.1,0.4,1.4c0.2,0.3,0.6,0.5,1.1,0.5c0.5,0,0.8-0.1,1-0.3v-1h-1.1v-0.9h2.4V476.3z"/>
</g>
<g>
	<path fill="#5D6069" d="M-542,394.7l-0.6,0.7v1.7h-1.2v-6h1.2v2.7l0.5-0.8l1.5-2h1.5l-2.1,2.7l2.2,3.4h-1.5L-542,394.7z"/>
	<path fill="#5D6069" d="M-536.3,395.6l1.4-4.5h1.4l-2.1,6h-1.3l-2.1-6h1.4L-536.3,395.6z"/>
	<path fill="#5D6069" d="M-528.2,396.3c-0.2,0.3-0.5,0.5-1,0.6c-0.4,0.1-0.9,0.2-1.4,0.2c-0.5,0-1-0.1-1.4-0.3
		c-0.4-0.2-0.7-0.6-0.9-1c-0.2-0.4-0.3-0.9-0.3-1.5v-0.4c0-0.6,0.1-1.1,0.3-1.6s0.5-0.8,0.9-1c0.4-0.2,0.8-0.4,1.3-0.4
		c0.7,0,1.3,0.2,1.7,0.5c0.4,0.3,0.6,0.8,0.7,1.5h-1.2c-0.1-0.3-0.2-0.6-0.4-0.8s-0.5-0.2-0.8-0.2c-0.4,0-0.7,0.2-1,0.5
		s-0.3,0.8-0.3,1.4v0.4c0,0.6,0.1,1.1,0.4,1.4c0.2,0.3,0.6,0.5,1.1,0.5c0.5,0,0.8-0.1,1-0.3v-1h-1.1v-0.9h2.4V396.3z"/>
</g>
<g>
	
		<radialGradient id="SVGID_1_" cx="-535.8381" cy="433.2378" r="26.6716" gradientTransform="matrix(1 -2.668447e-03 1.867913e-03 0.7 -0.8089 128.5426)" gradientUnits="userSpaceOnUse">
		<stop  offset="0" style="stop-color:#4F5758"/>
		<stop  offset="1" style="stop-color:#393F3E"/>
	</radialGradient>
	<path fill="url(#SVGID_1_)" d="M-501.7,447.3c0-3-11.5-18.3-34.3-18.3c-22.8,0-34.3,15.3-34.3,18.3v-0.2c0,0.3,0,1.3,0,1.6
		c0,6.4,15.4,11.4,34.3,11.4c19,0,34.3-4.9,34.3-11.4c0-0.3,0-1.3,0-1.6V447.3z"/>
	
		<radialGradient id="SVGID_2_" cx="-535.9019" cy="431.2351" r="15.5718" gradientTransform="matrix(1 -2.668447e-03 1.867913e-03 0.7 -0.8052 127.9416)" gradientUnits="userSpaceOnUse">
		<stop  offset="0" style="stop-color:#000000"/>
		<stop  offset="0.4935" style="stop-color:#020202;stop-opacity:0.5065"/>
		<stop  offset="0.6712" style="stop-color:#080909;stop-opacity:0.3288"/>
		<stop  offset="0.7979" style="stop-color:#131414;stop-opacity:0.2021"/>
		<stop  offset="0.8997" style="stop-color:#222525;stop-opacity:0.1003"/>
		<stop  offset="0.9865" style="stop-color:#353B3A;stop-opacity:1.348937e-02"/>
		<stop  offset="1" style="stop-color:#393F3E;stop-opacity:0"/>
	</radialGradient>
	<path opacity="0.25" fill="url(#SVGID_2_)" d="M-514.8,435.8c0-0.6-0.1-1.2-0.4-1.8c-5.4-2.8-12.3-5-20.8-5s-15.5,2.1-20.8,5
		c-0.2,0.6-0.4,1.2-0.4,1.8c0,5.3,9.5,9.6,21.2,9.6S-514.8,441-514.8,435.8z"/>
	<linearGradient id="SVGID_3_" gradientUnits="userSpaceOnUse" x1="-536.0386" y1="436.9344" x2="-536.0386" y2="409.993">
		<stop  offset="0" style="stop-color:#171717"/>
		<stop  offset="0.6664" style="stop-color:#000000"/>
	</linearGradient>
	<path fill="url(#SVGID_3_)" d="M-532.4,410h-7.3c-2.4,1.5-4.5,4.2-6.2,7.2v15.5c0,0.2,0.4,2.5,1.6,2.9c2.6,1.2,4.7,1.4,8.6,1.4
		c3.6,0,5.4-0.1,7.9-1.2c1.9-0.5,1.6-3.7,1.6-4v-15.1C-527.9,413.8-530.1,411.4-532.4,410z"/>
	
		<radialGradient id="SVGID_4_" cx="-536.2053" cy="409.7779" r="28.5395" gradientTransform="matrix(1 0 0 0.4 0 245.8667)" gradientUnits="userSpaceOnUse">
		<stop  offset="0" style="stop-color:#4F5758"/>
		<stop  offset="1" style="stop-color:#393F3E"/>
	</radialGradient>
	<path fill="url(#SVGID_4_)" d="M-507.5,415.6c0-1.9-9.5-8.9-28.5-8.9s-28.5,7-28.5,8.9v-0.1c0,0.2,0,0.9,0,1
		c0,4.1,12.8,5.3,28.5,5.3s28.5-1.2,28.5-5.3c0-0.2,0-0.9,0-1V415.6z"/>
</g>
</svg>
