<?xml version="1.0" encoding="utf-8"?>
<!-- Generator: Adobe Illustrator 19.1.0, SVG Export Plug-In . SVG Version: 6.00 Build 0)  -->
<svg version="1.1" id="svg" xmlns="http://www.w3.org/2000/svg" xmlns:xlink="http://www.w3.org/1999/xlink" x="0px" y="0px"
	 viewBox="-638.1 362.2 171 93.3" enable-background="new -638.1 362.2 171 93.3" xml:space="preserve">
<path fill-rule="evenodd" clip-rule="evenodd" fill="#D7D7D7" d="M-471.1,362.2h-49.2c0,0.1,0,0.2,0,0.3c0,1.9-1.6,3.5-3.5,3.5
	s-3.5-1.6-3.5-3.5c0-0.1,0-0.2,0-0.3h-50.3c0,0.1,0,0.2,0,0.3c0,1.9-1.6,3.5-3.5,3.5s-3.5-1.6-3.5-3.5c0-0.1,0-0.2,0-0.3h-49.6
	c-2.2,0-4,1.8-4,4v85.3c0,2.2,1.8,4,4,4h163c2.2,0,4-1.8,4-4v-85.3C-467.1,364-468.8,362.2-471.1,362.2z"/>
<g>
	<path fill="#5D6069" d="M-527.6,374.7c0-0.2-0.1-0.4-0.2-0.5s-0.5-0.3-0.9-0.4s-0.8-0.3-1-0.4c-0.7-0.4-1-0.9-1-1.5
		c0-0.3,0.1-0.6,0.3-0.9c0.2-0.3,0.4-0.5,0.8-0.6s0.7-0.2,1.2-0.2c0.4,0,0.8,0.1,1.2,0.2c0.3,0.2,0.6,0.4,0.8,0.7
		c0.2,0.3,0.3,0.6,0.3,1h-1.2c0-0.3-0.1-0.5-0.3-0.6c-0.2-0.2-0.4-0.2-0.7-0.2c-0.3,0-0.5,0.1-0.7,0.2c-0.2,0.1-0.3,0.3-0.3,0.5
		c0,0.2,0.1,0.4,0.3,0.5c0.2,0.1,0.5,0.3,0.9,0.4c0.7,0.2,1.2,0.5,1.5,0.8c0.3,0.3,0.5,0.7,0.5,1.2c0,0.5-0.2,0.9-0.6,1.2
		c-0.4,0.3-0.9,0.4-1.6,0.4c-0.5,0-0.9-0.1-1.3-0.3c-0.4-0.2-0.7-0.4-0.9-0.7c-0.2-0.3-0.3-0.6-0.3-1h1.2c0,0.7,0.4,1,1.2,1
		c0.3,0,0.5-0.1,0.7-0.2S-527.6,374.9-527.6,374.7z"/>
	<path fill="#5D6069" d="M-518.4,375.3h2.6v1h-3.9v-6h1.2V375.3z"/>
	<path fill="#5D6069" d="M-520.6,374.3c0,0.7-0.3,1.2-0.7,1.5c-0.4,0.4-1,0.6-1.7,0.6c-0.8,0-1.4-0.3-1.8-0.8
		c-0.4-0.5-0.7-1.2-0.7-2.1v-0.4c0-0.6,0.1-1.1,0.3-1.5c0.2-0.4,0.5-0.8,0.9-1c0.4-0.2,0.8-0.4,1.3-0.4c0.7,0,1.3,0.2,1.7,0.6
		c0.4,0.4,0.7,0.9,0.7,1.6h-1.2c0-0.4-0.1-0.7-0.3-0.8s-0.5-0.3-0.9-0.3c-0.4,0-0.7,0.1-0.9,0.4c-0.2,0.3-0.3,0.8-0.3,1.4v0.5
		c0,0.7,0.1,1.1,0.3,1.4c0.2,0.3,0.5,0.5,0.9,0.5c0.4,0,0.7-0.1,0.9-0.3s0.3-0.4,0.3-0.8H-520.6z"/>
</g>
<g>
	<path fill="#5D6069" d="M-585.4,374.7c0-0.2-0.1-0.4-0.2-0.5s-0.5-0.3-0.9-0.4s-0.8-0.3-1-0.4c-0.7-0.4-1-0.9-1-1.5
		c0-0.3,0.1-0.6,0.3-0.9c0.2-0.3,0.4-0.5,0.8-0.6s0.7-0.2,1.2-0.2c0.4,0,0.8,0.1,1.2,0.2c0.3,0.2,0.6,0.4,0.8,0.7
		c0.2,0.3,0.3,0.6,0.3,1h-1.2c0-0.3-0.1-0.5-0.3-0.6c-0.2-0.2-0.4-0.2-0.7-0.2c-0.3,0-0.5,0.1-0.7,0.2c-0.2,0.1-0.3,0.3-0.3,0.5
		c0,0.2,0.1,0.4,0.3,0.5c0.2,0.1,0.5,0.3,0.9,0.4c0.7,0.2,1.2,0.5,1.5,0.8c0.3,0.3,0.5,0.7,0.5,1.2c0,0.5-0.2,0.9-0.6,1.2
		c-0.4,0.3-0.9,0.4-1.6,0.4c-0.5,0-0.9-0.1-1.3-0.3c-0.4-0.2-0.7-0.4-0.9-0.7c-0.2-0.3-0.3-0.6-0.3-1h1.2c0,0.7,0.4,1,1.2,1
		c0.3,0,0.5-0.1,0.7-0.2S-585.4,374.9-585.4,374.7z"/>
	<path fill="#5D6069" d="M-583.3,376.3v-6h1.9c0.5,0,1,0.1,1.4,0.4c0.4,0.2,0.7,0.6,1,1c0.2,0.4,0.4,0.9,0.4,1.5v0.3
		c0,0.6-0.1,1.1-0.3,1.5c-0.2,0.4-0.6,0.8-1,1s-0.9,0.4-1.4,0.4H-583.3z M-582.1,371.2v4h0.6c0.5,0,0.9-0.2,1.1-0.5s0.4-0.8,0.4-1.4
		v-0.3c0-0.6-0.1-1.1-0.4-1.4c-0.3-0.3-0.6-0.5-1.1-0.5H-582.1z"/>
	<path fill="#5D6069" d="M-574.5,375h-2.2l-0.4,1.2h-1.3l2.2-6h1.2l2.3,6h-1.3L-574.5,375z M-576.3,374h1.5l-0.8-2.3L-576.3,374z"/>
</g>
<g id="icon">
	<path fill="#1F7A34" d="M-482.8,439.8v-53.9H-623v53.9H-482.8z"/>
	<g>
		<path fill="#1A1A1A" d="M-511.8,395.7c0-0.4-0.3-0.7-0.7-0.7h-101c-0.4,0-0.7,0.3-0.7,0.7v0.4c0,0.4,0.3,0.7,0.7,0.7h101
			c0.4,0,0.7-0.3,0.7-0.7L-511.8,395.7L-511.8,395.7z"/>
		<path fill="#424242" d="M-512.2,396.3c0-0.3-0.2-0.5-0.5-0.5h-100.7c-0.3,0-0.5,0.2-0.5,0.5c0,0.3,0.2,0.5,0.5,0.5h100.7
			C-512.4,396.8-512.2,396.6-512.2,396.3z"/>
	</g>
	<g>
		<path fill="#303030" d="M-486,422.2v-18.6h0.5v-13.5h-0.1l-1.3-1.3v-0.5h-0.5h-131.2h-0.5v0.5l-1.3,1.3h-0.1v13.5h0.5v18.6h-0.5
			v13.5h0.1l1.3,1.3v0.5h0v-0.2l0,0v-0.2h132.2v0.2l0,0v0.2h0V437l1.3-1.3h0.1v-13.5L-486,422.2L-486,422.2z M-486.9,388.5
			L-486.9,388.5v0.2H-619v-0.2v0v-0.2h132.2L-486.9,388.5z"/>
		<polygon fill="#303030" points="-620.8,390.1 -620.8,390.1 -620.8,390.6 -620.8,403.6 -620.8,403.6 		"/>
		<polygon fill="#303030" points="-485.1,403.6 -485.1,390.6 -485.1,390.1 -485.1,390.1 -485.1,403.6 		"/>
		<polygon fill="#303030" points="-620.8,422.2 -620.8,435.2 -620.8,435.7 -620.8,435.7 		"/>
		<polygon fill="#303030" points="-485.1,435.7 -485.1,435.7 -485.1,435.2 -485.1,422.2 -485.1,422.2 		"/>
		<rect x="-619" y="388.3" fill="#212121" width="132.2" height="0.2"/>
		<rect x="-619" y="388.5" fill="#606060" width="132.2" height="0.2"/>
		<rect x="-619" y="388.5" fill="#606060" width="132.2" height="0"/>
		<polygon fill="#212121" points="-620.8,390.1 -620.6,390.1 -620.6,390.1 		"/>
		<rect x="-620.8" y="422.2" fill="#212121" width="0.2" height="13.5"/>
		<rect x="-620.8" y="390.1" fill="#212121" width="0.2" height="13.5"/>
		<rect x="-620.5" y="390" fill="#606060" width="0" height="0.2"/>
		<rect x="-620.6" y="422.2" fill="#606060" width="0.2" height="13.5"/>
		<rect x="-620.6" y="390.1" fill="#606060" width="0.2" height="13.5"/>
		<rect x="-620.6" y="390.1" fill="#606060" width="0" height="0"/>
		<rect x="-620.6" y="390.1" fill="#606060" width="0" height="13.5"/>
		<rect x="-620.6" y="422.2" fill="#606060" width="0" height="13.5"/>
		<rect x="-485.2" y="390" fill="#212121" width="0" height="0.2"/>
		<rect x="-485.3" y="390.1" fill="#212121" width="0.2" height="13.5"/>
		<rect x="-485.3" y="422.2" fill="#212121" width="0.2" height="13.5"/>
		<polygon fill="#606060" points="-485.4,390.1 -485.3,390.1 -485.3,390.1 		"/>
		<rect x="-485.4" y="422.2" fill="#606060" width="0.2" height="13.5"/>
		<rect x="-485.4" y="390.1" fill="#606060" width="0.2" height="13.5"/>
		<polygon fill="#2B2B2B" points="-618.6,437.5 -619,437.5 -619,437.5 -486.9,437.5 -486.9,437.5 -487.3,437.5 		"/>
		<polygon fill="#2B2B2B" points="-619,437.3 -619,437.5 -618.6,437.5 -487.3,437.5 -486.9,437.5 -486.9,437.3 		"/>
		<rect x="-619" y="437.1" fill="#606060" width="132.2" height="0.2"/>
		<polygon fill="#606060" points="-619,437.3 -486.9,437.3 -486.9,437.3 		"/>
	</g>
	<g>
		<path fill="#87AD34" d="M-490.9,426.2c0,1.4-1.2,2.6-2.6,2.6h-118.9c-1.4,0-2.6-1.2-2.6-2.6v-26.5c0-1.4,1.2-2.6,2.6-2.6h118.9
			c1.4,0,2.6,1.2,2.6,2.6L-490.9,426.2L-490.9,426.2z"/>
		<g opacity="0.2">
			<path fill="#22420D" d="M-612.4,397c-1.4,0-2.6,1.2-2.6,2.6v26.5c0,1.4,1.2,2.6,2.6,2.6h1.5c-1.4,0-2.6-1.2-2.6-2.6v-25.6
				c0-1.4,1.2-2.6,2.6-2.6h119.3c-0.5-0.5-1.2-0.9-1.9-0.9L-612.4,397L-612.4,397z M-490.9,399.6v26.5c0,0,0,0,0,0L-490.9,399.6
				C-490.9,399.6-490.9,399.6-490.9,399.6z"/>
		</g>
	</g>
	<g>
		<path fill="#1A1A1A" d="M-489.8,433.1c0-0.5-0.4-0.9-0.9-0.9h-124.5c-0.5,0-0.9,0.4-0.9,0.9v0.5c0,0.5,0.4,0.9,0.9,0.9h124.5
			c0.5,0,0.9-0.4,0.9-0.9V433.1z"/>
		<path fill="#424242" d="M-490.2,433.9c0-0.3-0.3-0.6-0.6-0.6H-615c-0.3,0-0.6,0.3-0.6,0.6c0,0.3,0.3,0.6,0.6,0.6h124.1
			C-490.5,434.5-490.2,434.2-490.2,433.9z"/>
	</g>
	<g>
		
			<line fill="none" stroke="#F2F2F2" stroke-width="9.140000e-02" stroke-linecap="round" stroke-opacity="0.2" x1="-620.3" y1="390.2" x2="-618.9" y2="388.8"/>
		
			<line fill="none" stroke="#F2F2F2" stroke-width="9.140000e-02" stroke-linecap="round" stroke-opacity="0.2" x1="-618.9" y1="437" x2="-620.3" y2="435.6"/>
	</g>
	<path fill="none" stroke="#1A1A1A" stroke-width="0.5484" stroke-opacity="0.4" d="M-490.9,426.2c0,1.4-1.2,2.6-2.6,2.6h-118.9
		c-1.4,0-2.6-1.2-2.6-2.6v-26.5c0-1.4,1.2-2.6,2.6-2.6h118.9c1.4,0,2.6,1.2,2.6,2.6L-490.9,426.2L-490.9,426.2z"/>
	<rect x="-608.7" y="414" fill="#1A1A1A" fill-opacity="0.15" width="6.5" height="10.8"/>
	<rect x="-600" y="414" fill="#1A1A1A" fill-opacity="0.15" width="6.5" height="10.8"/>
	<rect x="-591.3" y="414" fill="#1A1A1A" fill-opacity="0.15" width="6.5" height="10.8"/>
	<rect x="-582.7" y="414" fill="#1A1A1A" fill-opacity="0.15" width="6.5" height="10.8"/>
	<rect x="-574" y="414" fill="#1A1A1A" fill-opacity="0.15" width="6.5" height="10.8"/>
	<rect x="-608.7" y="401.1" fill="#1A1A1A" fill-opacity="0.15" width="6.5" height="10.8"/>
	<rect x="-600" y="401.1" fill="#1A1A1A" fill-opacity="0.15" width="6.5" height="10.8"/>
	<rect x="-591.3" y="401.1" fill="#1A1A1A" fill-opacity="0.15" width="6.5" height="10.8"/>
	<rect x="-582.7" y="401.1" fill="#1A1A1A" fill-opacity="0.15" width="6.5" height="10.8"/>
	<rect x="-574" y="401.1" fill="#1A1A1A" fill-opacity="0.15" width="6.5" height="10.8"/>
	<rect x="-565" y="414" fill="#1A1A1A" fill-opacity="0.15" width="6.5" height="10.8"/>
	<rect x="-556.3" y="414" fill="#1A1A1A" fill-opacity="0.15" width="6.5" height="10.8"/>
	<rect x="-547.7" y="414" fill="#1A1A1A" fill-opacity="0.15" width="6.5" height="10.8"/>
	<rect x="-539" y="414" fill="#1A1A1A" fill-opacity="0.15" width="6.5" height="10.8"/>
	<rect x="-530.3" y="414" fill="#1A1A1A" fill-opacity="0.15" width="6.5" height="10.8"/>
	<rect x="-565" y="401.1" fill="#1A1A1A" fill-opacity="0.15" width="6.5" height="10.8"/>
	<rect x="-556.3" y="401.1" fill="#1A1A1A" fill-opacity="0.15" width="6.5" height="10.8"/>
	<rect x="-547.7" y="401.1" fill="#1A1A1A" fill-opacity="0.15" width="6.5" height="10.8"/>
	<rect x="-539" y="401.1" fill="#1A1A1A" fill-opacity="0.15" width="6.5" height="10.8"/>
	<rect x="-530.3" y="401.1" fill="#1A1A1A" fill-opacity="0.15" width="6.5" height="10.8"/>
	<rect x="-521.2" y="414" fill="#1A1A1A" fill-opacity="0.15" width="6.5" height="10.8"/>
	<rect x="-512.5" y="414" fill="#1A1A1A" fill-opacity="0.15" width="6.5" height="10.8"/>
	<rect x="-503.8" y="414" fill="#1A1A1A" fill-opacity="0.15" width="6.5" height="10.8"/>
	<rect x="-521.2" y="401.1" fill="#1A1A1A" fill-opacity="0.15" width="6.5" height="10.8"/>
	<rect x="-512.5" y="401.1" fill="#1A1A1A" fill-opacity="0.15" width="6.5" height="10.8"/>
	<rect x="-503.8" y="401.1" fill="#1A1A1A" fill-opacity="0.15" width="6.5" height="10.8"/>
</g>
</svg>
