<?xml version="1.0" encoding="utf-8"?>
<!-- Generator: Adobe Illustrator 18.1.1, SVG Export Plug-In . SVG Version: 6.00 Build 0)  -->
<svg version="1.1" id="Capa_1" xmlns="http://www.w3.org/2000/svg" xmlns:xlink="http://www.w3.org/1999/xlink" x="0px" y="0px"
	 viewBox="-641.8 370 87.2 62.6" enable-background="new -641.8 370 87.2 62.6" xml:space="preserve">
<path fill-rule="evenodd" clip-rule="evenodd" fill="#D7D7D7" d="M-558.5,370h-36.1c0,1.9-1.6,3.5-3.5,3.5s-3.5-1.6-3.5-3.5h-36.1
	c-2.2,0-4,1.8-4,4v54.6c0,2.2,1.8,4,4,4h79.2c2.2,0,4-1.8,4-4V374C-554.5,371.7-556.3,370-558.5,370z"/>
<g id="icon">
	<path id="path3011" fill="#8590A0" d="M-575.3,416.9v-14.2c0-0.9-0.2-1.2-0.4-1.4l0,0c-0.2-0.2-0.5-0.4-1.5-0.4l0,0h-42.5
		c-0.6,0-0.9,0.1-1.1,0.1l0,0c-0.1,0-0.1,0.1-0.1,0l0,0c0,0,0,0-0.1,0.1l0,0c0,0.2-0.1,0.5-0.1,0.9l0,0v14.7h0h-5.1v-14.7
		c0-1.7,0.4-3.4,1.7-4.7l0,0c1.3-1.3,3.1-1.6,4.8-1.6l0,0h42.5c1.9,0,3.8,0.6,5.1,1.9l0,0c1.3,1.3,1.9,3.2,1.8,4.9l0,0l0,14.2
		L-575.3,416.9L-575.3,416.9z"/>
	<path id="path3013" fill="#384149" d="M-615.4,398.6c0,5.1,2.3,9.7,5.8,12.9h22.7c3.6-3.1,5.8-7.7,5.8-12.9c0-5.1-2.3-9.7-5.8-12.9
		h-22.7C-613.1,388.8-615.4,393.4-615.4,398.6z"/>
	<rect id="rect3015" x="-609.6" y="385.7" fill="#434D54" width="22.7" height="25.7"/>
	<path id="path3017" fill="#BAC1CC" d="M-586.8,410c0,0-5.5,0.5-11.4,0.5c-5.9,0-11.4-0.5-11.4-0.5s-0.5-5.5-0.5-11.4
		c0-5.9,0.5-11.4,0.5-11.4s5.5-0.5,11.4-0.5c5.9,0,11.4,0.5,11.4,0.5s0.5,5.5,0.5,11.4C-586.3,404.4-586.8,410-586.8,410z"/>
	<path id="path3019" fill="#B21616" d="M-588,388.9l-0.1-0.4l-0.4-0.1c0,0-4.6-0.8-9.7-0.8c-2.6,0-5.1,0.2-6.7,0.4
		c-1.6,0.2-2.5,0.3-2.9,0.4c-0.1,0-0.2,0-0.3,0.1c-0.1,0.1-0.2,0.2-0.2,0.3c-0.1,0.4-0.3,1.3-0.4,3c-0.1,1.3-0.3,3.8-0.3,6.7
		c0,5,0.8,9.6,0.8,9.7l0.1,0.4l0.4,0.1c0,0,4.6,0.8,9.7,0.8c5,0,9.6-0.8,9.7-0.8l0.4-0.1l0.1-0.4c0,0,0.8-4.6,0.8-9.7
		S-588,388.9-588,388.9z M-607.2,407.6c-0.2-1.2-0.7-5-0.7-9c0-4.2,0.4-8,0.6-9c0.4-0.1,1.2-0.2,2.3-0.3c0,0.1,0,0.2,0,0.3
		c0,0.7,0.4,1.9,0.5,2.1c0.1,0.3,0.4,0.4,0.7,0.4c0,0,2.7-0.6,5.7-0.6c2.8,0,5.3,0.5,5.6,0.5c0,0,0,0,0,0.1c0,0.2-0.1,0.6-0.2,1
		c-0.7-0.1-1.9-0.3-3.4-0.3c-2.1,0-4.1,0.4-4.2,0.4c-0.2,0-0.3,0.1-0.4,0.3c0,0.1-0.2,0.5-0.2,1.2c0,0.7,0.2,1.6,0.2,1.6
		c0,0.2,0.1,0.3,0.3,0.4c0.1,0.1,0.3,0.1,0.5,0.1c0,0,0.9-0.2,1.9-0.2c0.6,0,1.2,0.1,1.5,0.1c0,0.2,0.1,0.3,0.1,0.6
		c0,0.2,0,0.5-0.1,0.7h-1.5h-2c-0.3,0-0.5,0.2-0.6,0.5c0,0-0.2,0.7-0.2,1.4c0,0.7,0.2,1.2,0.2,1.3c0.1,0.2,0.2,0.4,0.5,0.4
		c0,0,1,0.2,2.1,0.2c0.6,0,1.1,0,1.5-0.1c0,0.3,0.1,0.5,0.1,0.8c0,0.2,0,0.3,0,0.4c-0.7,0.1-2.1,0.3-3.6,0.3c-2,0-3.6-0.4-3.6-0.4
		c-0.2-0.1-0.5,0-0.6,0.2c-0.1,0.1-0.6,0.8-0.6,1.6c0,0.8,0.5,1.5,0.6,1.6c0.1,0.1,0.2,0.2,0.4,0.2c0.1,0,2.8,0.6,5.9,0.6
		c2.3,0,4.4-0.3,5.4-0.5c0.1,0.4,0.3,0.9,0.3,1.2c0,0.2-0.1,0.3-0.1,0.4c-1.6,0.1-3.5,0.3-5.5,0.3
		C-602.2,408.3-606,407.8-607.2,407.6z M-589.2,407.6c-0.4,0.1-1.2,0.2-2.2,0.3c0-0.1,0-0.2,0-0.3c0-0.7-0.4-1.9-0.5-2.1
		c-0.1-0.3-0.4-0.4-0.7-0.4c0,0-2.7,0.6-5.7,0.6c-2.5,0-4.7-0.4-5.4-0.5c-0.1-0.2-0.2-0.4-0.2-0.6c0-0.2,0.1-0.4,0.1-0.5
		c0.6,0.1,1.9,0.3,3.4,0.3c2.1,0,4.1-0.4,4.2-0.4c0.2,0,0.3-0.1,0.4-0.3c0-0.1,0.2-0.5,0.2-1.2c0-0.7-0.2-1.6-0.2-1.6
		c0-0.2-0.1-0.3-0.3-0.4c-0.1-0.1-0.3-0.1-0.5-0.1c0,0-0.9,0.2-1.9,0.2c-0.6,0-1.2-0.1-1.5-0.1c0-0.2-0.1-0.3-0.1-0.6
		c0-0.2,0-0.5,0.1-0.7h1.5h2c0.3,0,0.5-0.2,0.6-0.5c0,0,0.2-0.7,0.2-1.4c0-0.7-0.2-1.2-0.2-1.3c-0.1-0.2-0.2-0.4-0.5-0.4
		c0,0-1-0.2-2.1-0.2c-0.6,0-1.1,0.1-1.5,0.1c0-0.3-0.1-0.5-0.1-0.8c0-0.2,0-0.3,0-0.4c0.7-0.1,2.1-0.3,3.6-0.3c2,0,3.6,0.4,3.6,0.4
		c0.3,0.1,0.6-0.1,0.7-0.3c0-0.1,0.5-1.2,0.5-1.9c0-0.9-0.6-1.3-0.9-1.3c-0.1,0-2.8-0.6-5.9-0.6c-2.3,0-4.4,0.3-5.4,0.5
		c-0.1-0.4-0.3-0.9-0.3-1.2c0-0.2,0.1-0.3,0.1-0.4c1.6-0.1,3.5-0.3,5.5-0.3c4,0,7.8,0.5,9,0.7c0.2,1.2,0.7,5,0.7,9
		C-588.5,402.6-589,406.3-589.2,407.6z"/>
	<circle id="circle3021" fill="#A3A8B2" cx="-611.7" cy="398.6" r="3.2"/>
	<circle id="circle3023" fill="#A3A8B2" cx="-584.7" cy="398.6" r="3.2"/>
	<path id="path3025" opacity="0.3" enable-background="new    " d="M-586.8,385.7h-22.7c-3.6,3.1-5.8,7.7-5.8,12.9
		c0,5.1,2.3,9.7,5.8,12.9h22.7c3.6-3.1,5.8-7.7,5.8-12.9C-581,393.4-583.3,388.8-586.8,385.7z M-598.9,408.4
		c-5.9,0-10.6-4.7-10.6-10.6c0-5.8,4.7-10.6,10.6-10.6s10.6,4.7,10.6,10.6S-593,408.4-598.9,408.4z"/>
	<circle id="circle3027" opacity="0.7" fill="#FFFFFF" enable-background="new    " cx="-602.5" cy="393.7" r="2.8"/>
</g>
</svg>
