<?xml version="1.0" encoding="utf-8"?>
<!-- Generator: Adobe Illustrator 18.1.1, SVG Export Plug-In . SVG Version: 6.00 Build 0)  -->
<svg version="1.1" id="Layer_1" xmlns="http://www.w3.org/2000/svg" xmlns:xlink="http://www.w3.org/1999/xlink" x="0px" y="0px"
	 viewBox="-583.9 376.1 54.9 82.7" enable-background="new -583.9 376.1 54.9 82.7" xml:space="preserve">
<path fill-rule="evenodd" clip-rule="evenodd" fill="#D7D7D7" d="M-533,376.1h-46.9c-2.2,0-4,1.8-4,4v74.7c0,2.2,1.8,4,4,4h20
	c0-1.9,1.6-3.5,3.5-3.5c1.9,0,3.5,1.6,3.5,3.5h19.9c2.2,0,4-1.8,4-4v-74.7C-529,377.9-530.8,376.1-533,376.1z"/>
<g id="icon">
	<rect x="-562.9" y="420.2" fill="#88909E" width="3.3" height="21.9"/>
	<path fill="#88909E" d="M-548.7,435.1c0-1.8-1.6-3.2-3.2-4.5c-0.6-0.6-1.8-1.5-1.8-2.2v-8.3h-3.3v8.8c0,1.6,1.4,2.8,3,4.2
		c0.7,0.6,2,1.9,2,2.7c0,0.3,0,6.4,0,6.4h3.3L-548.7,435.1z"/>
	<g id="g12">
		<path id="path16" fill="#FFFFFF" enable-background="new    " d="M-546.6,410.5v-9c0-5.9-4.8-10.7-10.7-10.7
			c-5.9,0-10.7,4.8-10.7,10.7v20.7c2.2,2.5,6.2,4.2,10.7,4.2c7,0,12.7-4,12.7-8.9v-2.3C-544.7,413.5-545.4,411.9-546.6,410.5z"/>
		<ellipse id="ellipse24" opacity="0.25" fill="#E9EDF4" enable-background="new    " cx="-557.4" cy="415.2" rx="10.7" ry="7.5"/>
		<polygon id="polygon28" fill="#BAC1CC" points="-564.8,405.5 -564.8,415.2 -563.3,415.2 -563.3,410.7 -559,410.7 -552.9,404.2 
			-562.9,404.2 		"/>
		<polygon id="polygon30" fill="#BAC2CE" points="-551.8,403.8 -551.1,404.5 -556.9,410.7 -551.3,410.7 -551.3,415.2 -550,415.2 
			-550,403.8 		"/>
		<path id="path34" opacity="0.76" fill="#FFFFFF" enable-background="new    " d="M-552.4,396.5l2.2-0.4c-1.3-1.7-3.2-3-5.4-3.4
			l0.4,1.6C-554,394.8-553,395.5-552.4,396.5z"/>
		<path id="path36" opacity="0.8" fill="#FFFFFF" enable-background="new    " d="M-566.9,421v2.3c1,0.8,2.2,1.5,3.5,2V423
			C-564.8,422.5-566,421.8-566.9,421z"/>
		<path id="path38" opacity="0.7" fill="#E7EBF2" enable-background="new    " d="M-551.3,421.5c-0.4,0.2-0.8,0.3-1.2,0.5
			c-0.1,0-0.2,0.1-0.3,0.1c-0.9,0.3-1.8,0.5-2.7,0.6c-0.1,0-0.2,0-0.3,0c-0.5,0-1,0.1-1.5,0.1c-0.2,0-0.5,0-0.7,0
			c-1.8-0.1-3.5-0.5-5-1.1v-12.7v-7.3c0-2.2,1.3-4.1,3.1-5.1l0-0.1l-1.9-2.3c-2.5,1.5-4.2,4.3-4.2,7.4v18c-0.1-0.1-0.5-0.5-0.7-0.8
			l-0.5,1c2.1,2.2,5.8,3.7,9.9,3.7c2.5,0,4.9-0.6,6.8-1.5L-551.3,421.5C-551.3,421.5-551.3,421.5-551.3,421.5z"/>
	</g>
</g>
</svg>
