<?xml version="1.0" encoding="utf-8"?>
<!-- Generator: Adobe Illustrator 19.1.0, SVG Export Plug-In . SVG Version: 6.00 Build 0)  -->
<svg version="1.1" id="svg2" xmlns="http://www.w3.org/2000/svg" xmlns:xlink="http://www.w3.org/1999/xlink" x="0px" y="0px"
	 viewBox="-586.2 393.5 100.3 92.1" enable-background="new -586.2 393.5 100.3 92.1" xml:space="preserve">
<path fill-rule="evenodd" clip-rule="evenodd" fill="#D7D7D7" d="M-489.8,406.7h-92.3c-2.2,0-4,1.6-4,3.6V482c0,2,1.8,3.6,4,3.6
	h42.6c0-1.7,1.6-3.1,3.5-3.1c1.9,0,3.5,1.4,3.5,3.1h42.7c2.2,0,4-1.6,4-3.6v-71.7C-485.8,408.3-487.6,406.7-489.8,406.7z"/>
<rect x="-562.3" y="426.4" fill-rule="evenodd" clip-rule="evenodd" fill="#A0A0A0" width="52.6" height="8.6"/>
<path fill="#FFFFFF" d="M-551.3,453.3L-551.3,453.3c0-0.9,0.8-1.7,1.7-1.7h6c0.9,0,1.7,0.8,1.7,1.7l0,0c0,0.9-0.8,1.7-1.7,1.7h-6
	C-550.6,455-551.3,454.2-551.3,453.3z"/>
<linearGradient id="SVGID_1_" gradientUnits="userSpaceOnUse" x1="-563.4316" y1="430.9166" x2="-559.9941" y2="430.9166" gradientTransform="matrix(4.489700e-11 1 -1 4.489700e-11 -115.7042 1014.9714)">
	<stop  offset="0" style="stop-color:#C59600"/>
	<stop  offset="0.9968" style="stop-color:#BF8500"/>
</linearGradient>
<rect x="-549.6" y="451.5" fill="url(#SVGID_1_)" width="6" height="3.4"/>
<path fill="#FFFFFF" d="M-527.7,462L-527.7,462c0-0.9,0.8-1.7,1.7-1.7h6c0.9,0,1.7,0.8,1.7,1.7l0,0c0,0.9-0.8,1.7-1.7,1.7h-6
	C-527,463.7-527.7,462.9-527.7,462z"/>
<linearGradient id="SVGID_2_" gradientUnits="userSpaceOnUse" x1="-554.7128" y1="407.3133" x2="-551.2753" y2="407.3133" gradientTransform="matrix(4.489700e-11 1 -1 4.489700e-11 -115.7042 1014.9714)">
	<stop  offset="0" style="stop-color:#C59600"/>
	<stop  offset="0.9968" style="stop-color:#BF8500"/>
</linearGradient>
<rect x="-526" y="460.3" fill="url(#SVGID_2_)" width="6" height="3.4"/>
<path fill="#FFFFFF" d="M-551.3,462L-551.3,462c0-0.9,0.8-1.7,1.7-1.7h6c0.9,0,1.7,0.8,1.7,1.7l0,0c0,0.9-0.8,1.7-1.7,1.7h-6
	C-550.6,463.7-551.3,462.9-551.3,462z"/>
<linearGradient id="SVGID_3_" gradientUnits="userSpaceOnUse" x1="-522.2244" y1="387.7705" x2="-518.7869" y2="387.7705" gradientTransform="matrix(4.489700e-11 1 -1 4.489700e-11 -158.8503 982.483)">
	<stop  offset="0" style="stop-color:#383838"/>
	<stop  offset="0.9929" style="stop-color:#1C1C1C"/>
</linearGradient>
<rect x="-549.6" y="460.3" fill="url(#SVGID_3_)" width="6" height="3.4"/>
<path fill="#FFFFFF" d="M-527.7,470.5L-527.7,470.5c0-0.9,0.8-1.7,1.7-1.7h6c0.9,0,1.7,0.8,1.7,1.7l0,0c0,0.9-0.8,1.7-1.7,1.7h-6
	C-527,472.2-527.7,471.4-527.7,470.5z"/>
<linearGradient id="SVGID_4_" gradientUnits="userSpaceOnUse" x1="-513.7244" y1="364.1672" x2="-510.2869" y2="364.1672" gradientTransform="matrix(4.489700e-11 1 -1 4.489700e-11 -158.8503 982.483)">
	<stop  offset="0" style="stop-color:#383838"/>
	<stop  offset="0.9929" style="stop-color:#1C1C1C"/>
</linearGradient>
<rect x="-526" y="468.8" fill="url(#SVGID_4_)" width="6" height="3.4"/>
<g>
	<linearGradient id="SVGID_5_" gradientUnits="userSpaceOnUse" x1="-563.8219" y1="401.6906" x2="-508.1878" y2="401.6906">
		<stop  offset="0" style="stop-color:#D7D7D7"/>
		<stop  offset="0.9881" style="stop-color:#999999"/>
	</linearGradient>
	<path fill="url(#SVGID_5_)" d="M-562.3,409.9c-0.7,0-1.3-0.5-1.5-1.1c-0.2-0.8,0.3-1.6,1.1-1.8l52.6-13.4c0.8-0.2,1.6,0.3,1.8,1.1
		c0.2,0.8-0.3,1.6-1.1,1.8l-52.6,13.4C-562.1,409.9-562.2,409.9-562.3,409.9z"/>
</g>
<path fill="#FFFFFF" d="M-551.3,470.5L-551.3,470.5c0-0.9,0.8-1.7,1.7-1.7h6c0.9,0,1.7,0.8,1.7,1.7l0,0c0,0.9-0.8,1.7-1.7,1.7h-6
	C-550.6,472.2-551.3,471.4-551.3,470.5z"/>
<rect x="-549.6" y="468.8" fill="#ADADAD" width="6" height="3.4"/>
<g>
	<circle fill-rule="evenodd" clip-rule="evenodd" fill="#FFFFFF" cx="-556" cy="439.1" r="3.2"/>
	<g>
		<path fill-rule="evenodd" clip-rule="evenodd" fill="#FFFFFF" d="M-556.2,439.9c-0.6,0-1.1-0.5-1.1-1.1v-6.3
			c0-0.6,0.5-1.1,1.1-1.1h0.4c0.6,0,1.1,0.5,1.1,1.1v6.3c0,0.6-0.5,1.1-1.1,1.1H-556.2z"/>
		<path fill="#D7D7D7" d="M-555.8,431.8c0.4,0,0.8,0.4,0.8,0.8v6.3c0,0.4-0.4,0.8-0.8,0.8h-0.4c-0.4,0-0.8-0.4-0.8-0.8v-6.3
			c0-0.4,0.4-0.8,0.8-0.8H-555.8 M-555.8,431.3h-0.4c-0.7,0-1.3,0.6-1.3,1.3v6.3c0,0.7,0.6,1.3,1.3,1.3h0.4c0.7,0,1.3-0.6,1.3-1.3
			v-6.3C-554.5,431.8-555.1,431.3-555.8,431.3L-555.8,431.3z"/>
	</g>
</g>
<g>
	<circle fill-rule="evenodd" clip-rule="evenodd" fill="#FFFFFF" cx="-515.6" cy="439.1" r="3.2"/>
	<g>
		<path fill-rule="evenodd" clip-rule="evenodd" fill="#FFFFFF" d="M-515.8,439.9c-0.6,0-1.1-0.5-1.1-1.1v-6.3
			c0-0.6,0.5-1.1,1.1-1.1h0.4c0.6,0,1.1,0.5,1.1,1.1v6.3c0,0.6-0.5,1.1-1.1,1.1H-515.8z"/>
		<path fill="#D7D7D7" d="M-515.4,431.8c0.4,0,0.8,0.4,0.8,0.8v6.3c0,0.4-0.4,0.8-0.8,0.8h-0.4c-0.4,0-0.8-0.4-0.8-0.8v-6.3
			c0-0.4,0.4-0.8,0.8-0.8H-515.4 M-515.4,431.3h-0.4c-0.7,0-1.3,0.6-1.3,1.3v6.3c0,0.7,0.6,1.3,1.3,1.3h0.4c0.7,0,1.3-0.6,1.3-1.3
			v-6.3C-514.1,431.8-514.7,431.3-515.4,431.3L-515.4,431.3z"/>
	</g>
</g>
<g>
	<circle fill-rule="evenodd" clip-rule="evenodd" fill="#FFFFFF" cx="-536" cy="439.1" r="3.2"/>
	<g>
		<path fill-rule="evenodd" clip-rule="evenodd" fill="#FFFFFF" d="M-536.2,439.9c-0.6,0-1.1-0.5-1.1-1.1v-6.3
			c0-0.6,0.5-1.1,1.1-1.1h0.4c0.6,0,1.1,0.5,1.1,1.1v6.3c0,0.6-0.5,1.1-1.1,1.1H-536.2z"/>
		<path fill="#D7D7D7" d="M-535.8,431.8c0.4,0,0.8,0.4,0.8,0.8v6.3c0,0.4-0.4,0.8-0.8,0.8h-0.4c-0.4,0-0.8-0.4-0.8-0.8v-6.3
			c0-0.4,0.4-0.8,0.8-0.8H-535.8 M-535.8,431.3h-0.4c-0.7,0-1.3,0.6-1.3,1.3v6.3c0,0.7,0.6,1.3,1.3,1.3h0.4c0.7,0,1.3-0.6,1.3-1.3
			v-6.3C-534.5,431.8-535.1,431.3-535.8,431.3L-535.8,431.3z"/>
	</g>
</g>
<linearGradient id="SVGID_6_" gradientUnits="userSpaceOnUse" x1="-536.0048" y1="424.9583" x2="-536.0048" y2="433.5833">
	<stop  offset="0" style="stop-color:#F1F1F1"/>
	<stop  offset="0.9881" style="stop-color:#F0F0F0"/>
</linearGradient>
<rect x="-562.3" y="425" fill-rule="evenodd" clip-rule="evenodd" fill="url(#SVGID_6_)" width="52.6" height="8.6"/>
<circle fill-rule="evenodd" clip-rule="evenodd" fill="#C9C9C9" cx="-548.1" cy="428.9" r="3.5"/>
<circle fill-rule="evenodd" clip-rule="evenodd" fill="#C9C9C9" cx="-524" cy="428.9" r="3.5"/>
<linearGradient id="SVGID_7_" gradientUnits="userSpaceOnUse" x1="-536.0048" y1="406.7261" x2="-536.0048" y2="432.4131">
	<stop  offset="0" style="stop-color:#383838"/>
	<stop  offset="0.9929" style="stop-color:#1C1C1C"/>
</linearGradient>
<polygon fill-rule="evenodd" clip-rule="evenodd" fill="url(#SVGID_7_)" points="-509.7,406.7 -562.3,406.7 -562.3,424.9 
	-543.6,424.9 -543.6,432.4 -528.4,432.4 -528.4,424.9 -509.7,424.9 "/>
</svg>
