<?xml version="1.0" encoding="utf-8"?>
<!-- Generator: Adobe Illustrator 19.1.0, SVG Export Plug-In . SVG Version: 6.00 Build 0)  -->
<svg version="1.1" id="svg" xmlns:xml="http://www.w3.org/XML/1998/namespace"
	 xmlns="http://www.w3.org/2000/svg" xmlns:xlink="http://www.w3.org/1999/xlink" x="0px" y="0px" viewBox="-649.8 376 73.9 101.3"
	 enable-background="new -649.8 376 73.9 101.3" xml:space="preserve">
<path fill-rule="evenodd" clip-rule="evenodd" fill="#D7D7D7" d="M-579.9,376h-29.4c0,1.9-1.6,3.5-3.5,3.5c-1.9,0-3.5-1.6-3.5-3.5
	h-29.4c-2.2,0-4,1.8-4,4v93.3c0,2.2,1.8,4,4,4h65.9c2.2,0,4-1.8,4-4V380C-575.9,377.8-577.7,376-579.9,376z"/>
<g id="icon">
	<g>
		<g>
			<polygon fill="#0C0C0C" points="-617.9,391.8 -619.7,393.7 -606,393.7 -608,391.8 			"/>
			<rect x="-606.2" y="393.7" width="0.2" height="15.2"/>
			<rect x="-606.9" y="393.7" width="0.3" height="15.2"/>
			<polygon fill="#101010" points="-606.6,408.9 -606.2,408.9 -606.2,393.7 -607.6,392.2 -606.6,393.7 			"/>
			<polygon fill="#202020" points="-608.3,392.2 -607.6,393.7 -607.6,408.9 -606.9,408.9 -606.9,393.7 			"/>
			<rect x="-608" y="393.7" width="0.5" height="15.2"/>
			<rect x="-609.5" y="393.7" width="0.6" height="15.2"/>
			<polygon fill="#303030" points="-609.3,392.2 -608.9,393.7 -608.9,408.9 -608,408.9 -608,393.7 			"/>
			<polygon fill="#404040" points="-610.5,392.2 -610.5,393.7 -610.5,408.9 -609.5,408.9 -609.5,393.7 			"/>
			<rect x="-611.1" y="393.7" width="0.7" height="15.2"/>
			<rect x="-613" y="393.7" width="0.7" height="15.2"/>
			<polygon fill="#515151" points="-611.9,392.2 -612.3,393.7 -612.3,408.9 -611.1,408.9 -611.1,393.7 			"/>
			<polygon fill="#515151" points="-613.4,392.2 -614.2,393.7 -614.2,408.9 -613,408.9 -613,393.7 			"/>
			<rect x="-614.8" y="393.7" width="0.7" height="15.2"/>
			<rect x="-616.4" y="393.7" width="0.6" height="15.2"/>
			<polygon fill="#404040" points="-614.8,392.2 -615.9,393.7 -615.9,408.9 -614.8,408.9 -614.8,393.7 			"/>
			<polygon fill="#303030" points="-616.1,392.2 -617.3,393.7 -617.3,408.9 -616.4,408.9 -616.4,393.7 			"/>
			<rect x="-617.8" y="393.7" width="0.5" height="15.2"/>
			<rect x="-618.9" y="393.7" width="0.3" height="15.2"/>
			<polygon fill="#202020" points="-617.1,392.2 -618.5,393.7 -618.5,408.9 -617.8,408.9 -617.8,393.7 			"/>
			<polygon fill="#101010" points="-617.9,392.2 -619.3,393.7 -619.3,408.9 -618.9,408.9 -618.9,393.7 			"/>
			<rect x="-619.5" y="393.7" width="0.2" height="15.2"/>
			<rect x="-619.7" y="393.7" fill="#515151" width="0.2" height="15.2"/>
		</g>
		<rect x="-619.7" y="408.9" width="13.7" height="31.6"/>
		<rect x="-618.7" y="408.9" fill="#202020" width="11.6" height="31.6"/>
		<rect x="-614.6" y="408.9" fill="#353535" width="5.2" height="31.6"/>
		<rect x="-612.7" y="408.9" fill="#515151" width="1.5" height="31.6"/>
		<rect x="-613.5" y="391.8" fill="#0C0C0C" width="1.6" height="8.9"/>
		<rect x="-629.2" y="440.5" fill="#1E1E1E" width="32.8" height="14.3"/>
	</g>
	<rect x="-617.7" y="440.5" width="9.7" height="4.4"/>
	
		<line opacity="0.2" fill="none" stroke="#FFFFFF" stroke-width="0.1786" enable-background="new    " x1="-617.6" y1="445.4" x2="-608.1" y2="445.4"/>
	<rect x="-620.6" y="438.8" fill="#B3B3B3" width="15.5" height="0.9"/>
	<rect x="-629.2" y="439.8" fill="#999999" width="32.8" height="0.7"/>
	<rect x="-626.1" y="439.4" width="1.8" height="0.7"/>
	<rect x="-601.4" y="439.4" width="1.8" height="0.7"/>
	<rect x="-602.3" y="449.9" fill="#8C8C8C" width="3.7" height="11.9"/>
	<rect x="-614.7" y="449.9" fill="#8C8C8C" width="3.7" height="11.9"/>
	<rect x="-627" y="449.9" fill="#8C8C8C" width="3.7" height="11.9"/>
</g>
</svg>
