<?xml version="1.0" encoding="utf-8"?>
<!-- Generator: Adobe Illustrator 19.1.0, SVG Export Plug-In . SVG Version: 6.00 Build 0)  -->
<svg version="1.1" id="Capa_1" xmlns="http://www.w3.org/2000/svg" xmlns:xlink="http://www.w3.org/1999/xlink" x="0px" y="0px"
	 viewBox="-631.8 370 67.2 78.6" enable-background="new -631.8 370 67.2 78.6" xml:space="preserve">
<path fill-rule="evenodd" clip-rule="evenodd" fill="#D7D7D7" d="M-568.5,370h-59.2c-2.2,0-4,1.8-4,4v70.6c0,2.2,1.8,4,4,4h8.1
	c0-1.9,1.6-3.5,3.5-3.5s3.5,1.6,3.5,3.5h11c0-1.9,1.6-3.5,3.5-3.5s3.5,1.6,3.5,3.5h11.1c0-1.9,1.6-3.5,3.5-3.5s3.5,1.6,3.5,3.5h8
	c2.2,0,4-1.8,4-4V374C-564.5,371.7-566.3,370-568.5,370z"/>
<path fill="#BCBCBC" d="M-598.1,399.3L-598.1,399.3c-0.7,0-1.2-0.5-1.2-1.2v-2.4c0-0.7,0.5-1.2,1.2-1.2l0,0c0.7,0,1.2,0.5,1.2,1.2
	v2.4C-596.9,398.8-597.5,399.3-598.1,399.3z"/>
<path fill="#BCBCBC" d="M-605.2,399.3L-605.2,399.3c-0.7,0-1.2-0.5-1.2-1.2v-2.4c0-0.7,0.5-1.2,1.2-1.2l0,0c0.7,0,1.2,0.5,1.2,1.2
	v2.4C-604,398.8-604.6,399.3-605.2,399.3z"/>
<path fill="#BCBCBC" d="M-591,399.3L-591,399.3c-0.7,0-1.2-0.5-1.2-1.2v-2.4c0-0.7,0.5-1.2,1.2-1.2l0,0c0.7,0,1.2,0.5,1.2,1.2v2.4
	C-589.8,398.8-590.4,399.3-591,399.3z"/>
<path fill="#BCBCBC" d="M-598.1,425.3L-598.1,425.3c-0.7,0-1.2-0.5-1.2-1.2v-2.4c0-0.7,0.5-1.2,1.2-1.2l0,0c0.7,0,1.2,0.5,1.2,1.2
	v2.4C-596.9,424.8-597.5,425.3-598.1,425.3z"/>
<path fill="#BCBCBC" d="M-605.2,425.3L-605.2,425.3c-0.7,0-1.2-0.5-1.2-1.2v-2.4c0-0.7,0.5-1.2,1.2-1.2l0,0c0.7,0,1.2,0.5,1.2,1.2
	v2.4C-604,424.8-604.6,425.3-605.2,425.3z"/>
<path fill="#BCBCBC" d="M-591,425.3L-591,425.3c-0.7,0-1.2-0.5-1.2-1.2v-2.4c0-0.7,0.5-1.2,1.2-1.2l0,0c0.7,0,1.2,0.5,1.2,1.2v2.4
	C-589.8,424.8-590.4,425.3-591,425.3z"/>
<rect x="-609.8" y="399.1" fill="#A5A5A5" width="23.3" height="23.3"/>
<rect x="-609.8" y="398.1" fill="#FFFFFF" width="23.3" height="23.3"/>
<circle fill="#BFBFBF" cx="-598.1" cy="409.6" r="10"/>
<ellipse fill="#D7D7D7" cx="-598.1" cy="410.2" rx="10" ry="9.5"/>
<g>
	<defs>
		<ellipse id="SVGID_1_" cx="-598.1" cy="410.2" rx="10" ry="9.5"/>
	</defs>
	<clipPath id="SVGID_2_">
		<use xlink:href="#SVGID_1_"  overflow="visible"/>
	</clipPath>
	<g clip-path="url(#SVGID_2_)">
		<polygon fill="#FFFFFF" points="-602.9,401.4 -600.5,404.5 -601.6,413.3 -608,413.3 -608,414.4 -601.7,414.4 -601.8,414.9 
			-603.9,417.9 -603.2,418.4 -600.9,415.2 -599.6,404.2 -602.3,400.9 		"/>
		<polygon fill="#FFFFFF" points="-588.2,413.3 -594.9,413.3 -595.9,404.6 -593.5,401.6 -594.2,401 -596.8,404.3 -595.6,415.2 
			-595.5,415.3 -593.3,418.5 -592.6,418 -594.7,415 -594.8,414.4 -588.1,414.4 		"/>
	</g>
</g>
<path fill="#FFFFFF" d="M-607.6,388L-607.6,388c-0.8,0-1.5-0.7-1.5-1.5v-5.1c0-0.8,0.7-1.5,1.5-1.5l0,0c0.8,0,1.5,0.7,1.5,1.5v5.1
	C-606.2,387.4-606.8,388-607.6,388z"/>
<linearGradient id="SVGID_3_" gradientUnits="userSpaceOnUse" x1="-609.096" y1="383.9945" x2="-606.1567" y2="383.9945">
	<stop  offset="0" style="stop-color:#383838"/>
	<stop  offset="0.9929" style="stop-color:#1C1C1C"/>
</linearGradient>
<rect x="-609.1" y="381.4" fill="url(#SVGID_3_)" width="2.9" height="5.1"/>
<path fill="#FFFFFF" d="M-598.1,388L-598.1,388c-0.8,0-1.5-0.7-1.5-1.5v-5.1c0-0.8,0.7-1.5,1.5-1.5l0,0c0.8,0,1.5,0.7,1.5,1.5v5.1
	C-596.7,387.4-597.3,388-598.1,388z"/>
<linearGradient id="SVGID_4_" gradientUnits="userSpaceOnUse" x1="-599.6102" y1="383.9945" x2="-596.6708" y2="383.9945">
	<stop  offset="0" style="stop-color:#383838"/>
	<stop  offset="0.9929" style="stop-color:#1C1C1C"/>
</linearGradient>
<rect x="-599.6" y="381.4" fill="url(#SVGID_4_)" width="2.9" height="5.1"/>
<path fill="#FFFFFF" d="M-588.7,388L-588.7,388c-0.8,0-1.5-0.7-1.5-1.5v-5.1c0-0.8,0.7-1.5,1.5-1.5l0,0c0.8,0,1.5,0.7,1.5,1.5v5.1
	C-587.2,387.4-587.8,388-588.7,388z"/>
<linearGradient id="SVGID_5_" gradientUnits="userSpaceOnUse" x1="-590.1243" y1="383.9945" x2="-587.185" y2="383.9945">
	<stop  offset="0" style="stop-color:#383838"/>
	<stop  offset="0.9929" style="stop-color:#1C1C1C"/>
</linearGradient>
<rect x="-590.1" y="381.4" fill="url(#SVGID_5_)" width="2.9" height="5.1"/>
<g>
	<path fill="#5D6069" d="M-580.3,437.8h-1v2.2h-1.2v-6h2.2c0.7,0,1.3,0.2,1.7,0.5c0.4,0.3,0.6,0.8,0.6,1.3c0,0.4-0.1,0.8-0.3,1
		s-0.4,0.5-0.8,0.7l1.3,2.5v0.1h-1.3L-580.3,437.8z M-581.3,436.8h1c0.3,0,0.6-0.1,0.7-0.2c0.2-0.2,0.3-0.4,0.3-0.7
		c0-0.3-0.1-0.5-0.2-0.7c-0.2-0.2-0.4-0.2-0.7-0.2h-1V436.8z"/>
</g>
<g>
	<path fill="#5D6069" d="M-595.7,439.2c-0.2,0.3-0.5,0.5-1,0.6c-0.4,0.1-0.9,0.2-1.4,0.2c-0.5,0-1-0.1-1.4-0.3
		c-0.4-0.2-0.7-0.6-0.9-1c-0.2-0.4-0.3-0.9-0.3-1.5v-0.4c0-0.6,0.1-1.1,0.3-1.6s0.5-0.8,0.9-1c0.4-0.2,0.8-0.4,1.3-0.4
		c0.7,0,1.3,0.2,1.7,0.5c0.4,0.3,0.6,0.8,0.7,1.5h-1.2c-0.1-0.3-0.2-0.6-0.4-0.8s-0.5-0.2-0.8-0.2c-0.4,0-0.7,0.2-1,0.5
		s-0.3,0.8-0.3,1.4v0.4c0,0.6,0.1,1.1,0.4,1.4c0.2,0.3,0.6,0.5,1.1,0.5c0.5,0,0.8-0.1,1-0.3v-1h-1.1v-0.9h2.4V439.2z"/>
</g>
<g>
	<path fill="#5D6069" d="M-618.6,440v-6h2.1c0.7,0,1.3,0.1,1.7,0.4c0.4,0.3,0.6,0.7,0.6,1.2c0,0.3-0.1,0.6-0.2,0.8s-0.4,0.4-0.6,0.5
		c0.3,0.1,0.6,0.2,0.7,0.5s0.3,0.5,0.3,0.9c0,0.6-0.2,1-0.6,1.3c-0.4,0.3-0.9,0.5-1.6,0.5H-618.6z M-617.4,436.5h0.9
		c0.6,0,0.9-0.3,0.9-0.8c0-0.3-0.1-0.5-0.2-0.6c-0.2-0.1-0.4-0.2-0.8-0.2h-0.9V436.5z M-617.4,437.4v1.6h1.1c0.3,0,0.5-0.1,0.7-0.2
		c0.2-0.1,0.2-0.3,0.2-0.6c0-0.6-0.3-0.8-0.9-0.8H-617.4z"/>
</g>
</svg>
