<?xml version="1.0" encoding="utf-8"?>
<!-- Generator: Adobe Illustrator 19.1.0, SVG Export Plug-In . SVG Version: 6.00 Build 0)  -->
<svg version="1.1" id="svg" xmlns="http://www.w3.org/2000/svg" xmlns:xlink="http://www.w3.org/1999/xlink" x="0px" y="0px"
	 viewBox="-619.2 362.2 128.2 93.3" enable-background="new -619.2 362.2 128.2 93.3" xml:space="preserve">
<path fill-rule="evenodd" clip-rule="evenodd" fill="#D7D7D7" d="M-494.9,455.5h-120.2c-2.2,0-4-1.8-4-4v-85.3c0-2.2,1.8-4,4-4h34.6
	c0,1.9,1.6,3.5,3.5,3.5c1.9,0,3.5-1.6,3.5-3.5h35.9c0,1.9,1.6,3.5,3.5,3.5c1.9,0,3.5-1.6,3.5-3.5h35.7c2.2,0,4,1.8,4,4v85.3
	C-490.9,453.7-492.7,455.5-494.9,455.5z"/>
<linearGradient id="SVGID_1_" gradientUnits="userSpaceOnUse" x1="-589.6315" y1="387.9263" x2="-555.2826" y2="447.4202">
	<stop  offset="0" style="stop-color:#545454"/>
	<stop  offset="0.9998" style="stop-color:#333333"/>
</linearGradient>
<path fill-rule="evenodd" clip-rule="evenodd" fill="url(#SVGID_1_)" d="M-553.1,386.5c-2.3,0-4.2,1.9-4.2,4.2v5.5
	c-5.4-6-13.2-9.7-21.9-9.7c-16.3,0-29.5,13.2-29.5,29.5c0,16.3,13.2,29.5,29.5,29.5c8.7,0,16.5-3.8,21.9-9.7v5.5
	c0,2.3,1.9,4.2,4.2,4.2c2.3,0,4.2-1.9,4.2-4.2v-50.6C-548.8,388.4-550.8,386.5-553.1,386.5z"/>
<linearGradient id="SVGID_2_" gradientUnits="userSpaceOnUse" x1="-592.0615" y1="393.6768" x2="-566.3074" y2="438.2842">
	<stop  offset="0" style="stop-color:#FFFFFF"/>
	<stop  offset="1" style="stop-color:#C4C4C4"/>
</linearGradient>
<circle fill-rule="evenodd" clip-rule="evenodd" fill="url(#SVGID_2_)" cx="-579.2" cy="416" r="25.7"/>
<path opacity="0.2" fill-rule="evenodd" clip-rule="evenodd" fill="#101110" d="M-553.6,441.7h-0.1c-0.6,0-1.1-0.5-1.1-1.1v-49.2
	c0-0.6,0.5-1.1,1.1-1.1h0.1c0.6,0,1.1,0.5,1.1,1.1v49.2C-552.5,441.2-553,441.7-553.6,441.7z"/>
<g>
	<g opacity="0.75">
		<path fill="#FFFFFF" d="M-575.5,398.1h-3.1V395c0-0.4-0.3-0.6-0.6-0.6s-0.6,0.3-0.6,0.6v3.1h-3.1c-0.4,0-0.6,0.3-0.6,0.6
			c0,0.4,0.3,0.6,0.6,0.6h3.1v3.1c0,0.4,0.3,0.6,0.6,0.6s0.6-0.3,0.6-0.6v-3.1h3.1c0.4,0,0.6-0.3,0.6-0.6
			C-574.9,398.4-575.2,398.1-575.5,398.1z"/>
	</g>
	<g>
		<linearGradient id="SVGID_3_" gradientUnits="userSpaceOnUse" x1="-580.7159" y1="395.8967" x2="-576.8327" y2="402.6225">
			<stop  offset="0" style="stop-color:#BFBFBF"/>
			<stop  offset="1" style="stop-color:#A3A3A3"/>
		</linearGradient>
		<path fill="url(#SVGID_3_)" d="M-575,398.6h-3.1v-3.1c0-0.4-0.3-0.6-0.6-0.6s-0.6,0.3-0.6,0.6v3.1h-3.1c-0.4,0-0.6,0.3-0.6,0.6
			c0,0.4,0.3,0.6,0.6,0.6h3.1v3.1c0,0.4,0.3,0.6,0.6,0.6s0.6-0.3,0.6-0.6v-3.1h3.1c0.4,0,0.6-0.3,0.6-0.6
			C-574.4,398.9-574.7,398.6-575,398.6z"/>
	</g>
</g>
<g>
	<linearGradient id="SVGID_4_" gradientUnits="userSpaceOnUse" x1="-584.7874" y1="429.7344" x2="-581.0221" y2="436.2559">
		<stop  offset="0" style="stop-color:#ADADAD"/>
		<stop  offset="1" style="stop-color:#8C8C8C"/>
	</linearGradient>
	<path fill="url(#SVGID_4_)" d="M-581.6,432.9c0.3-0.2,0.6-0.4,0.8-0.7c0.2-0.3,0.3-0.6,0.3-1c0-0.7-0.2-1.2-0.6-1.6
		c-0.4-0.4-1-0.6-1.8-0.6c-0.5,0-0.9,0.1-1.2,0.3c-0.4,0.2-0.7,0.4-0.9,0.7c-0.2,0.3-0.3,0.7-0.3,1.1h1.3c0-0.3,0.1-0.6,0.3-0.8
		s0.5-0.3,0.8-0.3c0.4,0,0.7,0.1,0.9,0.3c0.2,0.2,0.3,0.5,0.3,0.8c0,0.4-0.1,0.7-0.3,0.9c-0.2,0.2-0.5,0.3-0.9,0.3h-0.8v1h0.7
		c0.5,0,0.8,0.1,1,0.3c0.2,0.2,0.4,0.5,0.4,0.9c0,0.4-0.1,0.7-0.3,0.9c-0.2,0.2-0.5,0.3-0.9,0.3c-0.4,0-0.7-0.1-0.9-0.3
		c-0.2-0.2-0.3-0.5-0.3-0.8h-1.3c0,0.6,0.2,1.2,0.7,1.5c0.5,0.4,1.1,0.6,1.8,0.6c0.8,0,1.4-0.2,1.8-0.6c0.5-0.4,0.7-0.9,0.7-1.6
		c0-0.4-0.1-0.8-0.3-1.1C-580.9,433.2-581.2,433-581.6,432.9z"/>
	<linearGradient id="SVGID_5_" gradientUnits="userSpaceOnUse" x1="-577.7842" y1="428.1152" x2="-573.5304" y2="435.4831">
		<stop  offset="0" style="stop-color:#ADADAD"/>
		<stop  offset="1" style="stop-color:#8C8C8C"/>
	</linearGradient>
	<polygon fill="url(#SVGID_5_)" points="-574.4,429.2 -576.3,435.1 -578.2,429.2 -579.7,429.2 -577,436.7 -575.7,436.7 -573,429.2 	
		"/>
</g>
<linearGradient id="SVGID_6_" gradientUnits="userSpaceOnUse" x1="-552.8193" y1="390.2307" x2="-552.8193" y2="441.7303">
	<stop  offset="0" style="stop-color:#FFDA3F"/>
	<stop  offset="1" style="stop-color:#FFB200"/>
</linearGradient>
<path fill-rule="evenodd" clip-rule="evenodd" fill="url(#SVGID_6_)" d="M-552.7,441.7h-0.1c-0.6,0-1.1-0.5-1.1-1.1v-49.2
	c0-0.6,0.5-1.1,1.1-1.1h0.1c0.6,0,1.1,0.5,1.1,1.1v49.2C-551.6,441.2-552.1,441.7-552.7,441.7z"/>
<linearGradient id="SVGID_7_" gradientUnits="userSpaceOnUse" x1="-521.125" y1="386.8773" x2="-521.125" y2="398.1273">
	<stop  offset="0" style="stop-color:#BDBDBD"/>
	<stop  offset="1" style="stop-color:#6E6E6E"/>
</linearGradient>
<path fill-rule="evenodd" clip-rule="evenodd" fill="url(#SVGID_7_)" d="M-538.2,386.9c-0.8,0-1.5,2.5-1.5,5.6
	c0,3.1,0.7,5.6,1.5,5.6h35.8v-11.2H-538.2z"/>
<linearGradient id="SVGID_8_" gradientUnits="userSpaceOnUse" x1="-502.5" y1="386.8773" x2="-502.5" y2="398.1273">
	<stop  offset="0" style="stop-color:#9C9C9C"/>
	<stop  offset="1" style="stop-color:#4D4D4D"/>
</linearGradient>
<ellipse fill-rule="evenodd" clip-rule="evenodd" fill="url(#SVGID_8_)" cx="-502.5" cy="392.5" rx="1.1" ry="5.6"/>
<path fill-rule="evenodd" clip-rule="evenodd" fill="#FFFFFF" d="M-536.4,429.1h-0.4c-0.4,0-0.8-0.4-0.8-0.8v-4.2
	c0-0.4,0.4-0.8,0.8-0.8h0.4c0.4,0,0.8,0.4,0.8,0.8v4.2C-535.6,428.8-535.9,429.1-536.4,429.1z"/>
<path fill-rule="evenodd" clip-rule="evenodd" fill="#FFFFFF" d="M-530.4,429.1h-0.4c-0.4,0-0.8-0.4-0.8-0.8v-4.2
	c0-0.4,0.4-0.8,0.8-0.8h0.4c0.4,0,0.8,0.4,0.8,0.8v4.2C-529.6,428.8-529.9,429.1-530.4,429.1z"/>
<path fill-rule="evenodd" clip-rule="evenodd" fill="#FFFFFF" d="M-524.4,429.1h-0.4c-0.4,0-0.8-0.4-0.8-0.8v-4.2
	c0-0.4,0.4-0.8,0.8-0.8h0.4c0.4,0,0.8,0.4,0.8,0.8v4.2C-523.6,428.8-523.9,429.1-524.4,429.1z"/>
<path fill-rule="evenodd" clip-rule="evenodd" fill="#FFFFFF" d="M-518.4,429.1h-0.4c-0.4,0-0.8-0.4-0.8-0.8v-4.2
	c0-0.4,0.4-0.8,0.8-0.8h0.4c0.4,0,0.8,0.4,0.8,0.8v4.2C-517.6,428.8-517.9,429.1-518.4,429.1z"/>
<path fill-rule="evenodd" clip-rule="evenodd" fill="#FFFFFF" d="M-536.4,410.8h-0.4c-0.4,0-0.8-0.4-0.8-0.8v-4.2
	c0-0.4,0.4-0.8,0.8-0.8h0.4c0.4,0,0.8,0.4,0.8,0.8v4.2C-535.6,410.4-535.9,410.8-536.4,410.8z"/>
<path fill-rule="evenodd" clip-rule="evenodd" fill="#FFFFFF" d="M-530.4,410.8h-0.4c-0.4,0-0.8-0.4-0.8-0.8v-4.2
	c0-0.4,0.4-0.8,0.8-0.8h0.4c0.4,0,0.8,0.4,0.8,0.8v4.2C-529.6,410.4-529.9,410.8-530.4,410.8z"/>
<path fill-rule="evenodd" clip-rule="evenodd" fill="#FFFFFF" d="M-524.4,410.8h-0.4c-0.4,0-0.8-0.4-0.8-0.8v-4.2
	c0-0.4,0.4-0.8,0.8-0.8h0.4c0.4,0,0.8,0.4,0.8,0.8v4.2C-523.6,410.4-523.9,410.8-524.4,410.8z"/>
<path fill-rule="evenodd" clip-rule="evenodd" fill="#FFFFFF" d="M-518.4,410.8h-0.4c-0.4,0-0.8-0.4-0.8-0.8v-4.2
	c0-0.4,0.4-0.8,0.8-0.8h0.4c0.4,0,0.8,0.4,0.8,0.8v4.2C-517.6,410.4-517.9,410.8-518.4,410.8z"/>
<linearGradient id="SVGID_9_" gradientUnits="userSpaceOnUse" x1="-527.6581" y1="409.7533" x2="-527.6581" y2="424.2533">
	<stop  offset="0" style="stop-color:#383838"/>
	<stop  offset="0.9929" style="stop-color:#1C1C1C"/>
</linearGradient>
<rect x="-538.6" y="409.8" fill-rule="evenodd" clip-rule="evenodd" fill="url(#SVGID_9_)" width="21.8" height="14.5"/>
<path fill="#FFFFFF" d="M-536.5,445.2L-536.5,445.2c-0.9,0-1.7-0.8-1.7-1.7v-6c0-0.9,0.8-1.7,1.7-1.7l0,0c0.9,0,1.7,0.8,1.7,1.7v6
	C-534.8,444.4-535.5,445.2-536.5,445.2z"/>
<linearGradient id="SVGID_10_" gradientUnits="userSpaceOnUse" x1="-538.1875" y1="440.4863" x2="-534.75" y2="440.4863">
	<stop  offset="0" style="stop-color:#383838"/>
	<stop  offset="0.9929" style="stop-color:#1C1C1C"/>
</linearGradient>
<rect x="-538.2" y="437.5" fill="url(#SVGID_10_)" width="3.4" height="6"/>
<path fill="#FFFFFF" d="M-529.6,445.2L-529.6,445.2c-0.9,0-1.7-0.8-1.7-1.7v-6c0-0.9,0.8-1.7,1.7-1.7l0,0c0.9,0,1.7,0.8,1.7,1.7v6
	C-527.9,444.4-528.7,445.2-529.6,445.2z"/>
<linearGradient id="SVGID_11_" gradientUnits="userSpaceOnUse" x1="-531.3474" y1="440.4863" x2="-527.9099" y2="440.4863">
	<stop  offset="0" style="stop-color:#383838"/>
	<stop  offset="0.9929" style="stop-color:#1C1C1C"/>
</linearGradient>
<rect x="-531.3" y="437.5" fill="url(#SVGID_11_)" width="3.4" height="6"/>
<path fill="#FFFFFF" d="M-522.8,445.2L-522.8,445.2c-0.9,0-1.7-0.8-1.7-1.7v-6c0-0.9,0.8-1.7,1.7-1.7l0,0c0.9,0,1.7,0.8,1.7,1.7v6
	C-521.1,444.4-521.8,445.2-522.8,445.2z"/>
<linearGradient id="SVGID_12_" gradientUnits="userSpaceOnUse" x1="-524.5073" y1="440.4863" x2="-521.0698" y2="440.4863">
	<stop  offset="0" style="stop-color:#383838"/>
	<stop  offset="0.9929" style="stop-color:#1C1C1C"/>
</linearGradient>
<rect x="-524.5" y="437.5" fill="url(#SVGID_12_)" width="3.4" height="6"/>
<path fill="#FFFFFF" d="M-515.9,445.2L-515.9,445.2c-0.9,0-1.7-0.8-1.7-1.7v-6c0-0.9,0.8-1.7,1.7-1.7l0,0c0.9,0,1.7,0.8,1.7,1.7v6
	C-514.2,444.4-515,445.2-515.9,445.2z"/>
<linearGradient id="SVGID_13_" gradientUnits="userSpaceOnUse" x1="-517.6672" y1="440.4863" x2="-514.2297" y2="440.4863">
	<stop  offset="0" style="stop-color:#383838"/>
	<stop  offset="0.9929" style="stop-color:#1C1C1C"/>
</linearGradient>
<rect x="-517.7" y="437.5" fill="url(#SVGID_13_)" width="3.4" height="6"/>
<path fill="#FFFFFF" d="M-509.1,445.2L-509.1,445.2c-0.9,0-1.7-0.8-1.7-1.7v-6c0-0.9,0.8-1.7,1.7-1.7l0,0c0.9,0,1.7,0.8,1.7,1.7v6
	C-507.4,444.4-508.2,445.2-509.1,445.2z"/>
<linearGradient id="SVGID_14_" gradientUnits="userSpaceOnUse" x1="-510.8271" y1="440.4863" x2="-507.3896" y2="440.4863">
	<stop  offset="0" style="stop-color:#383838"/>
	<stop  offset="0.9929" style="stop-color:#1C1C1C"/>
</linearGradient>
<rect x="-510.8" y="437.5" fill="url(#SVGID_14_)" width="3.4" height="6"/>
<path fill="#FFFFFF" d="M-510.8,421.7L-510.8,421.7c-0.9,0-1.7-0.8-1.7-1.7v-6c0-0.9,0.8-1.7,1.7-1.7l0,0c0.9,0,1.7,0.8,1.7,1.7v6
	C-509.1,421-509.9,421.7-510.8,421.7z"/>
<linearGradient id="SVGID_15_" gradientUnits="userSpaceOnUse" x1="-512.5459" y1="417.0033" x2="-509.1084" y2="417.0033">
	<stop  offset="0" style="stop-color:#383838"/>
	<stop  offset="0.9929" style="stop-color:#1C1C1C"/>
</linearGradient>
<rect x="-512.5" y="414" fill="url(#SVGID_15_)" width="3.4" height="6"/>
<g>
	<path fill="#5D6069" d="M-580.6,375.4c0-0.2-0.1-0.4-0.2-0.5s-0.5-0.3-0.9-0.4s-0.8-0.3-1-0.4c-0.7-0.4-1-0.9-1-1.5
		c0-0.3,0.1-0.6,0.3-0.9c0.2-0.3,0.4-0.5,0.8-0.6s0.7-0.2,1.2-0.2c0.4,0,0.8,0.1,1.2,0.2c0.3,0.2,0.6,0.4,0.8,0.7
		c0.2,0.3,0.3,0.6,0.3,1h-1.2c0-0.3-0.1-0.5-0.3-0.6c-0.2-0.2-0.4-0.2-0.7-0.2c-0.3,0-0.5,0.1-0.7,0.2c-0.2,0.1-0.3,0.3-0.3,0.5
		c0,0.2,0.1,0.4,0.3,0.5c0.2,0.1,0.5,0.3,0.9,0.4c0.7,0.2,1.2,0.5,1.5,0.8c0.3,0.3,0.5,0.7,0.5,1.2c0,0.5-0.2,0.9-0.6,1.2
		c-0.4,0.3-0.9,0.4-1.6,0.4c-0.5,0-0.9-0.1-1.3-0.3c-0.4-0.2-0.7-0.4-0.9-0.7c-0.2-0.3-0.3-0.6-0.3-1h1.2c0,0.7,0.4,1,1.2,1
		c0.3,0,0.5-0.1,0.7-0.2S-580.6,375.7-580.6,375.4z"/>
	<path fill="#5D6069" d="M-578.5,377v-6h1.9c0.5,0,1,0.1,1.4,0.4c0.4,0.2,0.7,0.6,1,1c0.2,0.4,0.4,0.9,0.4,1.5v0.3
		c0,0.6-0.1,1.1-0.3,1.5c-0.2,0.4-0.6,0.8-1,1s-0.9,0.4-1.4,0.4H-578.5z M-577.2,372v4h0.6c0.5,0,0.9-0.2,1.1-0.5s0.4-0.8,0.4-1.4
		v-0.3c0-0.6-0.1-1.1-0.4-1.4c-0.3-0.3-0.6-0.5-1.1-0.5H-577.2z"/>
	<path fill="#5D6069" d="M-569.6,375.8h-2.2l-0.4,1.2h-1.3l2.2-6h1.2l2.3,6h-1.3L-569.6,375.8z M-571.5,374.8h1.5l-0.8-2.3
		L-571.5,374.8z"/>
</g>
<g>
	<path fill="#5D6069" d="M-537.3,375.4c0-0.2-0.1-0.4-0.2-0.5s-0.5-0.3-0.9-0.4s-0.8-0.3-1-0.4c-0.7-0.4-1-0.9-1-1.5
		c0-0.3,0.1-0.6,0.3-0.9c0.2-0.3,0.4-0.5,0.8-0.6s0.7-0.2,1.2-0.2c0.4,0,0.8,0.1,1.2,0.2c0.3,0.2,0.6,0.4,0.8,0.7
		c0.2,0.3,0.3,0.6,0.3,1h-1.2c0-0.3-0.1-0.5-0.3-0.6c-0.2-0.2-0.4-0.2-0.7-0.2c-0.3,0-0.5,0.1-0.7,0.2c-0.2,0.1-0.3,0.3-0.3,0.5
		c0,0.2,0.1,0.4,0.3,0.5c0.2,0.1,0.5,0.3,0.9,0.4c0.7,0.2,1.2,0.5,1.5,0.8c0.3,0.3,0.5,0.7,0.5,1.2c0,0.5-0.2,0.9-0.6,1.2
		c-0.4,0.3-0.9,0.4-1.6,0.4c-0.5,0-0.9-0.1-1.3-0.3c-0.4-0.2-0.7-0.4-0.9-0.7c-0.2-0.3-0.3-0.6-0.3-1h1.2c0,0.7,0.4,1,1.2,1
		c0.3,0,0.5-0.1,0.7-0.2S-537.3,375.7-537.3,375.4z"/>
	<path fill="#5D6069" d="M-530.5,375c0,0.7-0.3,1.2-0.7,1.5c-0.4,0.4-1,0.6-1.7,0.6c-0.8,0-1.4-0.3-1.8-0.8
		c-0.4-0.5-0.7-1.2-0.7-2.1v-0.4c0-0.6,0.1-1.1,0.3-1.5c0.2-0.4,0.5-0.8,0.9-1c0.4-0.2,0.8-0.4,1.3-0.4c0.7,0,1.3,0.2,1.7,0.6
		c0.4,0.4,0.7,0.9,0.7,1.6h-1.2c0-0.4-0.1-0.7-0.3-0.8s-0.5-0.3-0.9-0.3c-0.4,0-0.7,0.1-0.9,0.4c-0.2,0.3-0.3,0.8-0.3,1.4v0.5
		c0,0.7,0.1,1.1,0.3,1.4c0.2,0.3,0.5,0.5,0.9,0.5c0.4,0,0.7-0.1,0.9-0.3s0.3-0.4,0.3-0.8H-530.5z"/>
	<path fill="#5D6069" d="M-528.4,376h2.6v1h-3.9v-6h1.2V376z"/>
</g>
</svg>
