<?xml version="1.0" encoding="utf-8"?>
<!-- Generator: Adobe Illustrator 18.1.1, SVG Export Plug-In . SVG Version: 6.00 Build 0)  -->
<svg version="1.1"
	 id="Ebene_1" xmlns:cc="http://creativecommons.org/ns#" xmlns:rdf="http://www.w3.org/1999/02/22-rdf-syntax-ns#" xmlns:svg="http://www.w3.org/2000/svg" xmlns:dc="http://purl.org/dc/elements/1.1/"
	 xmlns="http://www.w3.org/2000/svg" xmlns:xlink="http://www.w3.org/1999/xlink" x="0px" y="0px" viewBox="-583 344.3 123.5 104.5"
	 enable-background="new -583 344.3 123.5 104.5" xml:space="preserve">
<path fill-rule="evenodd" clip-rule="evenodd" fill="#D7D7D7" d="M-463.6,344.3H-579c-2.2,0-4,1.8-4,4v96.5c0,2.2,1.8,4,4,4h54.2
	c0-1.9,1.6-3.5,3.5-3.5s3.5,1.6,3.5,3.5h54.2c2.2,0,4-1.8,4-4v-96.5C-459.6,346.1-461.4,344.3-463.6,344.3z"/>
<g id="breadboard" transform="translate(-0.555968,45.0334)">
	<path id="path7_2_" fill="none" stroke="#000000" stroke-width="3" d="M-488.5,374.1c0,0,5.8,2.1,8.8,7"/>
	<path id="path9_2_" fill="none" stroke="#FF0000" stroke-width="3" d="M-488.4,371.8c3.3,0,6.1,2,11.2,7.6"/>
	<path id="path11_2_" fill="none" stroke="#FFFF00" stroke-width="3" d="M-488.5,369.6c4.7,0,7.4,0.3,13.4,8.4"/>
	<linearGradient id="polygon13_2_" gradientUnits="userSpaceOnUse" x1="-542.0159" y1="335.4707" x2="-506.1082" y2="397.6648">
		<stop  offset="0" style="stop-color:#525252"/>
		<stop  offset="1" style="stop-color:#0A0A0A"/>
	</linearGradient>
	<polyline id="polygon13_1_" fill="url(#polygon13_2_)" points="-491.5,360.5 -491.5,389.3 -556.6,389.3 -556.6,360.5 -556.6,359 
		-556.6,343.9 -491.5,343.9 -491.5,359 	"/>
	<linearGradient id="polygon19_1_" gradientUnits="userSpaceOnUse" x1="-561.1198" y1="334.8054" x2="-487.0059" y2="334.8054">
		<stop  offset="0" style="stop-color:#A1A1A1"/>
		<stop  offset="1" style="stop-color:#666666"/>
	</linearGradient>
	<polygon id="polygon19" fill="url(#polygon19_1_)" points="-556.6,343.9 -561.1,339.3 -561.1,330.3 -556.6,325.7 -491.5,325.7 
		-487,330.3 -487,339.3 -491.5,343.9 	"/>
	<linearGradient id="SVGID_1_" gradientUnits="userSpaceOnUse" x1="-558.8508" y1="339.343" x2="-558.8508" y2="389.2552">
		<stop  offset="0" style="stop-color:#808080"/>
		<stop  offset="1" style="stop-color:#292929"/>
	</linearGradient>
	<polygon fill="url(#SVGID_1_)" points="-561.1,339.3 -561.1,360.5 -561.1,361.3 -561.1,384.7 -556.6,389.3 -556.6,362.4 
		-556.6,360.5 -556.6,343.9 	"/>
	<linearGradient id="SVGID_2_" gradientUnits="userSpaceOnUse" x1="-489.2741" y1="339.343" x2="-489.2741" y2="389.2552">
		<stop  offset="0" style="stop-color:#212121"/>
		<stop  offset="1" style="stop-color:#050505"/>
	</linearGradient>
	<polygon fill="url(#SVGID_2_)" points="-491.5,343.9 -491.5,360.5 -491.5,361.6 -491.5,389.3 -487,384.7 -487,361.6 -487,360.5 
		-487,339.3 	"/>
	<path id="path29" fill="#5B5B5B" d="M-534.6,337.2c-5.3,2.9-11.2,1.2-13.4-0.1c-2.2-1.4-15.4-12.6-17.2-13.7
		c-1.8-1.1-1.6-2.7-1.6-5c0-2.9,1.4,2.2,4.5,3.5c3,1.4,30.5,4.8,30.5,9.8C-531.8,333.3-531.2,335.3-534.6,337.2z"/>
	<path id="path31" fill="#353535" d="M-534.6,335.7c-5.1,3.3-11.2,1.2-13.4-0.1c-2.2-1.4-15.4-12.6-17.2-13.7
		c-1.8-1.1-2.5-4.4-0.1-6c2.4-1.6,5.8-0.7,8.8,0.7c3,1.4,15.7,6.7,20,9.3C-532.2,328.4-529.6,332.3-534.6,335.7z M-561.2,320.4
		c2.1,0,3.9-0.9,3.9-1.9s-1.7-1.9-3.9-1.9s-3.9,0.9-3.9,1.9S-563.3,320.4-561.2,320.4z"/>
	<g id="g33">
		<path id="path35" fill="#848484" d="M-557.4,318.9c-0.4-0.9-1.9-1.5-3.8-1.5c-1.8,0-3.4,0.6-3.8,1.5l0,0c-0.1-0.1-0.1-0.3-0.1-0.4
			c0-1.1,1.7-1.9,3.9-1.9s3.9,0.9,3.9,1.9C-557.4,318.6-557.4,318.8-557.4,318.9L-557.4,318.9z"/>
	</g>
	<g id="g37">
		<ellipse id="ellipse39" fill="#7F7F7F" cx="-541.4" cy="330.9" rx="6.5" ry="3.6"/>
		<g id="g41">
			<path id="path43" fill="#606060" d="M-547.8,330.9c0.6,1.6,3.2,2.7,6.3,2.7c3.1,0,5.8-1.2,6.4-2.7h0c0.1,0.2,0.2,0.5,0.2,0.7
				c0,1.9-2.9,3.5-6.5,3.5s-6.5-1.6-6.5-3.5C-547.9,331.4-547.9,331.1-547.8,330.9L-547.8,330.9z"/>
		</g>
	</g>
	<path fill="#FFFFFF" d="M-517.9,358.1l-1.3,2.1c2.1,1.5,3.5,4,3.5,6.7c0,4.6-3.7,8.3-8.3,8.3c-4.6,0-8.3-3.7-8.3-8.3
		c0-3.8,2.5-7,6-8v1.7c0,0.7,0.9,0.8,1.2,0.5l3.1-3.1c0.3-0.3,0.3-0.9,0-1.2l-3.1-3.1c-0.3-0.3-1.1-0.3-1.2,0.6v2.1
		c-4.8,1.1-8.4,5.3-8.4,10.5c0,5.9,4.8,10.7,10.7,10.7s10.7-4.8,10.7-10.7C-513.3,363.3-515.2,360.1-517.9,358.1z"/>
</g>
</svg>
