<?xml version="1.0" encoding="utf-8"?>
<!-- Generator: Adobe Illustrator 19.1.0, SVG Export Plug-In . SVG Version: 6.00 Build 0)  -->
<svg version="1.1" id="svg2" xmlns="http://www.w3.org/2000/svg" xmlns:xlink="http://www.w3.org/1999/xlink" x="0px" y="0px"
	 viewBox="-586.2 383.7 100.3 101.9" enable-background="new -586.2 383.7 100.3 101.9" xml:space="preserve">
<path fill-rule="evenodd" clip-rule="evenodd" fill="#D7D7D7" d="M-489.8,387.7h-23v32.6h-46.4v-32.6h-23c-2.2,0-4,1.8-4,4v89.9
	c0,2.2,1.8,4,4,4h42.6c0-1.9,1.6-3.5,3.5-3.5c1.9,0,3.5,1.6,3.5,3.5h42.7c2.2,0,4-1.8,4-4v-89.9
	C-485.8,389.5-487.6,387.7-489.8,387.7z"/>
<linearGradient id="SVGID_1_" gradientUnits="userSpaceOnUse" x1="-558.0048" y1="401.4703" x2="-514.0048" y2="401.4703">
	<stop  offset="0" style="stop-color:#787878"/>
	<stop  offset="0.5072" style="stop-color:#E0E0E0"/>
	<stop  offset="1" style="stop-color:#787878"/>
</linearGradient>
<path fill="url(#SVGID_1_)" d="M-514,387.9c0,0,0-4.2-22-4.2s-22,4.2-22,4.2v31.3c0,0,0-4.2,22-4.2s22,4.2,22,4.2V387.9z"/>
<linearGradient id="SVGID_2_" gradientUnits="userSpaceOnUse" x1="-536.0331" y1="414.887" x2="-536.0331" y2="419.2203">
	<stop  offset="0" style="stop-color:#ADADAD"/>
	<stop  offset="0.9977" style="stop-color:#424242"/>
</linearGradient>
<path fill="url(#SVGID_2_)" d="M-514.1,419.2c0-2.4-8-4.3-21.9-4.3c-22,0-22,4.3-22,4.3H-514.1z"/>
<g>
	<linearGradient id="SVGID_3_" gradientUnits="userSpaceOnUse" x1="-520.984" y1="451.0625" x2="-520.984" y2="455.25">
		<stop  offset="0" style="stop-color:#B8B8B8"/>
		<stop  offset="1" style="stop-color:#6E6E6E"/>
	</linearGradient>
	<polygon fill="url(#SVGID_3_)" points="-525.1,455.2 -521,451.1 -516.9,455.2 	"/>
	
		<linearGradient id="SVGID_4_" gradientUnits="userSpaceOnUse" x1="-520.984" y1="407.1042" x2="-520.984" y2="411.2917" gradientTransform="matrix(1 0 0 -1 0 858.1667)">
		<stop  offset="0" style="stop-color:#B8B8B8"/>
		<stop  offset="1" style="stop-color:#6E6E6E"/>
	</linearGradient>
	<polygon fill="url(#SVGID_4_)" points="-525.1,446.9 -521,451.1 -516.9,446.9 	"/>
	
		<linearGradient id="SVGID_5_" gradientUnits="userSpaceOnUse" x1="-515.125" y1="445.2035" x2="-515.125" y2="449.3076" gradientTransform="matrix(4.489700e-11 1 1 -4.489700e-11 -966.1875 966.1875)">
		<stop  offset="0" style="stop-color:#B8B8B8"/>
		<stop  offset="1" style="stop-color:#6E6E6E"/>
	</linearGradient>
	<polygon fill="url(#SVGID_5_)" points="-516.9,446.9 -521,451.1 -516.9,455.2 	"/>
	
		<linearGradient id="SVGID_6_" gradientUnits="userSpaceOnUse" x1="-515.125" y1="396.2549" x2="-515.125" y2="400.359" gradientTransform="matrix(-8.979300e-11 1 -1 -8.979300e-11 -124.7083 966.1875)">
		<stop  offset="0" style="stop-color:#B8B8B8"/>
		<stop  offset="1" style="stop-color:#6E6E6E"/>
	</linearGradient>
	<polygon fill="url(#SVGID_6_)" points="-525.1,446.9 -521,451.1 -525.1,455.2 	"/>
</g>
<g>
	<linearGradient id="SVGID_7_" gradientUnits="userSpaceOnUse" x1="-520.984" y1="466.9375" x2="-520.984" y2="471.125">
		<stop  offset="0" style="stop-color:#B8B8B8"/>
		<stop  offset="1" style="stop-color:#6E6E6E"/>
	</linearGradient>
	<polygon fill="url(#SVGID_7_)" points="-525.1,471.1 -521,466.9 -516.9,471.1 	"/>
	
		<linearGradient id="SVGID_8_" gradientUnits="userSpaceOnUse" x1="-520.984" y1="391.2292" x2="-520.984" y2="395.4167" gradientTransform="matrix(1 0 0 -1 0 858.1667)">
		<stop  offset="0" style="stop-color:#B8B8B8"/>
		<stop  offset="1" style="stop-color:#6E6E6E"/>
	</linearGradient>
	<polygon fill="url(#SVGID_8_)" points="-525.1,462.8 -521,466.9 -516.9,462.8 	"/>
	
		<linearGradient id="SVGID_9_" gradientUnits="userSpaceOnUse" x1="-499.25" y1="445.2035" x2="-499.25" y2="449.3076" gradientTransform="matrix(4.489700e-11 1 1 -4.489700e-11 -966.1875 966.1875)">
		<stop  offset="0" style="stop-color:#B8B8B8"/>
		<stop  offset="1" style="stop-color:#6E6E6E"/>
	</linearGradient>
	<polygon fill="url(#SVGID_9_)" points="-516.9,462.8 -521,466.9 -516.9,471.1 	"/>
	
		<linearGradient id="SVGID_10_" gradientUnits="userSpaceOnUse" x1="-499.25" y1="396.2549" x2="-499.25" y2="400.359" gradientTransform="matrix(-8.979300e-11 1 -1 -8.979300e-11 -124.7083 966.1875)">
		<stop  offset="0" style="stop-color:#B8B8B8"/>
		<stop  offset="1" style="stop-color:#6E6E6E"/>
	</linearGradient>
	<polygon fill="url(#SVGID_10_)" points="-525.1,462.8 -521,466.9 -525.1,471.1 	"/>
</g>
<g>
	<linearGradient id="SVGID_11_" gradientUnits="userSpaceOnUse" x1="-528.0464" y1="430.4693" x2="-528.0464" y2="434.6568">
		<stop  offset="0" style="stop-color:#B8B8B8"/>
		<stop  offset="1" style="stop-color:#6E6E6E"/>
	</linearGradient>
	<polygon fill="url(#SVGID_11_)" points="-532.1,434.7 -528,430.5 -524,434.7 	"/>
	
		<linearGradient id="SVGID_12_" gradientUnits="userSpaceOnUse" x1="-528.0464" y1="427.6973" x2="-528.0464" y2="431.8848" gradientTransform="matrix(1 0 0 -1 0 858.1667)">
		<stop  offset="0" style="stop-color:#B8B8B8"/>
		<stop  offset="1" style="stop-color:#6E6E6E"/>
	</linearGradient>
	<polygon fill="url(#SVGID_12_)" points="-532.1,426.3 -528,430.5 -524,426.3 	"/>
	
		<linearGradient id="SVGID_13_" gradientUnits="userSpaceOnUse" x1="-535.7181" y1="438.141" x2="-535.7181" y2="442.2452" gradientTransform="matrix(4.489700e-11 1 1 -4.489700e-11 -966.1875 966.1875)">
		<stop  offset="0" style="stop-color:#B8B8B8"/>
		<stop  offset="1" style="stop-color:#6E6E6E"/>
	</linearGradient>
	<polygon fill="url(#SVGID_13_)" points="-523.9,426.3 -528,430.5 -523.9,434.7 	"/>
	
		<linearGradient id="SVGID_14_" gradientUnits="userSpaceOnUse" x1="-535.7181" y1="403.3173" x2="-535.7181" y2="407.4215" gradientTransform="matrix(-8.979300e-11 1 -1 -8.979300e-11 -124.7083 966.1875)">
		<stop  offset="0" style="stop-color:#B8B8B8"/>
		<stop  offset="1" style="stop-color:#6E6E6E"/>
	</linearGradient>
	<polygon fill="url(#SVGID_14_)" points="-532.1,426.3 -528,430.5 -532.1,434.7 	"/>
</g>
<g>
	<linearGradient id="SVGID_15_" gradientUnits="userSpaceOnUse" x1="-543.9839" y1="430.4693" x2="-543.9839" y2="434.6568">
		<stop  offset="0" style="stop-color:#B8B8B8"/>
		<stop  offset="1" style="stop-color:#6E6E6E"/>
	</linearGradient>
	<polygon fill="url(#SVGID_15_)" points="-548.1,434.7 -544,430.5 -539.9,434.7 	"/>
	
		<linearGradient id="SVGID_16_" gradientUnits="userSpaceOnUse" x1="-543.9839" y1="427.6973" x2="-543.9839" y2="431.8848" gradientTransform="matrix(1 0 0 -1 0 858.1667)">
		<stop  offset="0" style="stop-color:#B8B8B8"/>
		<stop  offset="1" style="stop-color:#6E6E6E"/>
	</linearGradient>
	<polygon fill="url(#SVGID_16_)" points="-548.1,426.3 -544,430.5 -539.9,426.3 	"/>
	
		<linearGradient id="SVGID_17_" gradientUnits="userSpaceOnUse" x1="-535.7181" y1="422.2035" x2="-535.7181" y2="426.3077" gradientTransform="matrix(4.489700e-11 1 1 -4.489700e-11 -966.1875 966.1875)">
		<stop  offset="0" style="stop-color:#B8B8B8"/>
		<stop  offset="1" style="stop-color:#6E6E6E"/>
	</linearGradient>
	<polygon fill="url(#SVGID_17_)" points="-539.9,426.3 -544,430.5 -539.9,434.7 	"/>
	
		<linearGradient id="SVGID_18_" gradientUnits="userSpaceOnUse" x1="-535.7181" y1="419.2548" x2="-535.7181" y2="423.359" gradientTransform="matrix(-8.979300e-11 1 -1 -8.979300e-11 -124.7083 966.1875)">
		<stop  offset="0" style="stop-color:#B8B8B8"/>
		<stop  offset="1" style="stop-color:#6E6E6E"/>
	</linearGradient>
	<polygon fill="url(#SVGID_18_)" points="-548.1,426.3 -544,430.5 -548.1,434.7 	"/>
</g>
<radialGradient id="SVGID_19_" cx="-536.0048" cy="444.125" r="3.875" gradientUnits="userSpaceOnUse">
	<stop  offset="0" style="stop-color:#B8B8B8"/>
	<stop  offset="1" style="stop-color:#6E6E6E"/>
</radialGradient>
<circle fill="url(#SVGID_19_)" cx="-536" cy="444.1" r="3.9"/>
<radialGradient id="SVGID_20_" cx="-550.7548" cy="451.875" r="3.875" gradientUnits="userSpaceOnUse">
	<stop  offset="0" style="stop-color:#B8B8B8"/>
	<stop  offset="1" style="stop-color:#6E6E6E"/>
</radialGradient>
<circle fill="url(#SVGID_20_)" cx="-550.8" cy="451.9" r="3.9"/>
<radialGradient id="SVGID_21_" cx="-550.7548" cy="467.25" r="3.875" gradientUnits="userSpaceOnUse">
	<stop  offset="0" style="stop-color:#B8B8B8"/>
	<stop  offset="1" style="stop-color:#6E6E6E"/>
</radialGradient>
<circle fill="url(#SVGID_21_)" cx="-550.8" cy="467.2" r="3.9"/>
<radialGradient id="SVGID_22_" cx="-536.0048" cy="467.25" r="3.875" gradientUnits="userSpaceOnUse">
	<stop  offset="0" style="stop-color:#B8B8B8"/>
	<stop  offset="1" style="stop-color:#6E6E6E"/>
</radialGradient>
<circle fill="url(#SVGID_22_)" cx="-536" cy="467.2" r="3.9"/>
<path fill="#383838" d="M-514,388.1c0-0.1,0-0.5-0.4-1c-1.1-1.3-5.4-3.4-21.6-3.4c-15.4,0-20.3,1.8-21.6,3.3c-0.4,0.5-0.4,0.9-0.4,1
	c0,0.2,0,1.4,0,1.6l0.7-0.6c0,0,0.6-0.5,0.7-0.5c0,0,5-2.8,20.7-2.8c14.9,0,19.2,1.7,20.5,2.7c0,0,0.6,0.4,0.7,0.4l0.9,0.7
	C-514,389.5-514,388.3-514,388.1z"/>
</svg>
