<?xml version="1.0" encoding="utf-8"?>
<!-- Generator: Adobe Illustrator 19.1.0, SVG Export Plug-In . SVG Version: 6.00 Build 0)  -->
<svg version="1.1" id="svg2" xmlns="http://www.w3.org/2000/svg" xmlns:xlink="http://www.w3.org/1999/xlink" x="0px" y="0px"
	 viewBox="-561.7 351.6 102 66.9" enable-background="new -561.7 351.6 102 66.9" xml:space="preserve">
<path fill-rule="evenodd" clip-rule="evenodd" fill="#D7D7D7" d="M-463.7,351.6h-94c-2.2,0-4,1.8-4,4v58.9c0,2.2,1.8,4,4,4h26.6
	c0-1.9,1.6-3.5,3.5-3.5c1.9,0,3.5,1.6,3.5,3.5h27c0-1.9,1.6-3.5,3.5-3.5c1.9,0,3.5,1.6,3.5,3.5h26.3c2.2,0,4-1.8,4-4v-58.9
	C-459.7,353.4-461.5,351.6-463.7,351.6z"/>
<g>
	<path fill="#5D6069" d="M-528.8,404.9h-1.7v4.7h-1.2v-4.7h-1.7V404h4.6V404.9z"/>
	<path fill="#5D6069" d="M-526,407.6h-0.9v2.1h-1.2V404h2.1c0.7,0,1.2,0.1,1.6,0.4s0.5,0.7,0.5,1.3c0,0.4-0.1,0.7-0.3,1
		s-0.4,0.5-0.8,0.6l1.2,2.3v0.1h-1.3L-526,407.6z M-526.9,406.7h0.9c0.3,0,0.5-0.1,0.7-0.2s0.2-0.4,0.2-0.6c0-0.3-0.1-0.5-0.2-0.6
		s-0.4-0.2-0.7-0.2h-0.9V406.7z"/>
	<path fill="#5D6069" d="M-521.7,409.7h-1.2V404h1.2V409.7z"/>
</g>
<g>
	<path fill="#5D6069" d="M-497.1,407.2h-2.2v1.5h2.6v0.9h-3.8V404h3.8v0.9h-2.6v1.4h2.2V407.2z"/>
	<path fill="#5D6069" d="M-491.6,407.8c0,0.6-0.3,1.1-0.7,1.4s-0.9,0.5-1.6,0.5c-0.7,0-1.3-0.2-1.7-0.7s-0.6-1.2-0.6-2v-0.3
		c0-0.5,0.1-1,0.3-1.4s0.5-0.7,0.8-1s0.8-0.3,1.2-0.3c0.7,0,1.2,0.2,1.6,0.5s0.6,0.8,0.7,1.5h-1.2c0-0.4-0.1-0.6-0.3-0.8
		s-0.4-0.2-0.8-0.2c-0.4,0-0.7,0.1-0.9,0.4s-0.3,0.7-0.3,1.3v0.4c0,0.6,0.1,1.1,0.3,1.3s0.5,0.4,0.9,0.4c0.4,0,0.6-0.1,0.8-0.2
		s0.3-0.4,0.3-0.8H-491.6z"/>
	<path fill="#5D6069" d="M-486.2,409.7h-1.2v-2.4h-2.3v2.4h-1.2V404h1.2v2.3h2.3V404h1.2V409.7z"/>
</g>
<g id="icon">
	<rect x="-528.3" y="367.3" width="35.1" height="25.4"/>
	<g>
		<path d="M-544.3,377.6c-0.8,0.2-1.6,1.2-1.6,2.4c0,1.1,0.8,2.2,1.6,2.4c0.9,0.2,4.6,1.2,4.6,1.2v-7.1L-544.3,377.6z M-543.4,381
			c-0.5,0-0.9-0.4-0.9-0.9c0-0.5,0.4-0.9,0.9-0.9s0.9,0.4,0.9,0.9C-542.5,380.5-542.9,381-543.4,381z"/>
	</g>
	<g>
		<path d="M-476.9,382.4c0.8-0.2,1.6-1.2,1.6-2.4c0-1.1-0.8-2.2-1.6-2.4c-0.9-0.2-4.6-1.2-4.6-1.2v7.1L-476.9,382.4z M-477.8,379.1
			c0.5,0,0.9,0.4,0.9,0.9c0,0.5-0.4,0.9-0.9,0.9c-0.5,0-0.9-0.4-0.9-0.9C-478.7,379.5-478.3,379.1-477.8,379.1z"/>
	</g>
	<circle fill="#0D0D0D" cx="-528.3" cy="380" r="12.7"/>
	<g>
		<circle fill="#353535" cx="-528.3" cy="380" r="12.7"/>
	</g>
	<circle fill="#D7D8D9" cx="-528.3" cy="380" r="2.2"/>
	<path fill="none" stroke="#58595B" stroke-width="0.6453" stroke-linecap="round" stroke-linejoin="round" d="M-540.3,382.3
		c-0.6-3.1,0-6.4,2-9.2c3.8-5.5,11.4-6.9,17-3.1"/>
	<g>
		<g>
			<path fill="none" stroke="#3F3F41" stroke-width="7.240000e-02" stroke-linecap="round" stroke-linejoin="round" d="
				M-521.7,386.7c3.7-3.7,3.7-9.6,0-13.3c-3.7-3.7-9.6-3.7-13.3,0c-3.7,3.7-3.7,9.6,0,13.3C-531.3,390.4-525.3,390.4-521.7,386.7z"
				/>
			<path fill="none" stroke="#3F3F41" stroke-width="7.240000e-02" stroke-linecap="round" stroke-linejoin="round" d="M-534.2,386
				c-3.3-3.3-3.3-8.6,0-11.8c3.3-3.3,8.6-3.3,11.8,0c3.3,3.3,3.3,8.6,0,11.8C-525.7,389.2-531,389.2-534.2,386z"/>
			
				<circle fill="none" stroke="#3F3F41" stroke-width="7.240000e-02" stroke-linecap="round" stroke-linejoin="round" cx="-528.3" cy="380" r="7.3"/>
			<path fill="none" stroke="#3F3F41" stroke-width="7.240000e-02" stroke-linecap="round" stroke-linejoin="round" d="
				M-532.8,384.5c-2.5-2.5-2.4-6.4,0-8.9c2.5-2.5,6.4-2.5,8.9,0c2.5,2.5,2.4,6.4,0,8.9C-526.3,386.9-530.3,386.9-532.8,384.5z"/>
			
				<circle fill="none" stroke="#3F3F41" stroke-width="7.240000e-02" stroke-linecap="round" stroke-linejoin="round" cx="-528.3" cy="380" r="5.2"/>
			<path fill="none" stroke="#3F3F41" stroke-width="7.240000e-02" stroke-linecap="round" stroke-linejoin="round" d="M-531.3,383
				c-1.6-1.6-1.6-4.3,0-5.9c1.6-1.6,4.3-1.6,5.9,0c1.6,1.6,1.6,4.3,0,5.9C-527,384.6-529.6,384.6-531.3,383z"/>
		</g>
	</g>
	<path fill="none" stroke="#303032" stroke-width="0.6453" stroke-linecap="round" stroke-linejoin="round" d="M-533.4,391.1
		c6.1,2.8,13.4,0.1,16.2-6c1.5-3.3,1.4-7,0-10.1"/>
	<circle fill="#0D0D0D" cx="-493.2" cy="380" r="12.7"/>
	<g>
		<circle fill="#353535" cx="-493.2" cy="380" r="12.7"/>
	</g>
	<circle fill="#D7D8D9" cx="-493.2" cy="380" r="2.2"/>
	<path fill="none" stroke="#58595B" stroke-width="0.6453" stroke-linecap="round" stroke-linejoin="round" d="M-505.2,382.3
		c-0.6-3.1,0-6.4,2-9.2c3.8-5.5,11.4-6.9,17-3.1"/>
	<g>
		<g>
			<path fill="none" stroke="#3F3F41" stroke-width="7.240000e-02" stroke-linecap="round" stroke-linejoin="round" d="
				M-486.5,386.7c3.7-3.7,3.7-9.6,0-13.3c-3.7-3.7-9.6-3.7-13.3,0c-3.7,3.7-3.7,9.6,0,13.3C-496.2,390.4-490.2,390.4-486.5,386.7z"
				/>
			<path fill="none" stroke="#3F3F41" stroke-width="7.240000e-02" stroke-linecap="round" stroke-linejoin="round" d="M-499.1,386
				c-3.3-3.3-3.3-8.6,0-11.8c3.3-3.3,8.6-3.3,11.8,0c3.3,3.3,3.3,8.6,0,11.8C-490.6,389.2-495.8,389.2-499.1,386z"/>
			
				<circle fill="none" stroke="#3F3F41" stroke-width="7.240000e-02" stroke-linecap="round" stroke-linejoin="round" cx="-493.2" cy="380" r="7.3"/>
			<path fill="none" stroke="#3F3F41" stroke-width="7.240000e-02" stroke-linecap="round" stroke-linejoin="round" d="
				M-497.6,384.5c-2.5-2.5-2.4-6.4,0-8.9c2.5-2.5,6.4-2.5,8.9,0s2.4,6.4,0,8.9C-491.2,386.9-495.2,386.9-497.6,384.5z"/>
			
				<circle fill="none" stroke="#3F3F41" stroke-width="7.240000e-02" stroke-linecap="round" stroke-linejoin="round" cx="-493.2" cy="380" r="5.2"/>
			<path fill="none" stroke="#3F3F41" stroke-width="7.240000e-02" stroke-linecap="round" stroke-linejoin="round" d="M-496.2,383
				c-1.6-1.6-1.6-4.3,0-5.9c1.6-1.6,4.3-1.6,5.9,0c1.6,1.6,1.6,4.3,0,5.9C-491.9,384.6-494.5,384.6-496.2,383z"/>
		</g>
	</g>
	<path fill="none" stroke="#303032" stroke-width="0.6453" stroke-linecap="round" stroke-linejoin="round" d="M-498.3,391.1
		c6.1,2.8,13.4,0.1,16.2-6c1.5-3.3,1.4-7,0-10.1"/>
</g>
</svg>
