<svg xmlns="http://www.w3.org/2000/svg" xmlns:xlink="http://www.w3.org/1999/xlink" preserveAspectRatio="xMidYMid" width="14" height="14" viewBox="0 0 14 14">
  <path d="M13.123,2.123 C13.123,2.123 8.674,6.573 8.674,6.573 C8.674,6.573 13.061,10.960 13.061,10.960 C13.061,10.960 10.960,13.061 10.960,13.061 C10.960,13.061 6.573,8.674 6.573,8.674 C6.573,8.674 2.123,13.123 2.123,13.123 C2.123,13.123 0.002,11.002 0.002,11.002 C0.002,11.002 4.451,6.552 4.451,6.552 C4.451,6.552 0.064,2.165 0.064,2.165 C0.064,2.165 2.165,0.064 2.165,0.064 C2.165,0.064 6.552,4.451 6.552,4.451 C6.552,4.451 11.002,0.002 11.002,0.002 C11.002,0.002 13.123,2.123 13.123,2.123 Z"/>
</svg>
