<svg viewBox="0 0 100 100" xmlns="http://www.w3.org/2000/svg"><symbol viewBox="0 0 13 10" id="abrirProyecto"><title>abrirProyecto</title> <path d="M12.855,3.286 C12.700,3.085 12.438,2.969 12.137,2.969 C12.137,2.969 10.991,2.969 10.991,2.969 C10.991,2.969 10.991,1.948 10.991,1.948 C10.991,1.506 10.601,0.991 10.120,0.991 C10.120,0.991 6.104,0.991 6.104,0.991 C5.933,0.991 5.666,1.023 5.566,0.896 C5.566,0.896 5.265,0.518 5.265,0.518 C5.030,0.223 4.554,-0.000 4.157,-0.000 C4.157,-0.000 2.765,-0.000 2.765,-0.000 C2.327,-0.000 1.887,0.161 1.741,0.541 C1.741,0.541 1.646,0.790 1.646,0.790 C1.601,0.907 1.423,1.022 1.288,1.022 C1.288,1.022 0.871,1.022 0.871,1.022 C0.391,1.022 -0.000,1.506 -0.000,1.948 C-0.000,1.948 -0.000,9.182 -0.000,9.182 C-0.000,9.220 0.008,9.257 0.021,9.291 C0.028,9.434 0.076,9.569 0.165,9.683 C0.320,9.885 0.582,10.000 0.883,10.000 C0.883,10.000 9.755,10.000 9.755,10.000 C10.292,10.000 10.851,9.635 11.028,9.170 C11.028,9.170 12.943,4.139 12.943,4.139 C13.043,3.878 13.010,3.487 12.855,3.286 ZM1.121,1.984 C1.121,1.984 1.538,1.984 1.538,1.984 C1.976,1.984 2.166,1.823 2.311,1.444 C2.311,1.444 2.407,1.195 2.407,1.195 C2.452,1.077 2.629,0.962 2.765,0.962 C2.765,0.962 4.157,0.962 4.157,0.962 C4.327,0.962 4.594,1.087 4.695,1.213 C4.695,1.213 4.995,1.592 4.995,1.592 C5.230,1.887 5.706,1.984 6.104,1.984 C6.104,1.984 9.808,1.984 9.808,1.984 C9.897,1.984 9.973,2.053 9.973,2.136 C9.973,2.136 9.973,2.969 9.973,2.969 C9.973,2.969 3.514,2.969 3.514,2.969 C2.978,2.969 2.419,3.459 2.241,3.925 C2.241,3.925 0.956,6.393 0.956,6.393 C0.956,6.393 0.956,2.136 0.956,2.136 C0.956,2.053 1.032,1.984 1.121,1.984 ZM11.933,4.143 C11.933,4.143 10.112,8.955 10.112,8.955 C10.033,9.162 9.744,9.007 9.506,9.007 C9.506,9.007 1.133,9.007 1.133,9.007 C1.065,9.007 1.011,8.991 0.990,8.964 C0.970,8.936 0.971,8.885 0.993,8.826 C0.993,8.826 2.908,4.358 2.908,4.358 C2.987,4.151 3.276,3.962 3.514,3.962 C3.514,3.962 11.793,3.962 11.793,3.962 C11.861,3.962 11.915,3.979 11.936,4.006 C11.956,4.033 11.955,4.084 11.933,4.143 Z"/> </symbol><symbol viewBox="0 0 13 13" id="cambiarIdioma"><title>cambiarIdioma</title> <path d="M11.090,1.893 C12.316,3.122 12.992,4.756 12.992,6.494 C12.992,8.232 12.316,9.865 11.090,11.094 C9.864,12.323 8.233,13.000 6.499,13.000 C4.764,13.000 3.134,12.323 1.907,11.094 C0.681,9.865 0.006,8.232 0.006,6.494 C0.006,4.756 0.681,3.122 1.907,1.893 C3.134,0.664 4.764,-0.013 6.499,-0.013 C8.233,-0.013 9.864,0.664 11.090,1.893 ZM10.516,10.519 C11.316,9.718 11.847,8.720 12.067,7.634 C11.896,7.886 11.732,7.979 11.631,7.415 C11.527,6.495 10.684,7.083 10.153,6.756 C9.595,7.133 8.341,6.023 8.554,7.275 C8.883,7.839 10.330,6.519 9.609,7.714 C9.149,8.548 7.927,10.394 8.086,11.352 C8.106,12.746 6.664,11.642 6.167,11.180 C5.833,10.253 6.053,8.633 5.179,8.180 C4.230,8.138 3.416,8.052 3.049,6.989 C2.827,6.229 3.284,5.097 4.097,4.922 C5.287,4.173 5.712,5.800 6.829,5.830 C7.175,5.467 8.120,5.351 8.198,4.944 C7.466,4.814 9.127,4.327 8.128,4.049 C7.577,4.114 7.221,4.622 7.514,5.053 C6.446,5.302 6.412,3.504 5.385,4.071 C5.359,4.968 3.708,4.362 4.814,4.180 C5.194,4.014 4.194,3.532 4.734,3.619 C5.000,3.605 5.893,3.291 5.651,3.080 C6.148,2.771 6.566,3.821 7.053,3.056 C7.404,2.469 6.905,2.360 6.465,2.658 C6.217,2.379 6.903,1.778 7.509,1.518 C7.711,1.431 7.904,1.384 8.051,1.397 C8.356,1.750 8.921,1.811 8.950,1.355 C8.194,0.992 7.361,0.800 6.499,0.800 C5.261,0.800 4.083,1.195 3.109,1.924 C3.371,2.044 3.519,2.194 3.267,2.385 C3.071,2.970 2.276,3.756 1.578,3.645 C1.215,4.271 0.976,4.961 0.874,5.685 C1.459,5.878 1.594,6.262 1.468,6.391 C1.170,6.651 0.987,7.020 0.893,7.424 C1.083,8.591 1.630,9.667 2.481,10.519 C3.554,11.595 4.981,12.187 6.499,12.187 C8.016,12.187 9.443,11.595 10.516,10.519 Z"/> </symbol><symbol viewBox="0 0 10 12" id="copiarTexto"><title>copiarTexto</title> <path d="M9.120,9.991 C9.120,9.991 7.957,9.991 7.957,9.991 C7.957,9.991 7.957,11.094 7.957,11.094 C7.957,11.601 7.567,12.013 7.087,12.013 C7.087,12.013 0.862,12.013 0.862,12.013 C0.382,12.013 -0.009,11.601 -0.009,11.094 C-0.009,11.094 -0.009,2.945 -0.009,2.945 C-0.009,2.439 0.382,2.026 0.862,2.026 C0.862,2.026 1.993,2.026 1.993,2.026 C1.993,2.026 1.993,0.924 1.993,0.924 C1.993,0.417 2.384,0.005 2.864,0.005 C2.864,0.005 9.120,0.005 9.120,0.005 C9.600,0.005 9.991,0.417 9.991,0.924 C9.991,0.924 9.991,9.072 9.991,9.072 C9.991,9.579 9.600,9.991 9.120,9.991 ZM1.112,3.002 C1.044,3.002 0.987,3.062 0.987,3.133 C0.987,3.133 0.987,10.875 0.987,10.875 C0.987,10.947 1.044,11.007 1.112,11.007 C1.112,11.007 6.868,11.007 6.868,11.007 C6.935,11.007 6.992,10.947 6.992,10.875 C6.992,10.875 6.992,3.133 6.992,3.133 C6.992,3.062 6.935,3.002 6.868,3.002 C6.868,3.002 1.112,3.002 1.112,3.002 ZM8.995,1.142 C8.995,1.071 8.938,1.011 8.870,1.011 C8.870,1.011 3.114,1.011 3.114,1.011 C3.046,1.011 2.989,1.071 2.989,1.142 C2.989,1.142 2.989,2.026 2.989,2.026 C2.989,2.026 7.087,2.026 7.087,2.026 C7.567,2.026 7.957,2.439 7.957,2.945 C7.957,2.945 7.957,8.985 7.957,8.985 C7.957,8.985 8.870,8.985 8.870,8.985 C8.938,8.985 8.995,8.925 8.995,8.854 C8.995,8.854 8.995,1.142 8.995,1.142 ZM5.500,9.000 C5.500,9.000 2.500,9.000 2.500,9.000 C2.224,9.000 2.000,8.776 2.000,8.500 C2.000,8.224 2.224,8.000 2.500,8.000 C2.500,8.000 5.500,8.000 5.500,8.000 C5.776,8.000 6.000,8.224 6.000,8.500 C6.000,8.776 5.776,9.000 5.500,9.000 ZM5.500,7.000 C5.500,7.000 2.500,7.000 2.500,7.000 C2.224,7.000 2.000,6.776 2.000,6.500 C2.000,6.224 2.224,6.000 2.500,6.000 C2.500,6.000 5.500,6.000 5.500,6.000 C5.776,6.000 6.000,6.224 6.000,6.500 C6.000,6.776 5.776,7.000 5.500,7.000 ZM5.500,5.000 C5.500,5.000 2.500,5.000 2.500,5.000 C2.224,5.000 2.000,4.776 2.000,4.500 C2.000,4.224 2.224,4.000 2.500,4.000 C2.500,4.000 5.500,4.000 5.500,4.000 C5.776,4.000 6.000,4.224 6.000,4.500 C6.000,4.776 5.776,5.000 5.500,5.000 Z"/> </symbol><symbol viewBox="0 0 13 8" id="deshacer"><title>deshacer</title> <path d="M12.719,7.964 C12.608,7.964 12.505,7.903 12.461,7.802 C12.461,7.802 12.461,7.802 12.461,7.802 C12.429,7.730 11.625,6.000 8.621,5.658 C7.995,5.585 7.245,5.548 6.335,5.541 C6.335,5.541 6.335,7.696 6.335,7.696 C6.335,7.796 6.278,7.886 6.186,7.933 C6.095,7.979 5.985,7.973 5.900,7.918 C5.900,7.918 0.127,4.191 0.127,4.191 C0.049,4.141 0.003,4.057 0.003,3.969 C0.003,3.880 0.049,3.798 0.127,3.746 C0.127,3.746 5.902,0.019 5.902,0.019 C5.988,-0.038 6.096,-0.042 6.189,0.005 C6.281,0.052 6.336,0.143 6.336,0.240 C6.336,0.240 6.336,2.245 6.336,2.245 C7.592,2.402 12.997,3.334 12.997,7.698 C12.997,7.825 12.904,7.936 12.774,7.961 C12.755,7.964 12.737,7.964 12.719,7.964 Z"/> </symbol><symbol viewBox="0 0 11 13" id="duplicar"><title>duplicar</title> <path d="M7.647,-0.000 C7.647,-0.000 3.529,-0.000 3.529,-0.000 C3.231,-0.000 2.987,0.244 2.987,0.542 C2.987,0.542 2.987,2.986 2.987,2.986 C2.987,2.986 0.543,2.986 0.543,2.986 C0.244,2.986 -0.000,3.230 -0.000,3.529 C-0.000,3.529 -0.000,12.463 -0.000,12.463 C-0.000,12.762 0.244,13.006 0.543,13.006 C0.543,13.006 7.456,13.006 7.456,13.006 C7.754,13.006 7.998,12.762 7.998,12.463 C7.998,12.463 7.998,11.023 7.998,11.023 C7.998,11.023 10.446,11.023 10.446,11.023 C10.744,11.023 10.988,10.778 10.988,10.480 C10.988,10.480 10.988,4.015 10.988,4.015 C10.988,3.870 11.049,3.705 10.976,3.168 C10.976,3.168 8.036,0.163 8.036,0.163 C7.936,0.054 7.792,-0.000 7.647,-0.000 ZM6.976,11.983 C6.976,11.983 1.022,11.983 1.022,11.983 C1.022,11.983 1.022,3.977 1.022,3.977 C1.022,3.977 2.987,3.977 2.987,3.977 C2.987,3.977 2.987,10.480 2.987,10.480 C2.987,10.778 3.231,11.023 3.529,11.023 C3.529,11.023 6.976,11.023 6.976,11.023 C6.976,11.023 6.976,11.983 6.976,11.983 C6.976,11.983 6.976,11.983 6.976,11.983 ZM3.978,9.969 C3.978,9.969 3.978,0.991 3.978,0.991 C3.978,0.991 6.992,0.991 6.992,0.991 C6.992,0.991 6.992,4.471 6.992,4.471 C6.992,4.769 7.205,5.013 7.503,5.013 C7.503,5.013 9.997,5.013 9.997,5.013 C9.997,5.013 9.997,9.969 9.997,9.969 C9.997,9.969 3.978,9.969 3.978,9.969 ZM9.935,3.928 C9.935,3.928 8.046,3.928 8.046,3.928 C8.046,3.928 8.046,1.723 8.046,1.723 C8.046,1.723 9.935,3.928 9.935,3.928 C9.935,3.928 9.935,3.928 9.935,3.928 Z"/> </symbol><symbol viewBox="0 0 13 13" id="edit"><title>edit</title> <path d="M8.082,2.178 C8.082,2.178 10.726,4.841 10.726,4.841 C10.726,4.841 4.033,11.581 4.033,11.581 C4.033,11.581 1.391,8.918 1.391,8.918 C1.391,8.918 8.082,2.178 8.082,2.178 ZM12.732,1.535 C12.732,1.535 11.553,0.348 11.553,0.348 C11.097,-0.111 10.357,-0.111 9.900,0.348 C9.900,0.348 8.771,1.485 8.771,1.485 C8.771,1.485 11.414,4.148 11.414,4.148 C11.414,4.148 12.732,2.822 12.732,2.822 C13.085,2.466 13.085,1.891 12.732,1.535 ZM0.007,12.661 C-0.041,12.880 0.155,13.075 0.371,13.022 C0.371,13.022 3.317,12.302 3.317,12.302 C3.317,12.302 0.675,9.640 0.675,9.640 C0.675,9.640 0.007,12.661 0.007,12.661 Z"/> </symbol><symbol viewBox="0 0 10 13" id="exportcode"><title>exportcode</title> <path d="M8.947,13.000 C8.947,13.000 1.053,13.000 1.053,13.000 C0.474,13.000 -0.000,12.533 -0.000,11.963 C-0.000,11.963 -0.000,1.037 -0.000,1.037 C-0.000,0.467 0.474,0.000 1.053,0.000 C1.053,0.000 6.579,0.000 6.579,0.000 C6.579,0.000 7.757,0.000 7.757,0.000 C7.757,0.000 10.000,2.767 10.000,2.767 C10.000,2.767 10.000,3.889 10.000,3.889 C10.000,3.889 10.000,11.963 10.000,11.963 C10.000,12.533 9.526,13.000 8.947,13.000 ZM6.003,3.111 C6.003,3.111 6.003,1.018 6.003,1.018 C6.003,1.018 1.521,1.018 1.521,1.018 C1.206,1.018 0.995,1.278 0.995,1.537 C0.995,1.537 0.995,11.463 0.995,11.463 C0.995,11.774 1.258,11.982 1.521,11.982 C1.521,11.982 8.510,11.982 8.510,11.982 C8.826,11.982 9.036,11.722 9.036,11.463 C9.036,11.463 9.036,4.023 9.036,4.023 C9.036,4.023 6.931,4.023 6.931,4.023 C6.352,4.023 6.003,3.682 6.003,3.111 ZM6.936,0.447 C6.936,0.447 6.936,2.486 6.936,2.486 C6.936,2.745 7.199,3.005 7.462,3.005 C7.462,3.005 9.142,3.005 9.142,3.005 C9.142,3.005 6.936,0.447 6.936,0.447 ZM5.974,9.638 C5.974,9.638 7.184,8.446 7.184,8.446 C7.184,8.446 5.974,7.253 5.974,7.253 C5.974,7.253 6.530,6.890 6.530,6.890 C6.530,6.890 8.109,8.446 8.109,8.446 C8.109,8.446 6.530,10.001 6.530,10.001 C6.530,10.001 5.974,9.638 5.974,9.638 ZM4.148,10.520 C4.148,10.520 5.201,6.372 5.201,6.372 C5.201,6.372 5.946,6.372 5.946,6.372 C5.946,6.372 4.893,10.520 4.893,10.520 C4.893,10.520 4.148,10.520 4.148,10.520 ZM3.314,10.001 C3.314,10.001 1.735,8.446 1.735,8.446 C1.735,8.446 3.314,6.890 3.314,6.890 C3.314,6.890 4.058,7.253 4.058,7.253 C4.058,7.253 2.847,8.446 2.847,8.446 C2.847,8.446 4.058,9.638 4.058,9.638 C4.058,9.638 3.314,10.001 3.314,10.001 Z"/> </symbol><symbol viewBox="0 0 13 13" id="guardar"><title>guardar</title> <path d="M12.845,2.905 C12.845,2.905 10.027,0.125 10.027,0.125 C9.948,0.047 9.838,0.000 9.692,0.000 C9.692,0.000 0.473,0.000 0.473,0.000 C0.206,0.000 0.000,0.215 0.000,0.493 C0.000,0.493 0.000,12.507 0.000,12.507 C0.000,12.785 0.206,13.000 0.473,13.000 C0.473,13.000 12.527,13.000 12.527,13.000 C12.794,13.000 13.000,12.785 13.000,12.507 C13.000,12.507 13.000,3.272 13.000,3.272 C13.000,3.120 12.943,3.001 12.845,2.905 ZM5.976,0.995 C5.976,0.995 7.011,0.995 7.011,0.995 C7.011,0.995 7.011,3.989 7.011,3.989 C7.011,3.989 5.976,3.989 5.976,3.989 C5.976,3.989 5.976,0.995 5.976,0.995 ZM11.992,12.005 C11.992,12.005 1.008,12.005 1.008,12.005 C1.008,12.005 1.008,0.995 1.008,0.995 C1.008,0.995 2.998,0.995 2.998,0.995 C2.998,0.995 2.998,4.967 2.998,4.967 C2.998,4.967 8.995,4.967 8.995,4.967 C8.995,4.967 8.995,0.995 8.995,0.995 C8.995,0.995 9.298,0.995 9.298,0.995 C9.298,0.995 11.992,3.748 11.992,3.748 C11.992,3.748 11.992,12.005 11.992,12.005 Z"/> </symbol><symbol viewBox="0 0 11 13" id="nuevoProyecto"><title>nuevoProyecto</title> <path d="M0.554,13.031 C0.554,13.031 9.446,13.031 9.446,13.031 C9.751,13.031 10.000,12.790 10.000,12.496 C10.000,12.496 10.000,3.410 10.000,3.410 C10.000,3.258 10.111,3.129 10.000,3.031 C10.000,3.031 7.000,0.031 7.000,0.031 C6.899,-0.058 6.302,0.031 6.163,0.031 C6.163,0.031 0.554,0.031 0.554,0.031 C0.249,0.031 0.000,0.272 0.000,0.566 C0.000,0.566 0.000,12.496 0.000,12.496 C0.000,12.790 0.249,13.031 0.554,13.031 ZM8.892,3.985 C8.892,3.985 9.000,4.031 9.000,4.031 C9.000,4.031 6.014,4.012 6.014,4.012 C6.014,4.012 6.000,1.031 6.000,1.031 C6.000,1.031 8.892,3.985 8.892,3.985 ZM1.014,1.039 C1.014,1.039 5.000,1.039 5.000,1.039 C5.000,1.039 5.000,4.516 5.000,4.516 C5.000,4.810 5.249,5.051 5.554,5.051 C5.554,5.051 8.986,5.051 8.986,5.051 C8.986,5.051 8.986,12.024 8.986,12.024 C8.986,12.024 1.014,12.024 1.014,12.024 C1.014,12.024 1.014,1.039 1.014,1.039 Z"/> </symbol><symbol viewBox="0 0 13 8" id="rehacer"><title>rehacer</title> <path d="M0.281,7.964 C0.392,7.964 0.495,7.903 0.538,7.802 C0.538,7.802 0.538,7.802 0.538,7.802 C0.571,7.730 1.375,6.000 4.379,5.658 C5.005,5.585 5.755,5.548 6.665,5.541 C6.665,5.541 6.665,7.696 6.665,7.696 C6.665,7.796 6.722,7.886 6.814,7.933 C6.905,7.979 7.015,7.973 7.100,7.918 C7.100,7.918 12.873,4.191 12.873,4.191 C12.951,4.141 12.997,4.057 12.997,3.969 C12.997,3.880 12.951,3.798 12.873,3.746 C12.873,3.746 7.098,0.019 7.098,0.019 C7.012,-0.038 6.904,-0.042 6.811,0.005 C6.719,0.052 6.664,0.143 6.664,0.240 C6.664,0.240 6.664,2.245 6.664,2.245 C5.408,2.402 0.003,3.334 0.003,7.698 C0.003,7.825 0.096,7.936 0.226,7.961 C0.244,7.964 0.264,7.964 0.281,7.964 Z"/> </symbol></svg>