<svg viewBox="0 0 100 100" xmlns="http://www.w3.org/2000/svg"><defs> <style> .cls-1 { fill: #3b3e45; fill-rule: evenodd; } </style> </defs><symbol viewBox="0 0 13 11" id="Ver_verSerialMonitor"><title>Ver_verSerialMonitor</title> <path d="M13.000,8.990 C13.000,8.990 13.000,-0.000 13.000,-0.000 C13.000,-0.000 0.000,-0.000 0.000,-0.000 C0.000,-0.000 0.000,8.990 0.000,8.990 C0.000,8.990 6.000,8.990 6.000,8.990 C6.000,8.990 6.000,9.979 6.000,9.979 C6.000,9.979 4.000,9.979 4.000,9.979 C4.000,9.979 4.000,10.969 4.000,10.969 C4.000,10.969 8.969,10.969 8.969,10.969 C8.969,10.969 8.969,9.979 8.969,9.979 C8.969,9.979 7.000,9.979 7.000,9.979 C7.000,9.979 7.000,8.990 7.000,8.990 C7.000,8.990 13.000,8.990 13.000,8.990 ZM1.000,7.000 C1.000,7.000 1.000,1.021 1.000,1.021 C1.000,1.021 12.000,1.021 12.000,1.021 C12.000,1.021 12.000,7.000 12.000,7.000 C12.000,7.000 1.000,7.000 1.000,7.000 Z"/> </symbol><symbol viewBox="0 0 13 10" id="abrirProyecto"><title>abrirProyecto</title> <path d="M12.855,3.286 C12.700,3.085 12.438,2.969 12.137,2.969 C12.137,2.969 10.991,2.969 10.991,2.969 C10.991,2.969 10.991,1.948 10.991,1.948 C10.991,1.506 10.601,0.991 10.120,0.991 C10.120,0.991 6.104,0.991 6.104,0.991 C5.933,0.991 5.666,1.023 5.566,0.896 C5.566,0.896 5.265,0.518 5.265,0.518 C5.030,0.223 4.554,-0.000 4.157,-0.000 C4.157,-0.000 2.765,-0.000 2.765,-0.000 C2.327,-0.000 1.887,0.161 1.741,0.541 C1.741,0.541 1.646,0.790 1.646,0.790 C1.601,0.907 1.423,1.022 1.288,1.022 C1.288,1.022 0.871,1.022 0.871,1.022 C0.391,1.022 -0.000,1.506 -0.000,1.948 C-0.000,1.948 -0.000,9.182 -0.000,9.182 C-0.000,9.220 0.008,9.257 0.021,9.291 C0.028,9.434 0.076,9.569 0.165,9.683 C0.320,9.885 0.582,10.000 0.883,10.000 C0.883,10.000 9.755,10.000 9.755,10.000 C10.292,10.000 10.851,9.635 11.028,9.170 C11.028,9.170 12.943,4.139 12.943,4.139 C13.043,3.878 13.010,3.487 12.855,3.286 ZM1.121,1.984 C1.121,1.984 1.538,1.984 1.538,1.984 C1.976,1.984 2.166,1.823 2.311,1.444 C2.311,1.444 2.407,1.195 2.407,1.195 C2.452,1.077 2.629,0.962 2.765,0.962 C2.765,0.962 4.157,0.962 4.157,0.962 C4.327,0.962 4.594,1.087 4.695,1.213 C4.695,1.213 4.995,1.592 4.995,1.592 C5.230,1.887 5.706,1.984 6.104,1.984 C6.104,1.984 9.808,1.984 9.808,1.984 C9.897,1.984 9.973,2.053 9.973,2.136 C9.973,2.136 9.973,2.969 9.973,2.969 C9.973,2.969 3.514,2.969 3.514,2.969 C2.978,2.969 2.419,3.459 2.241,3.925 C2.241,3.925 0.956,6.393 0.956,6.393 C0.956,6.393 0.956,2.136 0.956,2.136 C0.956,2.053 1.032,1.984 1.121,1.984 ZM11.933,4.143 C11.933,4.143 10.112,8.955 10.112,8.955 C10.033,9.162 9.744,9.007 9.506,9.007 C9.506,9.007 1.133,9.007 1.133,9.007 C1.065,9.007 1.011,8.991 0.990,8.964 C0.970,8.936 0.971,8.885 0.993,8.826 C0.993,8.826 2.908,4.358 2.908,4.358 C2.987,4.151 3.276,3.962 3.514,3.962 C3.514,3.962 11.793,3.962 11.793,3.962 C11.861,3.962 11.915,3.979 11.936,4.006 C11.956,4.033 11.955,4.084 11.933,4.143 Z"/> </symbol><symbol viewBox="0 0 13 13" id="cambiarIdioma"><title>cambiarIdioma</title> <path d="M11.090,1.893 C12.316,3.122 12.992,4.756 12.992,6.494 C12.992,8.232 12.316,9.865 11.090,11.094 C9.864,12.323 8.233,13.000 6.499,13.000 C4.764,13.000 3.134,12.323 1.907,11.094 C0.681,9.865 0.006,8.232 0.006,6.494 C0.006,4.756 0.681,3.122 1.907,1.893 C3.134,0.664 4.764,-0.013 6.499,-0.013 C8.233,-0.013 9.864,0.664 11.090,1.893 ZM10.516,10.519 C11.316,9.718 11.847,8.720 12.067,7.634 C11.896,7.886 11.732,7.979 11.631,7.415 C11.527,6.495 10.684,7.083 10.153,6.756 C9.595,7.133 8.341,6.023 8.554,7.275 C8.883,7.839 10.330,6.519 9.609,7.714 C9.149,8.548 7.927,10.394 8.086,11.352 C8.106,12.746 6.664,11.642 6.167,11.180 C5.833,10.253 6.053,8.633 5.179,8.180 C4.230,8.138 3.416,8.052 3.049,6.989 C2.827,6.229 3.284,5.097 4.097,4.922 C5.287,4.173 5.712,5.800 6.829,5.830 C7.175,5.467 8.120,5.351 8.198,4.944 C7.466,4.814 9.127,4.327 8.128,4.049 C7.577,4.114 7.221,4.622 7.514,5.053 C6.446,5.302 6.412,3.504 5.385,4.071 C5.359,4.968 3.708,4.362 4.814,4.180 C5.194,4.014 4.194,3.532 4.734,3.619 C5.000,3.605 5.893,3.291 5.651,3.080 C6.148,2.771 6.566,3.821 7.053,3.056 C7.404,2.469 6.905,2.360 6.465,2.658 C6.217,2.379 6.903,1.778 7.509,1.518 C7.711,1.431 7.904,1.384 8.051,1.397 C8.356,1.750 8.921,1.811 8.950,1.355 C8.194,0.992 7.361,0.800 6.499,0.800 C5.261,0.800 4.083,1.195 3.109,1.924 C3.371,2.044 3.519,2.194 3.267,2.385 C3.071,2.970 2.276,3.756 1.578,3.645 C1.215,4.271 0.976,4.961 0.874,5.685 C1.459,5.878 1.594,6.262 1.468,6.391 C1.170,6.651 0.987,7.020 0.893,7.424 C1.083,8.591 1.630,9.667 2.481,10.519 C3.554,11.595 4.981,12.187 6.499,12.187 C8.016,12.187 9.443,11.595 10.516,10.519 Z"/> </symbol><symbol viewBox="0 0 24 20" id="cargar"><title>cargar</title> <path d="M0.006,9.496 C0.006,10.787 1.071,11.833 2.382,11.834 C2.382,11.834 15.884,11.833 15.884,11.833 C15.884,11.833 12.234,15.426 12.234,15.426 C11.246,16.400 11.195,17.930 12.123,18.845 C13.051,19.755 14.605,19.707 15.595,18.734 C15.595,18.734 23.217,11.227 23.217,11.227 C24.209,10.254 24.259,8.723 23.330,7.809 C23.305,7.788 23.277,7.771 23.253,7.749 C23.222,7.716 23.199,7.678 23.166,7.644 C23.166,7.644 15.644,0.240 15.644,0.240 C14.668,-0.720 13.126,-0.758 12.198,0.156 C11.270,1.070 11.310,2.589 12.284,3.551 C12.284,3.551 15.947,7.156 15.947,7.156 C15.947,7.156 2.382,7.156 2.382,7.156 C1.069,7.155 0.006,8.202 0.006,9.496 Z"/> </symbol><symbol viewBox="0 0 14 14" id="cierre"><title>cierre</title> <path d="M13.123,2.123 C13.123,2.123 8.674,6.573 8.674,6.573 C8.674,6.573 13.061,10.960 13.061,10.960 C13.061,10.960 10.960,13.061 10.960,13.061 C10.960,13.061 6.573,8.674 6.573,8.674 C6.573,8.674 2.123,13.123 2.123,13.123 C2.123,13.123 0.002,11.002 0.002,11.002 C0.002,11.002 4.451,6.552 4.451,6.552 C4.451,6.552 0.064,2.165 0.064,2.165 C0.064,2.165 2.165,0.064 2.165,0.064 C2.165,0.064 6.552,4.451 6.552,4.451 C6.552,4.451 11.002,0.002 11.002,0.002 C11.002,0.002 13.123,2.123 13.123,2.123 Z"/> </symbol><symbol viewBox="0 0 23 17" id="codigo"><title>codigo</title> <path d="M22.855,8.835 C22.855,8.835 16.985,14.537 16.985,14.537 C16.893,14.626 16.770,14.676 16.641,14.676 C16.512,14.676 16.388,14.626 16.296,14.537 C16.296,14.537 15.024,13.301 15.024,13.301 C14.834,13.116 14.834,12.817 15.024,12.632 C15.024,12.632 19.277,8.500 19.277,8.500 C19.277,8.500 15.023,4.369 15.023,4.369 C14.833,4.184 14.833,3.885 15.023,3.700 C15.023,3.700 16.296,2.464 16.296,2.464 C16.479,2.286 16.802,2.286 16.984,2.464 C16.984,2.464 22.855,8.166 22.855,8.166 C23.045,8.351 23.045,8.650 22.855,8.835 ZM9.617,17.000 C9.571,17.000 9.525,16.994 9.479,16.981 C9.479,16.981 8.447,16.685 8.447,16.685 C8.323,16.650 8.219,16.568 8.157,16.458 C8.096,16.347 8.082,16.218 8.118,16.098 C8.118,16.098 12.908,0.342 12.908,0.342 C12.984,0.091 13.255,-0.052 13.513,0.022 C13.513,0.022 14.545,0.318 14.545,0.318 C14.668,0.353 14.773,0.435 14.834,0.545 C14.896,0.655 14.910,0.785 14.874,0.905 C14.874,0.905 10.084,16.661 10.084,16.661 C10.021,16.867 9.827,17.000 9.617,17.000 ZM3.715,8.500 C3.715,8.500 7.969,12.632 7.969,12.632 C8.159,12.817 8.159,13.116 7.969,13.301 C7.969,13.301 6.696,14.537 6.696,14.537 C6.605,14.626 6.481,14.676 6.352,14.676 C6.223,14.676 6.099,14.626 6.008,14.537 C6.008,14.537 0.137,8.835 0.137,8.835 C-0.053,8.650 -0.053,8.351 0.137,8.166 C0.137,8.166 6.008,2.464 6.008,2.464 C6.099,2.375 6.223,2.326 6.352,2.326 C6.481,2.326 6.605,2.375 6.696,2.464 C6.696,2.464 7.969,3.700 7.969,3.700 C8.061,3.789 8.112,3.909 8.112,4.035 C8.112,4.160 8.060,4.280 7.969,4.369 C7.969,4.369 3.715,8.500 3.715,8.500 Z"/> </symbol><symbol viewBox="0 0 24 17" id="componentes"><title>componentes</title> <path d="M21.218,14.211 C21.218,14.211 21.218,14.989 21.218,14.989 C21.218,14.989 18.995,14.989 18.995,14.989 C18.995,14.989 18.995,12.364 18.995,12.364 C18.995,12.364 21.187,12.364 21.187,12.364 C21.187,12.364 21.187,13.012 21.187,13.012 C21.187,13.012 23.987,13.089 23.987,13.089 C23.987,13.089 23.987,14.085 23.987,14.085 C23.987,14.085 21.218,14.211 21.218,14.211 ZM21.218,9.802 C21.218,9.802 18.995,9.802 18.995,9.802 C18.995,9.802 18.995,7.177 18.995,7.177 C18.995,7.177 21.187,7.177 21.187,7.177 C21.187,7.177 21.187,7.825 21.187,7.825 C21.187,7.825 23.987,7.902 23.987,7.902 C23.987,7.902 23.987,8.898 23.987,8.898 C23.987,8.898 21.218,9.024 21.218,9.024 C21.218,9.024 21.218,9.802 21.218,9.802 ZM21.218,4.615 C21.218,4.615 18.995,4.615 18.995,4.615 C18.995,4.615 18.995,1.990 18.995,1.990 C18.995,1.990 21.187,1.990 21.187,1.990 C21.187,1.990 21.187,2.638 21.187,2.638 C21.187,2.638 23.987,2.715 23.987,2.715 C23.987,2.715 23.987,3.711 23.987,3.711 C23.987,3.711 21.218,3.837 21.218,3.837 C21.218,3.837 21.218,4.615 21.218,4.615 ZM17.492,16.972 C17.492,16.972 6.489,16.972 6.489,16.972 C6.206,16.972 5.978,16.741 5.978,16.458 C5.978,16.458 5.978,0.501 5.978,0.501 C5.978,0.218 6.206,-0.010 6.489,-0.010 C6.489,-0.010 17.492,-0.010 17.492,-0.010 C17.774,-0.010 18.003,0.218 18.003,0.501 C18.003,0.501 18.003,16.458 18.003,16.458 C18.003,16.741 17.774,16.972 17.492,16.972 ZM8.919,1.952 C8.331,1.952 7.854,2.430 7.854,3.017 C7.854,3.605 8.331,4.081 8.919,4.081 C9.508,4.081 9.983,3.604 9.983,3.017 C9.983,2.428 9.507,1.952 8.919,1.952 ZM2.720,14.104 C2.720,14.104 -0.081,14.030 -0.081,14.030 C-0.081,14.030 -0.081,13.069 -0.081,13.069 C-0.081,13.069 2.688,12.948 2.688,12.948 C2.688,12.948 2.688,12.198 2.688,12.198 C2.688,12.198 4.912,12.198 4.912,12.198 C4.912,12.198 4.912,14.728 4.912,14.728 C4.912,14.728 2.720,14.728 2.720,14.728 C2.720,14.728 2.720,14.104 2.720,14.104 ZM2.720,9.104 C2.720,9.104 -0.081,9.030 -0.081,9.030 C-0.081,9.030 -0.081,8.069 -0.081,8.069 C-0.081,8.069 2.688,7.947 2.688,7.947 C2.688,7.947 2.688,7.198 2.688,7.198 C2.688,7.198 4.912,7.198 4.912,7.198 C4.912,7.198 4.912,9.728 4.912,9.728 C4.912,9.728 2.720,9.728 2.720,9.728 C2.720,9.728 2.720,9.104 2.720,9.104 ZM2.720,4.104 C2.720,4.104 -0.081,4.030 -0.081,4.030 C-0.081,4.030 -0.081,3.069 -0.081,3.069 C-0.081,3.069 2.688,2.948 2.688,2.948 C2.688,2.948 2.688,2.198 2.688,2.198 C2.688,2.198 4.912,2.198 4.912,2.198 C4.912,2.198 4.912,4.728 4.912,4.728 C4.912,4.728 2.720,4.728 2.720,4.728 C2.720,4.728 2.720,4.104 2.720,4.104 Z"/> </symbol><symbol viewBox="0 0 10 12" id="copiarTexto"><title>copiarTexto</title> <path d="M9.120,9.991 C9.120,9.991 7.957,9.991 7.957,9.991 C7.957,9.991 7.957,11.094 7.957,11.094 C7.957,11.601 7.567,12.013 7.087,12.013 C7.087,12.013 0.862,12.013 0.862,12.013 C0.382,12.013 -0.009,11.601 -0.009,11.094 C-0.009,11.094 -0.009,2.945 -0.009,2.945 C-0.009,2.439 0.382,2.026 0.862,2.026 C0.862,2.026 1.993,2.026 1.993,2.026 C1.993,2.026 1.993,0.924 1.993,0.924 C1.993,0.417 2.384,0.005 2.864,0.005 C2.864,0.005 9.120,0.005 9.120,0.005 C9.600,0.005 9.991,0.417 9.991,0.924 C9.991,0.924 9.991,9.072 9.991,9.072 C9.991,9.579 9.600,9.991 9.120,9.991 ZM1.112,3.002 C1.044,3.002 0.987,3.062 0.987,3.133 C0.987,3.133 0.987,10.875 0.987,10.875 C0.987,10.947 1.044,11.007 1.112,11.007 C1.112,11.007 6.868,11.007 6.868,11.007 C6.935,11.007 6.992,10.947 6.992,10.875 C6.992,10.875 6.992,3.133 6.992,3.133 C6.992,3.062 6.935,3.002 6.868,3.002 C6.868,3.002 1.112,3.002 1.112,3.002 ZM8.995,1.142 C8.995,1.071 8.938,1.011 8.870,1.011 C8.870,1.011 3.114,1.011 3.114,1.011 C3.046,1.011 2.989,1.071 2.989,1.142 C2.989,1.142 2.989,2.026 2.989,2.026 C2.989,2.026 7.087,2.026 7.087,2.026 C7.567,2.026 7.957,2.439 7.957,2.945 C7.957,2.945 7.957,8.985 7.957,8.985 C7.957,8.985 8.870,8.985 8.870,8.985 C8.938,8.985 8.995,8.925 8.995,8.854 C8.995,8.854 8.995,1.142 8.995,1.142 ZM5.500,9.000 C5.500,9.000 2.500,9.000 2.500,9.000 C2.224,9.000 2.000,8.776 2.000,8.500 C2.000,8.224 2.224,8.000 2.500,8.000 C2.500,8.000 5.500,8.000 5.500,8.000 C5.776,8.000 6.000,8.224 6.000,8.500 C6.000,8.776 5.776,9.000 5.500,9.000 ZM5.500,7.000 C5.500,7.000 2.500,7.000 2.500,7.000 C2.224,7.000 2.000,6.776 2.000,6.500 C2.000,6.224 2.224,6.000 2.500,6.000 C2.500,6.000 5.500,6.000 5.500,6.000 C5.776,6.000 6.000,6.224 6.000,6.500 C6.000,6.776 5.776,7.000 5.500,7.000 ZM5.500,5.000 C5.500,5.000 2.500,5.000 2.500,5.000 C2.224,5.000 2.000,4.776 2.000,4.500 C2.000,4.224 2.224,4.000 2.500,4.000 C2.500,4.000 5.500,4.000 5.500,4.000 C5.776,4.000 6.000,4.224 6.000,4.500 C6.000,4.776 5.776,5.000 5.500,5.000 Z"/> </symbol><symbol viewBox="0 0 13 8" id="deshacer"><title>deshacer</title> <path d="M12.719,7.964 C12.608,7.964 12.505,7.903 12.461,7.802 C12.461,7.802 12.461,7.802 12.461,7.802 C12.429,7.730 11.625,6.000 8.621,5.658 C7.995,5.585 7.245,5.548 6.335,5.541 C6.335,5.541 6.335,7.696 6.335,7.696 C6.335,7.796 6.278,7.886 6.186,7.933 C6.095,7.979 5.985,7.973 5.900,7.918 C5.900,7.918 0.127,4.191 0.127,4.191 C0.049,4.141 0.003,4.057 0.003,3.969 C0.003,3.880 0.049,3.798 0.127,3.746 C0.127,3.746 5.902,0.019 5.902,0.019 C5.988,-0.038 6.096,-0.042 6.189,0.005 C6.281,0.052 6.336,0.143 6.336,0.240 C6.336,0.240 6.336,2.245 6.336,2.245 C7.592,2.402 12.997,3.334 12.997,7.698 C12.997,7.825 12.904,7.936 12.774,7.961 C12.755,7.964 12.737,7.964 12.719,7.964 Z"/> </symbol><symbol viewBox="0 0 7 10" id="dropdown"><title>dropdown</title> <path d="M5.845,3.472 C5.845,3.472 0.389,3.472 0.389,3.472 C0.018,3.472 -0.086,2.986 0.099,2.800 C0.099,2.800 2.777,0.111 2.777,0.111 C2.962,-0.074 3.262,-0.074 3.447,0.111 C3.447,0.111 6.125,2.800 6.125,2.800 C6.310,2.986 6.192,3.472 5.845,3.472 ZM0.374,6.528 C0.374,6.528 5.830,6.528 5.830,6.528 C6.201,6.528 6.304,7.015 6.119,7.200 C6.119,7.200 3.441,9.889 3.441,9.889 C3.257,10.074 2.957,10.074 2.772,9.889 C2.772,9.889 0.094,7.200 0.094,7.200 C-0.091,7.015 0.027,6.528 0.374,6.528 Z"/> </symbol><symbol viewBox="0 0 11 13" id="duplicar"><title>duplicar</title> <path d="M7.647,-0.000 C7.647,-0.000 3.529,-0.000 3.529,-0.000 C3.231,-0.000 2.987,0.244 2.987,0.542 C2.987,0.542 2.987,2.986 2.987,2.986 C2.987,2.986 0.543,2.986 0.543,2.986 C0.244,2.986 -0.000,3.230 -0.000,3.529 C-0.000,3.529 -0.000,12.463 -0.000,12.463 C-0.000,12.762 0.244,13.006 0.543,13.006 C0.543,13.006 7.456,13.006 7.456,13.006 C7.754,13.006 7.998,12.762 7.998,12.463 C7.998,12.463 7.998,11.023 7.998,11.023 C7.998,11.023 10.446,11.023 10.446,11.023 C10.744,11.023 10.988,10.778 10.988,10.480 C10.988,10.480 10.988,4.015 10.988,4.015 C10.988,3.870 11.049,3.705 10.976,3.168 C10.976,3.168 8.036,0.163 8.036,0.163 C7.936,0.054 7.792,-0.000 7.647,-0.000 ZM6.976,11.983 C6.976,11.983 1.022,11.983 1.022,11.983 C1.022,11.983 1.022,3.977 1.022,3.977 C1.022,3.977 2.987,3.977 2.987,3.977 C2.987,3.977 2.987,10.480 2.987,10.480 C2.987,10.778 3.231,11.023 3.529,11.023 C3.529,11.023 6.976,11.023 6.976,11.023 C6.976,11.023 6.976,11.983 6.976,11.983 C6.976,11.983 6.976,11.983 6.976,11.983 ZM3.978,9.969 C3.978,9.969 3.978,0.991 3.978,0.991 C3.978,0.991 6.992,0.991 6.992,0.991 C6.992,0.991 6.992,4.471 6.992,4.471 C6.992,4.769 7.205,5.013 7.503,5.013 C7.503,5.013 9.997,5.013 9.997,5.013 C9.997,5.013 9.997,9.969 9.997,9.969 C9.997,9.969 3.978,9.969 3.978,9.969 ZM9.935,3.928 C9.935,3.928 8.046,3.928 8.046,3.928 C8.046,3.928 8.046,1.723 8.046,1.723 C8.046,1.723 9.935,3.928 9.935,3.928 C9.935,3.928 9.935,3.928 9.935,3.928 Z"/> </symbol><symbol viewBox="0 0 13 13" id="edit"><title>edit</title> <path d="M8.082,2.178 C8.082,2.178 10.726,4.841 10.726,4.841 C10.726,4.841 4.033,11.581 4.033,11.581 C4.033,11.581 1.391,8.918 1.391,8.918 C1.391,8.918 8.082,2.178 8.082,2.178 ZM12.732,1.535 C12.732,1.535 11.553,0.348 11.553,0.348 C11.097,-0.111 10.357,-0.111 9.900,0.348 C9.900,0.348 8.771,1.485 8.771,1.485 C8.771,1.485 11.414,4.148 11.414,4.148 C11.414,4.148 12.732,2.822 12.732,2.822 C13.085,2.466 13.085,1.891 12.732,1.535 ZM0.007,12.661 C-0.041,12.880 0.155,13.075 0.371,13.022 C0.371,13.022 3.317,12.302 3.317,12.302 C3.317,12.302 0.675,9.640 0.675,9.640 C0.675,9.640 0.007,12.661 0.007,12.661 Z"/> </symbol><symbol viewBox="0 0 13 12" id="error"><title>error</title> <path d="M1.028,12.000 C1.028,12.000 11.975,12.000 11.975,12.000 C12.741,12.000 13.234,11.176 12.888,10.480 C12.888,10.480 7.414,0.577 7.414,0.577 C7.036,-0.194 5.956,-0.194 5.579,0.577 C5.579,0.577 0.105,10.480 0.105,10.480 C-0.230,11.176 0.262,12.000 1.028,12.000 ZM7.362,9.698 C7.362,10.212 6.994,10.608 6.470,10.608 C5.946,10.608 5.579,10.212 5.579,9.698 C5.579,9.698 5.579,9.677 5.579,9.677 C5.579,9.163 5.946,8.767 6.470,8.767 C6.994,8.767 7.362,9.163 7.362,9.677 C7.362,9.677 7.362,9.698 7.362,9.698 ZM5.988,3.007 C5.988,3.007 7.015,3.007 7.015,3.007 C7.299,3.007 7.466,3.253 7.435,3.564 C7.435,3.564 6.984,7.589 6.984,7.589 C6.953,7.878 6.764,8.060 6.502,8.060 C6.239,8.060 6.051,7.878 6.019,7.589 C6.019,7.589 5.568,3.564 5.568,3.564 C5.537,3.253 5.705,3.007 5.988,3.007 Z"/> </symbol><symbol viewBox="0 0 10 13" id="exportcode"><title>exportcode</title> <path d="M8.947,13.000 C8.947,13.000 1.053,13.000 1.053,13.000 C0.474,13.000 -0.000,12.533 -0.000,11.963 C-0.000,11.963 -0.000,1.037 -0.000,1.037 C-0.000,0.467 0.474,0.000 1.053,0.000 C1.053,0.000 6.579,0.000 6.579,0.000 C6.579,0.000 7.757,0.000 7.757,0.000 C7.757,0.000 10.000,2.767 10.000,2.767 C10.000,2.767 10.000,3.889 10.000,3.889 C10.000,3.889 10.000,11.963 10.000,11.963 C10.000,12.533 9.526,13.000 8.947,13.000 ZM6.003,3.111 C6.003,3.111 6.003,1.018 6.003,1.018 C6.003,1.018 1.521,1.018 1.521,1.018 C1.206,1.018 0.995,1.278 0.995,1.537 C0.995,1.537 0.995,11.463 0.995,11.463 C0.995,11.774 1.258,11.982 1.521,11.982 C1.521,11.982 8.510,11.982 8.510,11.982 C8.826,11.982 9.036,11.722 9.036,11.463 C9.036,11.463 9.036,4.023 9.036,4.023 C9.036,4.023 6.931,4.023 6.931,4.023 C6.352,4.023 6.003,3.682 6.003,3.111 ZM6.936,0.447 C6.936,0.447 6.936,2.486 6.936,2.486 C6.936,2.745 7.199,3.005 7.462,3.005 C7.462,3.005 9.142,3.005 9.142,3.005 C9.142,3.005 6.936,0.447 6.936,0.447 ZM5.974,9.638 C5.974,9.638 7.184,8.446 7.184,8.446 C7.184,8.446 5.974,7.253 5.974,7.253 C5.974,7.253 6.530,6.890 6.530,6.890 C6.530,6.890 8.109,8.446 8.109,8.446 C8.109,8.446 6.530,10.001 6.530,10.001 C6.530,10.001 5.974,9.638 5.974,9.638 ZM4.148,10.520 C4.148,10.520 5.201,6.372 5.201,6.372 C5.201,6.372 5.946,6.372 5.946,6.372 C5.946,6.372 4.893,10.520 4.893,10.520 C4.893,10.520 4.148,10.520 4.148,10.520 ZM3.314,10.001 C3.314,10.001 1.735,8.446 1.735,8.446 C1.735,8.446 3.314,6.890 3.314,6.890 C3.314,6.890 4.058,7.253 4.058,7.253 C4.058,7.253 2.847,8.446 2.847,8.446 C2.847,8.446 4.058,9.638 4.058,9.638 C4.058,9.638 3.314,10.001 3.314,10.001 Z"/> </symbol><symbol viewBox="0 0 13 13" id="guardar"><title>guardar</title> <path d="M12.845,2.905 C12.845,2.905 10.027,0.125 10.027,0.125 C9.948,0.047 9.838,0.000 9.692,0.000 C9.692,0.000 0.473,0.000 0.473,0.000 C0.206,0.000 0.000,0.215 0.000,0.493 C0.000,0.493 0.000,12.507 0.000,12.507 C0.000,12.785 0.206,13.000 0.473,13.000 C0.473,13.000 12.527,13.000 12.527,13.000 C12.794,13.000 13.000,12.785 13.000,12.507 C13.000,12.507 13.000,3.272 13.000,3.272 C13.000,3.120 12.943,3.001 12.845,2.905 ZM5.976,0.995 C5.976,0.995 7.011,0.995 7.011,0.995 C7.011,0.995 7.011,3.989 7.011,3.989 C7.011,3.989 5.976,3.989 5.976,3.989 C5.976,3.989 5.976,0.995 5.976,0.995 ZM11.992,12.005 C11.992,12.005 1.008,12.005 1.008,12.005 C1.008,12.005 1.008,0.995 1.008,0.995 C1.008,0.995 2.998,0.995 2.998,0.995 C2.998,0.995 2.998,4.967 2.998,4.967 C2.998,4.967 8.995,4.967 8.995,4.967 C8.995,4.967 8.995,0.995 8.995,0.995 C8.995,0.995 9.298,0.995 9.298,0.995 C9.298,0.995 11.992,3.748 11.992,3.748 C11.992,3.748 11.992,12.005 11.992,12.005 Z"/> </symbol><symbol viewBox="0 0 23 23" id="hardware"><title>hardware</title> <path d="M22.500,15.000 C22.500,15.000 20.500,15.000 20.500,15.000 C20.224,15.000 20.000,14.776 20.000,14.500 C20.000,14.224 20.224,14.000 20.500,14.000 C20.500,14.000 22.500,14.000 22.500,14.000 C22.776,14.000 23.000,14.224 23.000,14.500 C23.000,14.776 22.776,15.000 22.500,15.000 ZM22.500,13.000 C22.500,13.000 20.500,13.000 20.500,13.000 C20.224,13.000 20.000,12.776 20.000,12.500 C20.000,12.224 20.224,12.000 20.500,12.000 C20.500,12.000 22.500,12.000 22.500,12.000 C22.776,12.000 23.000,12.224 23.000,12.500 C23.000,12.776 22.776,13.000 22.500,13.000 ZM22.500,11.000 C22.500,11.000 20.500,11.000 20.500,11.000 C20.224,11.000 20.000,10.776 20.000,10.500 C20.000,10.224 20.224,10.000 20.500,10.000 C20.500,10.000 22.500,10.000 22.500,10.000 C22.776,10.000 23.000,10.224 23.000,10.500 C23.000,10.776 22.776,11.000 22.500,11.000 ZM22.500,9.000 C22.500,9.000 20.500,9.000 20.500,9.000 C20.224,9.000 20.000,8.776 20.000,8.500 C20.000,8.224 20.224,8.000 20.500,8.000 C20.500,8.000 22.500,8.000 22.500,8.000 C22.776,8.000 23.000,8.224 23.000,8.500 C23.000,8.776 22.776,9.000 22.500,9.000 ZM22.500,7.000 C22.500,7.000 20.500,7.000 20.500,7.000 C20.224,7.000 20.000,6.776 20.000,6.500 C20.000,6.224 20.224,6.000 20.500,6.000 C20.500,6.000 22.500,6.000 22.500,6.000 C22.776,6.000 23.000,6.224 23.000,6.500 C23.000,6.776 22.776,7.000 22.500,7.000 ZM16.918,19.005 C16.918,19.005 6.059,19.005 6.059,19.005 C4.920,19.005 3.991,18.078 3.991,16.937 C3.991,16.937 3.991,6.079 3.991,6.079 C3.991,4.939 4.920,4.011 6.059,4.011 C6.059,4.011 16.918,4.011 16.918,4.011 C18.058,4.011 18.987,4.939 18.987,6.078 C18.987,6.078 18.987,16.937 18.987,16.937 C18.987,18.078 18.058,19.005 16.918,19.005 ZM16.500,3.000 C16.224,3.000 16.000,2.776 16.000,2.500 C16.000,2.500 16.000,0.500 16.000,0.500 C16.000,0.224 16.224,-0.000 16.500,-0.000 C16.776,-0.000 17.000,0.224 17.000,0.500 C17.000,0.500 17.000,2.500 17.000,2.500 C17.000,2.776 16.776,3.000 16.500,3.000 ZM14.500,3.000 C14.224,3.000 14.000,2.776 14.000,2.500 C14.000,2.500 14.000,0.500 14.000,0.500 C14.000,0.224 14.224,-0.000 14.500,-0.000 C14.776,-0.000 15.000,0.224 15.000,0.500 C15.000,0.500 15.000,2.500 15.000,2.500 C15.000,2.776 14.776,3.000 14.500,3.000 ZM12.500,3.000 C12.224,3.000 12.000,2.776 12.000,2.500 C12.000,2.500 12.000,0.500 12.000,0.500 C12.000,0.224 12.224,-0.000 12.500,-0.000 C12.776,-0.000 13.000,0.224 13.000,0.500 C13.000,0.500 13.000,2.500 13.000,2.500 C13.000,2.776 12.776,3.000 12.500,3.000 ZM10.500,3.000 C10.224,3.000 10.000,2.776 10.000,2.500 C10.000,2.500 10.000,0.500 10.000,0.500 C10.000,0.224 10.224,-0.000 10.500,-0.000 C10.776,-0.000 11.000,0.224 11.000,0.500 C11.000,0.500 11.000,2.500 11.000,2.500 C11.000,2.776 10.776,3.000 10.500,3.000 ZM8.500,3.000 C8.224,3.000 8.000,2.776 8.000,2.500 C8.000,2.500 8.000,0.500 8.000,0.500 C8.000,0.224 8.224,-0.000 8.500,-0.000 C8.776,-0.000 9.000,0.224 9.000,0.500 C9.000,0.500 9.000,2.500 9.000,2.500 C9.000,2.776 8.776,3.000 8.500,3.000 ZM6.500,3.000 C6.224,3.000 6.000,2.776 6.000,2.500 C6.000,2.500 6.000,0.500 6.000,0.500 C6.000,0.224 6.224,-0.000 6.500,-0.000 C6.776,-0.000 7.000,0.224 7.000,0.500 C7.000,0.500 7.000,2.500 7.000,2.500 C7.000,2.776 6.776,3.000 6.500,3.000 ZM2.500,17.000 C2.500,17.000 0.500,17.000 0.500,17.000 C0.224,17.000 0.000,16.776 0.000,16.500 C0.000,16.224 0.224,16.000 0.500,16.000 C0.500,16.000 2.500,16.000 2.500,16.000 C2.776,16.000 3.000,16.224 3.000,16.500 C3.000,16.776 2.776,17.000 2.500,17.000 ZM2.500,15.000 C2.500,15.000 0.500,15.000 0.500,15.000 C0.224,15.000 0.000,14.776 0.000,14.500 C0.000,14.224 0.224,14.000 0.500,14.000 C0.500,14.000 2.500,14.000 2.500,14.000 C2.776,14.000 3.000,14.224 3.000,14.500 C3.000,14.776 2.776,15.000 2.500,15.000 ZM2.500,13.000 C2.500,13.000 0.500,13.000 0.500,13.000 C0.224,13.000 0.000,12.776 0.000,12.500 C0.000,12.224 0.224,12.000 0.500,12.000 C0.500,12.000 2.500,12.000 2.500,12.000 C2.776,12.000 3.000,12.224 3.000,12.500 C3.000,12.776 2.776,13.000 2.500,13.000 ZM2.500,11.000 C2.500,11.000 0.500,11.000 0.500,11.000 C0.224,11.000 0.000,10.776 0.000,10.500 C0.000,10.224 0.224,10.000 0.500,10.000 C0.500,10.000 2.500,10.000 2.500,10.000 C2.776,10.000 3.000,10.224 3.000,10.500 C3.000,10.776 2.776,11.000 2.500,11.000 ZM2.500,9.000 C2.500,9.000 0.500,9.000 0.500,9.000 C0.224,9.000 0.000,8.776 0.000,8.500 C0.000,8.224 0.224,8.000 0.500,8.000 C0.500,8.000 2.500,8.000 2.500,8.000 C2.776,8.000 3.000,8.224 3.000,8.500 C3.000,8.776 2.776,9.000 2.500,9.000 ZM2.500,7.000 C2.500,7.000 0.500,7.000 0.500,7.000 C0.224,7.000 0.000,6.776 0.000,6.500 C0.000,6.224 0.224,6.000 0.500,6.000 C0.500,6.000 2.500,6.000 2.500,6.000 C2.776,6.000 3.000,6.224 3.000,6.500 C3.000,6.776 2.776,7.000 2.500,7.000 ZM6.500,20.000 C6.776,20.000 7.000,20.224 7.000,20.500 C7.000,20.500 7.000,22.500 7.000,22.500 C7.000,22.776 6.776,23.000 6.500,23.000 C6.224,23.000 6.000,22.776 6.000,22.500 C6.000,22.500 6.000,20.500 6.000,20.500 C6.000,20.224 6.224,20.000 6.500,20.000 ZM8.500,20.000 C8.776,20.000 9.000,20.224 9.000,20.500 C9.000,20.500 9.000,22.500 9.000,22.500 C9.000,22.776 8.776,23.000 8.500,23.000 C8.224,23.000 8.000,22.776 8.000,22.500 C8.000,22.500 8.000,20.500 8.000,20.500 C8.000,20.224 8.224,20.000 8.500,20.000 ZM10.500,20.000 C10.776,20.000 11.000,20.224 11.000,20.500 C11.000,20.500 11.000,22.500 11.000,22.500 C11.000,22.776 10.776,23.000 10.500,23.000 C10.224,23.000 10.000,22.776 10.000,22.500 C10.000,22.500 10.000,20.500 10.000,20.500 C10.000,20.224 10.224,20.000 10.500,20.000 ZM12.500,20.000 C12.776,20.000 13.000,20.224 13.000,20.500 C13.000,20.500 13.000,22.500 13.000,22.500 C13.000,22.776 12.776,23.000 12.500,23.000 C12.224,23.000 12.000,22.776 12.000,22.500 C12.000,22.500 12.000,20.500 12.000,20.500 C12.000,20.224 12.224,20.000 12.500,20.000 ZM14.500,20.000 C14.776,20.000 15.000,20.224 15.000,20.500 C15.000,20.500 15.000,22.500 15.000,22.500 C15.000,22.776 14.776,23.000 14.500,23.000 C14.224,23.000 14.000,22.776 14.000,22.500 C14.000,22.500 14.000,20.500 14.000,20.500 C14.000,20.224 14.224,20.000 14.500,20.000 ZM16.500,20.000 C16.776,20.000 17.000,20.224 17.000,20.500 C17.000,20.500 17.000,22.500 17.000,22.500 C17.000,22.776 16.776,23.000 16.500,23.000 C16.224,23.000 16.000,22.776 16.000,22.500 C16.000,22.500 16.000,20.500 16.000,20.500 C16.000,20.224 16.224,20.000 16.500,20.000 ZM20.500,16.000 C20.500,16.000 22.500,16.000 22.500,16.000 C22.776,16.000 23.000,16.224 23.000,16.500 C23.000,16.776 22.776,17.000 22.500,17.000 C22.500,17.000 20.500,17.000 20.500,17.000 C20.224,17.000 20.000,16.776 20.000,16.500 C20.000,16.224 20.224,16.000 20.500,16.000 Z"/> </symbol><symbol viewBox="0 0 512 512" id="icon-close"><title>icon-close</title><g><path d="M223.5,449.25c-124.281,0-225-101.063-225-225.75C-1.5,98.813,99.219-2.25,223.5-2.25c124.25,0,225,101.063,225,225.75   C448.5,348.188,347.75,449.25,223.5,449.25z M311.75,174.75c25-25,33-25.5,8-50.5s-25.5-17-50.5,8L222.5,179l-46.75-46.75   c-25-25-25.531-33-50.531-8c-24.969,25-16.969,25.5,8,50.5L180,221.5l-48.781,48.75c-25,25-33,25.5-8,50.5s25.531,17,50.5-8   L222.5,264l48.75,48.75c25,25,25.5,33,50.5,8s17-25.5-8-50.5L265,221.5L311.75,174.75z"/></g></symbol><symbol viewBox="0 0 24 24" id="info"><title>info</title> <path d="M12.000,0.015 C5.381,0.015 0.015,5.381 0.015,12.000 C0.015,18.619 5.381,23.985 12.000,23.985 C18.619,23.985 23.985,18.619 23.985,12.000 C23.985,5.381 18.619,0.015 12.000,0.015 ZM14.495,18.590 C13.878,18.833 13.387,19.018 13.018,19.146 C12.652,19.274 12.224,19.338 11.738,19.338 C10.991,19.338 10.410,19.154 9.996,18.791 C9.582,18.427 9.376,17.965 9.376,17.404 C9.376,17.186 9.391,16.962 9.421,16.735 C9.453,16.508 9.503,16.253 9.571,15.965 C9.571,15.965 10.343,13.238 10.343,13.238 C10.411,12.975 10.470,12.726 10.516,12.495 C10.563,12.261 10.585,12.047 10.585,11.853 C10.585,11.506 10.513,11.262 10.370,11.125 C10.225,10.988 9.952,10.921 9.545,10.921 C9.346,10.921 9.142,10.950 8.932,11.012 C8.723,11.076 8.543,11.134 8.394,11.191 C8.394,11.191 8.599,10.351 8.599,10.351 C9.104,10.145 9.588,9.968 10.050,9.822 C10.511,9.674 10.947,9.601 11.359,9.601 C12.100,9.601 12.673,9.782 13.076,10.139 C13.476,10.497 13.678,10.963 13.678,11.535 C13.678,11.654 13.664,11.863 13.637,12.161 C13.609,12.461 13.557,12.733 13.482,12.985 C13.482,12.985 12.714,15.704 12.714,15.704 C12.652,15.923 12.595,16.171 12.545,16.450 C12.495,16.729 12.470,16.942 12.470,17.087 C12.470,17.447 12.551,17.693 12.713,17.825 C12.874,17.956 13.155,18.022 13.551,18.022 C13.740,18.022 13.950,17.989 14.188,17.922 C14.423,17.858 14.594,17.799 14.701,17.750 C14.701,17.750 14.495,18.590 14.495,18.590 ZM14.359,7.553 C14.001,7.885 13.569,8.052 13.065,8.052 C12.563,8.052 12.128,7.885 11.766,7.553 C11.407,7.220 11.225,6.815 11.225,6.342 C11.225,5.870 11.408,5.464 11.766,5.128 C12.128,4.792 12.563,4.624 13.065,4.624 C13.569,4.624 14.001,4.792 14.359,5.128 C14.717,5.464 14.897,5.870 14.897,6.342 C14.897,6.816 14.717,7.220 14.359,7.553 Z"/> </symbol><symbol viewBox="0 0 32 32" id="loading"><title>loading</title> <path opacity=".25" d="M16 0 A16 16 0 0 0 16 32 A16 16 0 0 0 16 0 M16 4 A12 12 0 0 1 16 28 A12 12 0 0 1 16 4"/> <path d="M16 0 A16 16 0 0 1 32 16 L28 16 A12 12 0 0 0 16 4z"> <animateTransform attributeName="transform" type="rotate" from="0 16 16" to="360 16 16" dur="0.8s" repeatCount="indefinite"/> </path> </symbol><symbol viewBox="0 0 11 13" id="nuevoProyecto"><title>nuevoProyecto</title> <path d="M0.554,13.031 C0.554,13.031 9.446,13.031 9.446,13.031 C9.751,13.031 10.000,12.790 10.000,12.496 C10.000,12.496 10.000,3.410 10.000,3.410 C10.000,3.258 10.111,3.129 10.000,3.031 C10.000,3.031 7.000,0.031 7.000,0.031 C6.899,-0.058 6.302,0.031 6.163,0.031 C6.163,0.031 0.554,0.031 0.554,0.031 C0.249,0.031 0.000,0.272 0.000,0.566 C0.000,0.566 0.000,12.496 0.000,12.496 C0.000,12.790 0.249,13.031 0.554,13.031 ZM8.892,3.985 C8.892,3.985 9.000,4.031 9.000,4.031 C9.000,4.031 6.014,4.012 6.014,4.012 C6.014,4.012 6.000,1.031 6.000,1.031 C6.000,1.031 8.892,3.985 8.892,3.985 ZM1.014,1.039 C1.014,1.039 5.000,1.039 5.000,1.039 C5.000,1.039 5.000,4.516 5.000,4.516 C5.000,4.810 5.249,5.051 5.554,5.051 C5.554,5.051 8.986,5.051 8.986,5.051 C8.986,5.051 8.986,12.024 8.986,12.024 C8.986,12.024 1.014,12.024 1.014,12.024 C1.014,12.024 1.014,1.039 1.014,1.039 Z"/> </symbol><symbol viewBox="0 0 13 13" id="ok"><title>ok</title> <path d="M11.096,11.097 C9.869,12.324 8.238,12.999 6.503,12.999 C4.768,12.999 3.137,12.324 1.910,11.097 C0.683,9.870 0.007,8.239 0.007,6.504 C0.007,4.769 0.683,3.138 1.910,1.911 C3.137,0.684 4.768,0.008 6.503,0.008 C8.238,0.008 9.869,0.684 11.096,1.911 C12.322,3.138 12.998,4.769 12.998,6.504 C12.998,8.239 12.323,9.870 11.096,11.097 ZM9.884,3.831 C9.495,3.520 9.022,3.839 8.655,4.299 C8.655,4.299 5.819,8.200 5.819,8.200 C5.819,8.200 4.273,6.238 4.273,6.238 C3.965,5.846 3.596,5.665 3.204,5.973 C2.812,6.280 2.744,6.847 3.051,7.239 C3.051,7.239 5.110,9.851 5.110,9.851 C5.129,9.875 5.156,9.887 5.177,9.909 C5.208,9.946 5.223,9.986 5.266,10.021 C5.294,10.043 5.331,10.047 5.361,10.066 C5.386,10.080 5.411,10.089 5.437,10.101 C5.510,10.134 5.583,10.164 5.663,10.174 C5.750,10.189 5.836,10.185 5.924,10.174 C5.938,10.172 5.952,10.174 5.967,10.171 C6.111,10.147 6.253,10.100 6.376,10.004 C6.405,9.981 6.413,9.952 6.436,9.927 C6.505,9.872 6.578,9.823 6.636,9.750 C6.636,9.750 9.923,5.227 9.923,5.227 C10.291,4.767 10.273,4.141 9.884,3.831 Z"/> </symbol><symbol viewBox="0 0 24 24" id="placas"><title>placas</title> <path d="M22.126,13.613 C22.126,14.142 21.695,14.573 21.164,14.573 C20.633,14.573 20.201,14.142 20.201,13.613 C20.201,13.084 20.633,12.654 21.164,12.654 C21.695,12.654 22.126,13.084 22.126,13.613 ZM22.095,7.418 C22.095,7.947 21.663,8.377 21.132,8.377 C20.602,8.377 20.170,7.947 20.170,7.418 C20.170,6.889 20.602,6.458 21.132,6.458 C21.663,6.458 22.095,6.889 22.095,7.418 ZM22.000,24.000 C22.000,24.000 15.958,24.000 15.958,24.000 C15.958,24.000 15.958,15.177 15.958,15.177 C15.958,14.168 16.963,14.053 17.183,14.040 C17.183,14.040 19.253,14.040 19.253,14.040 C19.449,14.913 20.230,15.568 21.164,15.568 C22.245,15.568 23.125,14.691 23.125,13.613 C23.125,12.536 22.245,11.659 21.164,11.659 C20.282,11.659 19.543,12.245 19.297,13.045 C19.297,13.045 17.170,13.045 17.170,13.045 C17.170,13.045 17.149,13.045 17.149,13.045 C17.095,13.047 16.600,13.075 16.091,13.328 C15.361,13.692 14.959,14.349 14.959,15.177 C14.959,15.177 14.959,24.000 14.959,24.000 C14.959,24.000 1.000,24.000 1.000,24.000 C-0.105,24.000 -0.000,23.105 -0.000,22.000 C-0.000,22.000 -0.000,9.960 -0.000,9.960 C-0.000,9.960 9.725,9.960 9.725,9.960 C9.857,9.960 11.019,10.023 11.019,11.346 C11.019,11.346 11.019,23.988 11.019,23.988 C11.019,23.988 12.017,23.988 12.017,23.988 C12.017,23.988 12.017,11.346 12.017,11.346 C12.017,9.498 10.531,8.980 9.735,8.964 C9.735,8.964 -0.000,8.964 -0.000,8.964 C-0.000,8.964 -0.000,2.000 -0.000,2.000 C-0.000,0.895 0.895,0.000 2.000,0.000 C2.000,0.000 14.928,0.000 14.928,0.000 C14.928,0.000 14.928,5.783 14.928,5.783 C14.928,7.382 16.347,7.922 17.097,7.985 C17.097,7.985 19.266,7.986 19.266,7.986 C19.512,8.786 20.251,9.373 21.132,9.373 C22.214,9.373 23.094,8.496 23.094,7.418 C23.094,6.340 22.214,5.463 21.132,5.463 C20.198,5.463 19.418,6.119 19.222,6.991 C19.222,6.991 17.163,6.991 17.163,6.991 C17.005,6.974 15.927,6.818 15.927,5.783 C15.927,5.783 15.927,0.000 15.927,0.000 C15.927,0.000 22.000,0.000 22.000,0.000 C23.105,0.000 24.000,0.895 24.000,2.000 C24.000,2.000 24.000,22.000 24.000,22.000 C24.000,23.105 23.105,24.000 22.000,24.000 ZM9.962,14.196 C9.962,13.371 9.575,12.716 8.873,12.351 C8.379,12.094 7.897,12.066 7.844,12.064 C7.844,12.064 5.526,12.064 5.526,12.064 C5.330,11.191 4.549,10.536 3.615,10.536 C2.533,10.536 1.654,11.412 1.654,12.490 C1.654,13.568 2.533,14.445 3.615,14.445 C4.496,14.445 5.235,13.858 5.481,13.059 C5.481,13.059 7.810,13.059 7.810,13.059 C7.966,13.067 8.963,13.163 8.963,14.196 C8.963,14.196 8.963,23.988 8.963,23.988 C8.963,23.988 9.962,23.988 9.962,23.988 C9.962,23.988 9.962,14.196 9.962,14.196 ZM13.979,7.123 C13.979,6.298 13.592,5.643 12.890,5.278 C12.396,5.021 11.914,4.993 11.861,4.991 C11.861,4.991 9.498,4.990 9.498,4.990 C9.252,4.191 8.513,3.604 7.632,3.604 C6.550,3.604 5.670,4.481 5.670,5.559 C5.670,6.637 6.550,7.513 7.632,7.513 C8.566,7.513 9.346,6.858 9.543,5.985 C9.543,5.985 11.825,5.985 11.825,5.985 C12.041,5.999 12.980,6.118 12.980,7.123 C12.980,7.123 12.980,23.863 12.980,23.863 C12.980,23.863 13.979,23.863 13.979,23.863 C13.979,23.863 13.979,7.123 13.979,7.123 ZM7.632,6.518 C7.101,6.518 6.669,6.088 6.669,5.559 C6.669,5.030 7.101,4.599 7.632,4.599 C8.163,4.599 8.594,5.030 8.594,5.559 C8.594,6.088 8.163,6.518 7.632,6.518 ZM3.615,13.450 C3.084,13.450 2.652,13.019 2.652,12.490 C2.652,11.961 3.084,11.531 3.615,11.531 C4.146,11.531 4.578,11.961 4.578,12.490 C4.578,13.019 4.146,13.450 3.615,13.450 Z"/> </symbol><symbol viewBox="0 0 13 8" id="rehacer"><title>rehacer</title> <path d="M0.281,7.964 C0.392,7.964 0.495,7.903 0.538,7.802 C0.538,7.802 0.538,7.802 0.538,7.802 C0.571,7.730 1.375,6.000 4.379,5.658 C5.005,5.585 5.755,5.548 6.665,5.541 C6.665,5.541 6.665,7.696 6.665,7.696 C6.665,7.796 6.722,7.886 6.814,7.933 C6.905,7.979 7.015,7.973 7.100,7.918 C7.100,7.918 12.873,4.191 12.873,4.191 C12.951,4.141 12.997,4.057 12.997,3.969 C12.997,3.880 12.951,3.798 12.873,3.746 C12.873,3.746 7.098,0.019 7.098,0.019 C7.012,-0.038 6.904,-0.042 6.811,0.005 C6.719,0.052 6.664,0.143 6.664,0.240 C6.664,0.240 6.664,2.245 6.664,2.245 C5.408,2.402 0.003,3.334 0.003,7.698 C0.003,7.825 0.096,7.936 0.226,7.961 C0.244,7.964 0.264,7.964 0.281,7.964 Z"/> </symbol><symbol viewBox="0 0 22 24" id="robots"><title>robots</title> <path d="M19.662,16.071 C19.662,16.071 19.007,16.071 19.007,16.071 C19.025,15.852 19.034,15.632 19.034,15.411 C19.034,15.411 19.034,10.976 19.034,10.976 C19.034,10.976 19.662,10.976 19.662,10.976 C20.417,10.976 21.030,11.579 21.030,12.323 C21.030,12.323 21.030,14.723 21.030,14.723 C21.030,15.467 20.417,16.071 19.662,16.071 ZM13.994,18.765 C13.994,18.338 13.642,17.991 13.208,17.991 C13.208,17.991 7.793,17.991 7.793,17.991 C7.359,17.991 7.007,18.338 7.007,18.765 C7.007,18.765 7.007,19.985 7.007,19.985 C7.007,19.985 2.982,19.985 2.982,19.985 C2.982,19.985 2.982,16.264 2.982,16.264 C2.982,16.264 2.982,11.620 2.982,11.620 C2.982,11.403 2.993,11.188 3.012,10.975 C3.317,7.664 6.286,5.012 9.617,4.610 C9.617,4.610 9.617,4.090 9.617,4.090 C9.617,4.090 9.617,3.571 9.617,3.571 C9.617,3.571 9.617,3.290 9.617,3.290 C9.077,2.987 8.712,2.416 8.712,1.760 C8.712,0.787 9.513,-0.001 10.500,-0.001 C11.488,-0.001 12.289,0.787 12.289,1.759 C12.289,2.416 11.924,2.987 11.383,3.290 C11.383,3.290 11.383,3.571 11.383,3.571 C11.383,3.571 11.383,4.090 11.383,4.090 C11.383,4.090 11.383,4.610 11.383,4.610 C14.714,5.012 17.620,7.662 17.926,10.972 C17.945,11.186 17.956,11.402 17.956,11.620 C17.956,11.620 17.956,16.266 17.956,16.266 C17.956,16.266 17.956,19.985 17.956,19.985 C17.956,19.985 13.994,19.985 13.994,19.985 C13.994,19.985 13.994,18.765 13.994,18.765 ZM7.041,11.334 C5.963,11.334 5.089,12.195 5.089,13.256 C5.089,14.318 5.963,15.178 7.041,15.178 C8.119,15.178 8.993,14.318 8.993,13.256 C8.993,12.195 8.119,11.334 7.041,11.334 ZM16.193,13.256 C16.193,12.195 15.319,11.334 14.241,11.334 C13.163,11.334 12.289,12.195 12.289,13.256 C12.289,14.318 13.163,15.178 14.241,15.178 C15.319,15.178 16.193,14.318 16.193,13.256 ZM1.997,16.056 C1.997,16.056 1.370,16.056 1.370,16.056 C0.614,16.056 0.001,15.452 0.001,14.708 C0.001,14.708 0.001,12.308 0.001,12.308 C0.001,11.564 0.614,10.960 1.370,10.960 C1.370,10.960 2.024,10.960 2.024,10.960 C2.006,11.179 1.997,11.399 1.997,11.620 C1.997,11.620 1.997,16.056 1.997,16.056 ZM1.646,20.985 C1.646,20.985 1.747,20.985 1.747,20.985 C1.747,20.985 7.288,20.985 7.288,20.985 C7.288,20.985 13.713,20.985 13.713,20.985 C13.713,20.985 19.192,20.985 19.192,20.985 C19.192,20.985 19.292,20.985 19.292,20.985 C19.658,20.985 19.954,21.277 19.954,21.637 C19.954,21.637 19.954,23.348 19.954,23.348 C19.954,23.708 19.658,24.000 19.292,24.000 C19.292,24.000 1.646,24.000 1.646,24.000 C1.281,24.000 0.984,23.708 0.984,23.348 C0.984,23.348 0.984,21.637 0.984,21.637 C0.984,21.277 1.281,20.985 1.646,20.985 Z"/> </symbol><symbol viewBox="0 0 24 18" id="software"><title>software</title> <path d="M23.000,18.000 C23.000,18.000 1.000,18.000 1.000,18.000 C0.448,18.000 0.000,17.552 0.000,17.000 C0.000,17.000 0.000,16.000 0.000,16.000 C0.000,15.448 0.448,15.000 1.000,15.000 C1.000,15.000 23.000,15.000 23.000,15.000 C23.552,15.000 24.000,15.448 24.000,16.000 C24.000,16.000 24.000,17.000 24.000,17.000 C24.000,17.552 23.552,18.000 23.000,18.000 ZM20.000,8.000 C20.000,8.000 1.000,8.000 1.000,8.000 C0.448,8.000 0.000,7.552 0.000,7.000 C0.000,7.000 0.000,6.000 0.000,6.000 C0.000,5.448 0.448,5.000 1.000,5.000 C1.000,5.000 20.000,5.000 20.000,5.000 C20.552,5.000 21.000,5.448 21.000,6.000 C21.000,6.000 21.000,7.000 21.000,7.000 C21.000,7.552 20.552,8.000 20.000,8.000 ZM15.000,3.000 C15.000,3.000 1.000,3.000 1.000,3.000 C0.448,3.000 0.000,2.552 0.000,2.000 C0.000,2.000 0.000,1.000 0.000,1.000 C0.000,0.448 0.448,-0.000 1.000,-0.000 C1.000,-0.000 15.000,-0.000 15.000,-0.000 C15.552,-0.000 16.000,0.448 16.000,1.000 C16.000,1.000 16.000,2.000 16.000,2.000 C16.000,2.552 15.552,3.000 15.000,3.000 ZM1.000,10.000 C1.000,10.000 17.000,10.000 17.000,10.000 C17.552,10.000 18.000,10.448 18.000,11.000 C18.000,11.000 18.000,12.000 18.000,12.000 C18.000,12.552 17.552,13.000 17.000,13.000 C17.000,13.000 1.000,13.000 1.000,13.000 C0.448,13.000 0.000,12.552 0.000,12.000 C0.000,12.000 0.000,11.000 0.000,11.000 C0.000,10.448 0.448,10.000 1.000,10.000 Z"/> </symbol><symbol viewBox="0 0 24 18" id="verificar"><title>verificar</title> <path d="M23.424,1.204 C23.424,1.204 22.730,0.528 22.730,0.528 C21.969,-0.217 20.722,-0.217 19.959,0.528 C19.959,0.528 8.190,12.027 8.190,12.027 C8.190,12.027 4.014,7.949 4.014,7.949 C3.253,7.204 2.005,7.204 1.244,7.949 C1.244,7.949 0.552,8.625 0.552,8.625 C-0.209,9.369 -0.209,10.587 0.552,11.331 C0.552,11.331 6.801,17.442 6.801,17.442 C7.563,18.186 8.810,18.186 9.571,17.442 C9.571,17.442 23.424,3.911 23.424,3.911 C24.184,3.167 24.184,1.948 23.424,1.204 Z"/> </symbol><symbol viewBox="0 0 24 18" id="verificarmini"><title>verificarmini</title> <path d="M23.424,1.204 C23.424,1.204 22.730,0.528 22.730,0.528 C21.969,-0.217 20.722,-0.217 19.959,0.528 C19.959,0.528 8.190,12.027 8.190,12.027 C8.190,12.027 4.014,7.949 4.014,7.949 C3.253,7.204 2.005,7.204 1.244,7.949 C1.244,7.949 0.552,8.625 0.552,8.625 C-0.209,9.369 -0.209,10.587 0.552,11.331 C0.552,11.331 6.801,17.442 6.801,17.442 C7.563,18.186 8.810,18.186 9.571,17.442 C9.571,17.442 23.424,3.911 23.424,3.911 C24.184,3.167 24.184,1.948 23.424,1.204 Z" fill="#FFFFFF"/> </symbol><symbol viewBox="0 0 12 11" id="versionAnterior"><title>versionAnterior</title> <path d="M2.235,9.313 C2.204,9.282 2.188,9.241 2.189,9.198 C2.189,9.155 2.208,9.115 2.240,9.085 C2.240,9.085 3.320,8.077 3.320,8.077 C3.386,8.015 3.492,8.016 3.555,8.081 C4.527,9.058 5.970,9.447 7.322,9.095 C9.370,8.562 10.591,6.514 10.044,4.530 C9.497,2.546 7.386,1.365 5.338,1.899 C4.570,2.099 3.877,2.532 3.370,3.126 C3.370,3.126 4.775,3.912 4.775,3.912 C4.830,3.942 4.862,4.000 4.858,4.061 C4.854,4.122 4.815,4.175 4.758,4.200 C4.758,4.200 0.738,5.881 0.738,5.881 C0.689,5.901 0.634,5.898 0.589,5.872 C0.543,5.847 0.513,5.802 0.507,5.752 C0.507,5.752 0.000,1.540 0.000,1.540 C-0.007,1.479 0.021,1.420 0.074,1.386 C0.127,1.352 0.194,1.350 0.249,1.381 C0.249,1.381 1.769,2.231 1.769,2.231 C2.532,1.231 3.626,0.507 4.866,0.184 C7.889,-0.603 11.006,1.139 11.813,4.069 C12.621,6.998 10.818,10.022 7.795,10.809 C5.799,11.329 3.668,10.756 2.235,9.313 Z"/> </symbol><symbol viewBox="0 0 13 12" id="warning"><title>warning</title> <path d="M1.028,12.000 C1.028,12.000 11.975,12.000 11.975,12.000 C12.741,12.000 13.234,11.176 12.888,10.480 C12.888,10.480 7.414,0.577 7.414,0.577 C7.036,-0.194 5.956,-0.194 5.579,0.577 C5.579,0.577 0.105,10.480 0.105,10.480 C-0.230,11.176 0.262,12.000 1.028,12.000 ZM7.362,9.698 C7.362,10.212 6.994,10.608 6.470,10.608 C5.946,10.608 5.579,10.212 5.579,9.698 C5.579,9.698 5.579,9.677 5.579,9.677 C5.579,9.163 5.946,8.767 6.470,8.767 C6.994,8.767 7.362,9.163 7.362,9.677 C7.362,9.677 7.362,9.698 7.362,9.698 ZM5.988,3.007 C5.988,3.007 7.015,3.007 7.015,3.007 C7.299,3.007 7.466,3.253 7.435,3.564 C7.435,3.564 6.984,7.589 6.984,7.589 C6.953,7.878 6.764,8.060 6.502,8.060 C6.239,8.060 6.051,7.878 6.019,7.589 C6.019,7.589 5.568,3.564 5.568,3.564 C5.537,3.253 5.705,3.007 5.988,3.007 Z"/> </symbol><symbol viewBox="0 0 8.94 12.37" id="web2board"><title>web2board</title>  <path d="M7.953,6.790 L5.953,6.790 C5.401,6.790 4.167,6.153 5.934,5.540 C5.934,5.540 6.095,5.465 6.321,5.308 C6.120,5.266 5.922,5.166 5.753,4.997 L2.350,1.594 C1.960,1.204 1.866,0.664 2.256,0.274 L2.264,0.266 C2.655,-0.125 3.288,-0.125 3.678,0.266 L7.081,3.669 C7.230,3.817 7.304,4.004 7.339,4.196 C7.485,3.948 7.574,3.752 7.574,3.752 C8.537,2.019 8.953,3.238 8.953,3.790 L8.953,5.790 C8.953,6.342 8.505,6.790 7.953,6.790 ZM2.958,7.313 C2.958,7.313 2.838,7.274 2.663,7.255 C2.667,7.260 2.674,7.261 2.678,7.266 L6.081,10.669 C6.472,11.059 6.472,11.692 6.081,12.083 L6.073,12.091 C5.683,12.481 5.143,12.387 4.753,11.997 L1.515,8.760 C0.680,10.576 -0.016,9.366 -0.016,8.827 L-0.016,6.827 C-0.016,6.275 0.432,5.827 0.984,5.827 L2.984,5.827 C3.537,5.827 4.878,6.416 2.958,7.313 Z" class="cls-1"/> </symbol></svg>