<svg xmlns="http://www.w3.org/2000/svg" xmlns:xlink="http://www.w3.org/1999/xlink" preserveAspectRatio="xMidYMid" width="13" height="10" viewBox="0 0 13 10">
  <path d="M12.855,3.286 C12.700,3.085 12.438,2.969 12.137,2.969 C12.137,2.969 10.991,2.969 10.991,2.969 C10.991,2.969 10.991,1.948 10.991,1.948 C10.991,1.506 10.601,0.991 10.120,0.991 C10.120,0.991 6.104,0.991 6.104,0.991 C5.933,0.991 5.666,1.023 5.566,0.896 C5.566,0.896 5.265,0.518 5.265,0.518 C5.030,0.223 4.554,-0.000 4.157,-0.000 C4.157,-0.000 2.765,-0.000 2.765,-0.000 C2.327,-0.000 1.887,0.161 1.741,0.541 C1.741,0.541 1.646,0.790 1.646,0.790 C1.601,0.907 1.423,1.022 1.288,1.022 C1.288,1.022 0.871,1.022 0.871,1.022 C0.391,1.022 -0.000,1.506 -0.000,1.948 C-0.000,1.948 -0.000,9.182 -0.000,9.182 C-0.000,9.220 0.008,9.257 0.021,9.291 C0.028,9.434 0.076,9.569 0.165,9.683 C0.320,9.885 0.582,10.000 0.883,10.000 C0.883,10.000 9.755,10.000 9.755,10.000 C10.292,10.000 10.851,9.635 11.028,9.170 C11.028,9.170 12.943,4.139 12.943,4.139 C13.043,3.878 13.010,3.487 12.855,3.286 ZM1.121,1.984 C1.121,1.984 1.538,1.984 1.538,1.984 C1.976,1.984 2.166,1.823 2.311,1.444 C2.311,1.444 2.407,1.195 2.407,1.195 C2.452,1.077 2.629,0.962 2.765,0.962 C2.765,0.962 4.157,0.962 4.157,0.962 C4.327,0.962 4.594,1.087 4.695,1.213 C4.695,1.213 4.995,1.592 4.995,1.592 C5.230,1.887 5.706,1.984 6.104,1.984 C6.104,1.984 9.808,1.984 9.808,1.984 C9.897,1.984 9.973,2.053 9.973,2.136 C9.973,2.136 9.973,2.969 9.973,2.969 C9.973,2.969 3.514,2.969 3.514,2.969 C2.978,2.969 2.419,3.459 2.241,3.925 C2.241,3.925 0.956,6.393 0.956,6.393 C0.956,6.393 0.956,2.136 0.956,2.136 C0.956,2.053 1.032,1.984 1.121,1.984 ZM11.933,4.143 C11.933,4.143 10.112,8.955 10.112,8.955 C10.033,9.162 9.744,9.007 9.506,9.007 C9.506,9.007 1.133,9.007 1.133,9.007 C1.065,9.007 1.011,8.991 0.990,8.964 C0.970,8.936 0.971,8.885 0.993,8.826 C0.993,8.826 2.908,4.358 2.908,4.358 C2.987,4.151 3.276,3.962 3.514,3.962 C3.514,3.962 11.793,3.962 11.793,3.962 C11.861,3.962 11.915,3.979 11.936,4.006 C11.956,4.033 11.955,4.084 11.933,4.143 Z"/>
</svg>
