<svg xmlns="http://www.w3.org/2000/svg" xmlns:xlink="http://www.w3.org/1999/xlink" preserveAspectRatio="xMidYMid" width="13" height="13" viewBox="0 0 13 13">
  <path d="M11.090,1.893 C12.316,3.122 12.992,4.756 12.992,6.494 C12.992,8.232 12.316,9.865 11.090,11.094 C9.864,12.323 8.233,13.000 6.499,13.000 C4.764,13.000 3.134,12.323 1.907,11.094 C0.681,9.865 0.006,8.232 0.006,6.494 C0.006,4.756 0.681,3.122 1.907,1.893 C3.134,0.664 4.764,-0.013 6.499,-0.013 C8.233,-0.013 9.864,0.664 11.090,1.893 ZM10.516,10.519 C11.316,9.718 11.847,8.720 12.067,7.634 C11.896,7.886 11.732,7.979 11.631,7.415 C11.527,6.495 10.684,7.083 10.153,6.756 C9.595,7.133 8.341,6.023 8.554,7.275 C8.883,7.839 10.330,6.519 9.609,7.714 C9.149,8.548 7.927,10.394 8.086,11.352 C8.106,12.746 6.664,11.642 6.167,11.180 C5.833,10.253 6.053,8.633 5.179,8.180 C4.230,8.138 3.416,8.052 3.049,6.989 C2.827,6.229 3.284,5.097 4.097,4.922 C5.287,4.173 5.712,5.800 6.829,5.830 C7.175,5.467 8.120,5.351 8.198,4.944 C7.466,4.814 9.127,4.327 8.128,4.049 C7.577,4.114 7.221,4.622 7.514,5.053 C6.446,5.302 6.412,3.504 5.385,4.071 C5.359,4.968 3.708,4.362 4.814,4.180 C5.194,4.014 4.194,3.532 4.734,3.619 C5.000,3.605 5.893,3.291 5.651,3.080 C6.148,2.771 6.566,3.821 7.053,3.056 C7.404,2.469 6.905,2.360 6.465,2.658 C6.217,2.379 6.903,1.778 7.509,1.518 C7.711,1.431 7.904,1.384 8.051,1.397 C8.356,1.750 8.921,1.811 8.950,1.355 C8.194,0.992 7.361,0.800 6.499,0.800 C5.261,0.800 4.083,1.195 3.109,1.924 C3.371,2.044 3.519,2.194 3.267,2.385 C3.071,2.970 2.276,3.756 1.578,3.645 C1.215,4.271 0.976,4.961 0.874,5.685 C1.459,5.878 1.594,6.262 1.468,6.391 C1.170,6.651 0.987,7.020 0.893,7.424 C1.083,8.591 1.630,9.667 2.481,10.519 C3.554,11.595 4.981,12.187 6.499,12.187 C8.016,12.187 9.443,11.595 10.516,10.519 Z"/>
</svg>
