<svg xmlns="http://www.w3.org/2000/svg" xmlns:xlink="http://www.w3.org/1999/xlink" preserveAspectRatio="xMidYMid" width="24" height="20" viewBox="0 0 24 20">
  <path d="M0.006,9.496 C0.006,10.787 1.071,11.833 2.382,11.834 C2.382,11.834 15.884,11.833 15.884,11.833 C15.884,11.833 12.234,15.426 12.234,15.426 C11.246,16.400 11.195,17.930 12.123,18.845 C13.051,19.755 14.605,19.707 15.595,18.734 C15.595,18.734 23.217,11.227 23.217,11.227 C24.209,10.254 24.259,8.723 23.330,7.809 C23.305,7.788 23.277,7.771 23.253,7.749 C23.222,7.716 23.199,7.678 23.166,7.644 C23.166,7.644 15.644,0.240 15.644,0.240 C14.668,-0.720 13.126,-0.758 12.198,0.156 C11.270,1.070 11.310,2.589 12.284,3.551 C12.284,3.551 15.947,7.156 15.947,7.156 C15.947,7.156 2.382,7.156 2.382,7.156 C1.069,7.155 0.006,8.202 0.006,9.496 Z"/>
</svg>
