<svg xmlns="http://www.w3.org/2000/svg" xmlns:xlink="http://www.w3.org/1999/xlink" preserveAspectRatio="xMidYMid" width="23" height="17" viewBox="0 0 23 17">
  <path d="M22.855,8.835 C22.855,8.835 16.985,14.537 16.985,14.537 C16.893,14.626 16.770,14.676 16.641,14.676 C16.512,14.676 16.388,14.626 16.296,14.537 C16.296,14.537 15.024,13.301 15.024,13.301 C14.834,13.116 14.834,12.817 15.024,12.632 C15.024,12.632 19.277,8.500 19.277,8.500 C19.277,8.500 15.023,4.369 15.023,4.369 C14.833,4.184 14.833,3.885 15.023,3.700 C15.023,3.700 16.296,2.464 16.296,2.464 C16.479,2.286 16.802,2.286 16.984,2.464 C16.984,2.464 22.855,8.166 22.855,8.166 C23.045,8.351 23.045,8.650 22.855,8.835 ZM9.617,17.000 C9.571,17.000 9.525,16.994 9.479,16.981 C9.479,16.981 8.447,16.685 8.447,16.685 C8.323,16.650 8.219,16.568 8.157,16.458 C8.096,16.347 8.082,16.218 8.118,16.098 C8.118,16.098 12.908,0.342 12.908,0.342 C12.984,0.091 13.255,-0.052 13.513,0.022 C13.513,0.022 14.545,0.318 14.545,0.318 C14.668,0.353 14.773,0.435 14.834,0.545 C14.896,0.655 14.910,0.785 14.874,0.905 C14.874,0.905 10.084,16.661 10.084,16.661 C10.021,16.867 9.827,17.000 9.617,17.000 ZM3.715,8.500 C3.715,8.500 7.969,12.632 7.969,12.632 C8.159,12.817 8.159,13.116 7.969,13.301 C7.969,13.301 6.696,14.537 6.696,14.537 C6.605,14.626 6.481,14.676 6.352,14.676 C6.223,14.676 6.099,14.626 6.008,14.537 C6.008,14.537 0.137,8.835 0.137,8.835 C-0.053,8.650 -0.053,8.351 0.137,8.166 C0.137,8.166 6.008,2.464 6.008,2.464 C6.099,2.375 6.223,2.326 6.352,2.326 C6.481,2.326 6.605,2.375 6.696,2.464 C6.696,2.464 7.969,3.700 7.969,3.700 C8.061,3.789 8.112,3.909 8.112,4.035 C8.112,4.160 8.060,4.280 7.969,4.369 C7.969,4.369 3.715,8.500 3.715,8.500 Z"/>
</svg>
