<svg xmlns="http://www.w3.org/2000/svg" xmlns:xlink="http://www.w3.org/1999/xlink" preserveAspectRatio="xMidYMid" width="10" height="12" viewBox="0 0 10 12">
  <path d="M9.120,9.991 C9.120,9.991 7.957,9.991 7.957,9.991 C7.957,9.991 7.957,11.094 7.957,11.094 C7.957,11.601 7.567,12.013 7.087,12.013 C7.087,12.013 0.862,12.013 0.862,12.013 C0.382,12.013 -0.009,11.601 -0.009,11.094 C-0.009,11.094 -0.009,2.945 -0.009,2.945 C-0.009,2.439 0.382,2.026 0.862,2.026 C0.862,2.026 1.993,2.026 1.993,2.026 C1.993,2.026 1.993,0.924 1.993,0.924 C1.993,0.417 2.384,0.005 2.864,0.005 C2.864,0.005 9.120,0.005 9.120,0.005 C9.600,0.005 9.991,0.417 9.991,0.924 C9.991,0.924 9.991,9.072 9.991,9.072 C9.991,9.579 9.600,9.991 9.120,9.991 ZM1.112,3.002 C1.044,3.002 0.987,3.062 0.987,3.133 C0.987,3.133 0.987,10.875 0.987,10.875 C0.987,10.947 1.044,11.007 1.112,11.007 C1.112,11.007 6.868,11.007 6.868,11.007 C6.935,11.007 6.992,10.947 6.992,10.875 C6.992,10.875 6.992,3.133 6.992,3.133 C6.992,3.062 6.935,3.002 6.868,3.002 C6.868,3.002 1.112,3.002 1.112,3.002 ZM8.995,1.142 C8.995,1.071 8.938,1.011 8.870,1.011 C8.870,1.011 3.114,1.011 3.114,1.011 C3.046,1.011 2.989,1.071 2.989,1.142 C2.989,1.142 2.989,2.026 2.989,2.026 C2.989,2.026 7.087,2.026 7.087,2.026 C7.567,2.026 7.957,2.439 7.957,2.945 C7.957,2.945 7.957,8.985 7.957,8.985 C7.957,8.985 8.870,8.985 8.870,8.985 C8.938,8.985 8.995,8.925 8.995,8.854 C8.995,8.854 8.995,1.142 8.995,1.142 ZM5.500,9.000 C5.500,9.000 2.500,9.000 2.500,9.000 C2.224,9.000 2.000,8.776 2.000,8.500 C2.000,8.224 2.224,8.000 2.500,8.000 C2.500,8.000 5.500,8.000 5.500,8.000 C5.776,8.000 6.000,8.224 6.000,8.500 C6.000,8.776 5.776,9.000 5.500,9.000 ZM5.500,7.000 C5.500,7.000 2.500,7.000 2.500,7.000 C2.224,7.000 2.000,6.776 2.000,6.500 C2.000,6.224 2.224,6.000 2.500,6.000 C2.500,6.000 5.500,6.000 5.500,6.000 C5.776,6.000 6.000,6.224 6.000,6.500 C6.000,6.776 5.776,7.000 5.500,7.000 ZM5.500,5.000 C5.500,5.000 2.500,5.000 2.500,5.000 C2.224,5.000 2.000,4.776 2.000,4.500 C2.000,4.224 2.224,4.000 2.500,4.000 C2.500,4.000 5.500,4.000 5.500,4.000 C5.776,4.000 6.000,4.224 6.000,4.500 C6.000,4.776 5.776,5.000 5.500,5.000 Z"/>
</svg>
