<svg xmlns="http://www.w3.org/2000/svg" xmlns:xlink="http://www.w3.org/1999/xlink" preserveAspectRatio="xMidYMid" width="13" height="8" viewBox="0 0 13 8">
  <path d="M12.719,7.964 C12.608,7.964 12.505,7.903 12.461,7.802 C12.461,7.802 12.461,7.802 12.461,7.802 C12.429,7.730 11.625,6.000 8.621,5.658 C7.995,5.585 7.245,5.548 6.335,5.541 C6.335,5.541 6.335,7.696 6.335,7.696 C6.335,7.796 6.278,7.886 6.186,7.933 C6.095,7.979 5.985,7.973 5.900,7.918 C5.900,7.918 0.127,4.191 0.127,4.191 C0.049,4.141 0.003,4.057 0.003,3.969 C0.003,3.880 0.049,3.798 0.127,3.746 C0.127,3.746 5.902,0.019 5.902,0.019 C5.988,-0.038 6.096,-0.042 6.189,0.005 C6.281,0.052 6.336,0.143 6.336,0.240 C6.336,0.240 6.336,2.245 6.336,2.245 C7.592,2.402 12.997,3.334 12.997,7.698 C12.997,7.825 12.904,7.936 12.774,7.961 C12.755,7.964 12.737,7.964 12.719,7.964 Z"/>
</svg>
