<svg xmlns="http://www.w3.org/2000/svg" xmlns:xlink="http://www.w3.org/1999/xlink" preserveAspectRatio="xMidYMid" width="24" height="24" viewBox="0 0 24 24">
  <path d="M22.126,13.613 C22.126,14.142 21.695,14.573 21.164,14.573 C20.633,14.573 20.201,14.142 20.201,13.613 C20.201,13.084 20.633,12.654 21.164,12.654 C21.695,12.654 22.126,13.084 22.126,13.613 ZM22.095,7.418 C22.095,7.947 21.663,8.377 21.132,8.377 C20.602,8.377 20.170,7.947 20.170,7.418 C20.170,6.889 20.602,6.458 21.132,6.458 C21.663,6.458 22.095,6.889 22.095,7.418 ZM22.000,24.000 C22.000,24.000 15.958,24.000 15.958,24.000 C15.958,24.000 15.958,15.177 15.958,15.177 C15.958,14.168 16.963,14.053 17.183,14.040 C17.183,14.040 19.253,14.040 19.253,14.040 C19.449,14.913 20.230,15.568 21.164,15.568 C22.245,15.568 23.125,14.691 23.125,13.613 C23.125,12.536 22.245,11.659 21.164,11.659 C20.282,11.659 19.543,12.245 19.297,13.045 C19.297,13.045 17.170,13.045 17.170,13.045 C17.170,13.045 17.149,13.045 17.149,13.045 C17.095,13.047 16.600,13.075 16.091,13.328 C15.361,13.692 14.959,14.349 14.959,15.177 C14.959,15.177 14.959,24.000 14.959,24.000 C14.959,24.000 1.000,24.000 1.000,24.000 C-0.105,24.000 -0.000,23.105 -0.000,22.000 C-0.000,22.000 -0.000,9.960 -0.000,9.960 C-0.000,9.960 9.725,9.960 9.725,9.960 C9.857,9.960 11.019,10.023 11.019,11.346 C11.019,11.346 11.019,23.988 11.019,23.988 C11.019,23.988 12.017,23.988 12.017,23.988 C12.017,23.988 12.017,11.346 12.017,11.346 C12.017,9.498 10.531,8.980 9.735,8.964 C9.735,8.964 -0.000,8.964 -0.000,8.964 C-0.000,8.964 -0.000,2.000 -0.000,2.000 C-0.000,0.895 0.895,0.000 2.000,0.000 C2.000,0.000 14.928,0.000 14.928,0.000 C14.928,0.000 14.928,5.783 14.928,5.783 C14.928,7.382 16.347,7.922 17.097,7.985 C17.097,7.985 19.266,7.986 19.266,7.986 C19.512,8.786 20.251,9.373 21.132,9.373 C22.214,9.373 23.094,8.496 23.094,7.418 C23.094,6.340 22.214,5.463 21.132,5.463 C20.198,5.463 19.418,6.119 19.222,6.991 C19.222,6.991 17.163,6.991 17.163,6.991 C17.005,6.974 15.927,6.818 15.927,5.783 C15.927,5.783 15.927,0.000 15.927,0.000 C15.927,0.000 22.000,0.000 22.000,0.000 C23.105,0.000 24.000,0.895 24.000,2.000 C24.000,2.000 24.000,22.000 24.000,22.000 C24.000,23.105 23.105,24.000 22.000,24.000 ZM9.962,14.196 C9.962,13.371 9.575,12.716 8.873,12.351 C8.379,12.094 7.897,12.066 7.844,12.064 C7.844,12.064 5.526,12.064 5.526,12.064 C5.330,11.191 4.549,10.536 3.615,10.536 C2.533,10.536 1.654,11.412 1.654,12.490 C1.654,13.568 2.533,14.445 3.615,14.445 C4.496,14.445 5.235,13.858 5.481,13.059 C5.481,13.059 7.810,13.059 7.810,13.059 C7.966,13.067 8.963,13.163 8.963,14.196 C8.963,14.196 8.963,23.988 8.963,23.988 C8.963,23.988 9.962,23.988 9.962,23.988 C9.962,23.988 9.962,14.196 9.962,14.196 ZM13.979,7.123 C13.979,6.298 13.592,5.643 12.890,5.278 C12.396,5.021 11.914,4.993 11.861,4.991 C11.861,4.991 9.498,4.990 9.498,4.990 C9.252,4.191 8.513,3.604 7.632,3.604 C6.550,3.604 5.670,4.481 5.670,5.559 C5.670,6.637 6.550,7.513 7.632,7.513 C8.566,7.513 9.346,6.858 9.543,5.985 C9.543,5.985 11.825,5.985 11.825,5.985 C12.041,5.999 12.980,6.118 12.980,7.123 C12.980,7.123 12.980,23.863 12.980,23.863 C12.980,23.863 13.979,23.863 13.979,23.863 C13.979,23.863 13.979,7.123 13.979,7.123 ZM7.632,6.518 C7.101,6.518 6.669,6.088 6.669,5.559 C6.669,5.030 7.101,4.599 7.632,4.599 C8.163,4.599 8.594,5.030 8.594,5.559 C8.594,6.088 8.163,6.518 7.632,6.518 ZM3.615,13.450 C3.084,13.450 2.652,13.019 2.652,12.490 C2.652,11.961 3.084,11.531 3.615,11.531 C4.146,11.531 4.578,11.961 4.578,12.490 C4.578,13.019 4.146,13.450 3.615,13.450 Z"/>
</svg>
