<svg xmlns="http://www.w3.org/2000/svg" xmlns:xlink="http://www.w3.org/1999/xlink" preserveAspectRatio="xMidYMid" width="24" height="17" viewBox="0 0 24 17">
  <path d="M21.218,14.211 C21.218,14.211 21.218,14.989 21.218,14.989 C21.218,14.989 18.995,14.989 18.995,14.989 C18.995,14.989 18.995,12.364 18.995,12.364 C18.995,12.364 21.187,12.364 21.187,12.364 C21.187,12.364 21.187,13.012 21.187,13.012 C21.187,13.012 23.987,13.089 23.987,13.089 C23.987,13.089 23.987,14.085 23.987,14.085 C23.987,14.085 21.218,14.211 21.218,14.211 ZM21.218,9.802 C21.218,9.802 18.995,9.802 18.995,9.802 C18.995,9.802 18.995,7.177 18.995,7.177 C18.995,7.177 21.187,7.177 21.187,7.177 C21.187,7.177 21.187,7.825 21.187,7.825 C21.187,7.825 23.987,7.902 23.987,7.902 C23.987,7.902 23.987,8.898 23.987,8.898 C23.987,8.898 21.218,9.024 21.218,9.024 C21.218,9.024 21.218,9.802 21.218,9.802 ZM21.218,4.615 C21.218,4.615 18.995,4.615 18.995,4.615 C18.995,4.615 18.995,1.990 18.995,1.990 C18.995,1.990 21.187,1.990 21.187,1.990 C21.187,1.990 21.187,2.638 21.187,2.638 C21.187,2.638 23.987,2.715 23.987,2.715 C23.987,2.715 23.987,3.711 23.987,3.711 C23.987,3.711 21.218,3.837 21.218,3.837 C21.218,3.837 21.218,4.615 21.218,4.615 ZM17.492,16.972 C17.492,16.972 6.489,16.972 6.489,16.972 C6.206,16.972 5.978,16.741 5.978,16.458 C5.978,16.458 5.978,0.501 5.978,0.501 C5.978,0.218 6.206,-0.010 6.489,-0.010 C6.489,-0.010 17.492,-0.010 17.492,-0.010 C17.774,-0.010 18.003,0.218 18.003,0.501 C18.003,0.501 18.003,16.458 18.003,16.458 C18.003,16.741 17.774,16.972 17.492,16.972 ZM8.919,1.952 C8.331,1.952 7.854,2.430 7.854,3.017 C7.854,3.605 8.331,4.081 8.919,4.081 C9.508,4.081 9.983,3.604 9.983,3.017 C9.983,2.428 9.507,1.952 8.919,1.952 ZM2.720,14.104 C2.720,14.104 -0.081,14.030 -0.081,14.030 C-0.081,14.030 -0.081,13.069 -0.081,13.069 C-0.081,13.069 2.688,12.948 2.688,12.948 C2.688,12.948 2.688,12.198 2.688,12.198 C2.688,12.198 4.912,12.198 4.912,12.198 C4.912,12.198 4.912,14.728 4.912,14.728 C4.912,14.728 2.720,14.728 2.720,14.728 C2.720,14.728 2.720,14.104 2.720,14.104 ZM2.720,9.104 C2.720,9.104 -0.081,9.030 -0.081,9.030 C-0.081,9.030 -0.081,8.069 -0.081,8.069 C-0.081,8.069 2.688,7.947 2.688,7.947 C2.688,7.947 2.688,7.198 2.688,7.198 C2.688,7.198 4.912,7.198 4.912,7.198 C4.912,7.198 4.912,9.728 4.912,9.728 C4.912,9.728 2.720,9.728 2.720,9.728 C2.720,9.728 2.720,9.104 2.720,9.104 ZM2.720,4.104 C2.720,4.104 -0.081,4.030 -0.081,4.030 C-0.081,4.030 -0.081,3.069 -0.081,3.069 C-0.081,3.069 2.688,2.948 2.688,2.948 C2.688,2.948 2.688,2.198 2.688,2.198 C2.688,2.198 4.912,2.198 4.912,2.198 C4.912,2.198 4.912,4.728 4.912,4.728 C4.912,4.728 2.720,4.728 2.720,4.728 C2.720,4.728 2.720,4.104 2.720,4.104 Z"/>
</svg>
