<svg xmlns="http://www.w3.org/2000/svg" xmlns:xlink="http://www.w3.org/1999/xlink" preserveAspectRatio="xMidYMid" width="7" height="10" viewBox="0 0 7 10">
  <path d="M5.845,3.472 C5.845,3.472 0.389,3.472 0.389,3.472 C0.018,3.472 -0.086,2.986 0.099,2.800 C0.099,2.800 2.777,0.111 2.777,0.111 C2.962,-0.074 3.262,-0.074 3.447,0.111 C3.447,0.111 6.125,2.800 6.125,2.800 C6.310,2.986 6.192,3.472 5.845,3.472 ZM0.374,6.528 C0.374,6.528 5.830,6.528 5.830,6.528 C6.201,6.528 6.304,7.015 6.119,7.200 C6.119,7.200 3.441,9.889 3.441,9.889 C3.257,10.074 2.957,10.074 2.772,9.889 C2.772,9.889 0.094,7.200 0.094,7.200 C-0.091,7.015 0.027,6.528 0.374,6.528 Z"/>
</svg>
