<?xml version="1.0" ?><!DOCTYPE svg  PUBLIC '-//W3C//DTD SVG 1.1//EN'  'http://www.w3.org/Graphics/SVG/1.1/DTD/svg11.dtd'><svg enable-background="new 0 0 512 512" height="512px" id="Layer_1" version="1.1" viewBox="0 0 512 512" width="512px" x="0px" xml:space="preserve" xmlns="http://www.w3.org/2000/svg" xmlns:xlink="http://www.w3.org/1999/xlink" y="0px" fill="#c0c3c9"><g><path d="M223.5,449.25c-124.281,0-225-101.063-225-225.75C-1.5,98.813,99.219-2.25,223.5-2.25c124.25,0,225,101.063,225,225.75   C448.5,348.188,347.75,449.25,223.5,449.25z M311.75,174.75c25-25,33-25.5,8-50.5s-25.5-17-50.5,8L222.5,179l-46.75-46.75   c-25-25-25.531-33-50.531-8c-24.969,25-16.969,25.5,8,50.5L180,221.5l-48.781,48.75c-25,25-33,25.5-8,50.5s25.531,17,50.5-8   L222.5,264l48.75,48.75c25,25,25.5,33,50.5,8s17-25.5-8-50.5L265,221.5L311.75,174.75z"/></g></svg>