<svg xmlns="http://www.w3.org/2000/svg" xmlns:xlink="http://www.w3.org/1999/xlink" preserveAspectRatio="xMidYMid" width="24" height="24" viewBox="0 0 24 24">
  <path d="M12.000,0.015 C5.381,0.015 0.015,5.381 0.015,12.000 C0.015,18.619 5.381,23.985 12.000,23.985 C18.619,23.985 23.985,18.619 23.985,12.000 C23.985,5.381 18.619,0.015 12.000,0.015 ZM14.495,18.590 C13.878,18.833 13.387,19.018 13.018,19.146 C12.652,19.274 12.224,19.338 11.738,19.338 C10.991,19.338 10.410,19.154 9.996,18.791 C9.582,18.427 9.376,17.965 9.376,17.404 C9.376,17.186 9.391,16.962 9.421,16.735 C9.453,16.508 9.503,16.253 9.571,15.965 C9.571,15.965 10.343,13.238 10.343,13.238 C10.411,12.975 10.470,12.726 10.516,12.495 C10.563,12.261 10.585,12.047 10.585,11.853 C10.585,11.506 10.513,11.262 10.370,11.125 C10.225,10.988 9.952,10.921 9.545,10.921 C9.346,10.921 9.142,10.950 8.932,11.012 C8.723,11.076 8.543,11.134 8.394,11.191 C8.394,11.191 8.599,10.351 8.599,10.351 C9.104,10.145 9.588,9.968 10.050,9.822 C10.511,9.674 10.947,9.601 11.359,9.601 C12.100,9.601 12.673,9.782 13.076,10.139 C13.476,10.497 13.678,10.963 13.678,11.535 C13.678,11.654 13.664,11.863 13.637,12.161 C13.609,12.461 13.557,12.733 13.482,12.985 C13.482,12.985 12.714,15.704 12.714,15.704 C12.652,15.923 12.595,16.171 12.545,16.450 C12.495,16.729 12.470,16.942 12.470,17.087 C12.470,17.447 12.551,17.693 12.713,17.825 C12.874,17.956 13.155,18.022 13.551,18.022 C13.740,18.022 13.950,17.989 14.188,17.922 C14.423,17.858 14.594,17.799 14.701,17.750 C14.701,17.750 14.495,18.590 14.495,18.590 ZM14.359,7.553 C14.001,7.885 13.569,8.052 13.065,8.052 C12.563,8.052 12.128,7.885 11.766,7.553 C11.407,7.220 11.225,6.815 11.225,6.342 C11.225,5.870 11.408,5.464 11.766,5.128 C12.128,4.792 12.563,4.624 13.065,4.624 C13.569,4.624 14.001,4.792 14.359,5.128 C14.717,5.464 14.897,5.870 14.897,6.342 C14.897,6.816 14.717,7.220 14.359,7.553 Z"/>
</svg>
