<svg xmlns="http://www.w3.org/2000/svg" xmlns:xlink="http://www.w3.org/1999/xlink" preserveAspectRatio="xMidYMid" width="11" height="13" viewBox="0 0 11 13">
  <path d="M0.554,13.031 C0.554,13.031 9.446,13.031 9.446,13.031 C9.751,13.031 10.000,12.790 10.000,12.496 C10.000,12.496 10.000,3.410 10.000,3.410 C10.000,3.258 10.111,3.129 10.000,3.031 C10.000,3.031 7.000,0.031 7.000,0.031 C6.899,-0.058 6.302,0.031 6.163,0.031 C6.163,0.031 0.554,0.031 0.554,0.031 C0.249,0.031 0.000,0.272 0.000,0.566 C0.000,0.566 0.000,12.496 0.000,12.496 C0.000,12.790 0.249,13.031 0.554,13.031 ZM8.892,3.985 C8.892,3.985 9.000,4.031 9.000,4.031 C9.000,4.031 6.014,4.012 6.014,4.012 C6.014,4.012 6.000,1.031 6.000,1.031 C6.000,1.031 8.892,3.985 8.892,3.985 ZM1.014,1.039 C1.014,1.039 5.000,1.039 5.000,1.039 C5.000,1.039 5.000,4.516 5.000,4.516 C5.000,4.810 5.249,5.051 5.554,5.051 C5.554,5.051 8.986,5.051 8.986,5.051 C8.986,5.051 8.986,12.024 8.986,12.024 C8.986,12.024 1.014,12.024 1.014,12.024 C1.014,12.024 1.014,1.039 1.014,1.039 Z"/>
</svg>
