<svg xmlns="http://www.w3.org/2000/svg" xmlns:xlink="http://www.w3.org/1999/xlink" preserveAspectRatio="xMidYMid" width="13" height="13" viewBox="0 0 13 13">
  <path d="M11.096,11.097 C9.869,12.324 8.238,12.999 6.503,12.999 C4.768,12.999 3.137,12.324 1.910,11.097 C0.683,9.870 0.007,8.239 0.007,6.504 C0.007,4.769 0.683,3.138 1.910,1.911 C3.137,0.684 4.768,0.008 6.503,0.008 C8.238,0.008 9.869,0.684 11.096,1.911 C12.322,3.138 12.998,4.769 12.998,6.504 C12.998,8.239 12.323,9.870 11.096,11.097 ZM9.884,3.831 C9.495,3.520 9.022,3.839 8.655,4.299 C8.655,4.299 5.819,8.200 5.819,8.200 C5.819,8.200 4.273,6.238 4.273,6.238 C3.965,5.846 3.596,5.665 3.204,5.973 C2.812,6.280 2.744,6.847 3.051,7.239 C3.051,7.239 5.110,9.851 5.110,9.851 C5.129,9.875 5.156,9.887 5.177,9.909 C5.208,9.946 5.223,9.986 5.266,10.021 C5.294,10.043 5.331,10.047 5.361,10.066 C5.386,10.080 5.411,10.089 5.437,10.101 C5.510,10.134 5.583,10.164 5.663,10.174 C5.750,10.189 5.836,10.185 5.924,10.174 C5.938,10.172 5.952,10.174 5.967,10.171 C6.111,10.147 6.253,10.100 6.376,10.004 C6.405,9.981 6.413,9.952 6.436,9.927 C6.505,9.872 6.578,9.823 6.636,9.750 C6.636,9.750 9.923,5.227 9.923,5.227 C10.291,4.767 10.273,4.141 9.884,3.831 Z"/>
</svg>
