<svg xmlns="http://www.w3.org/2000/svg" xmlns:xlink="http://www.w3.org/1999/xlink" preserveAspectRatio="xMidYMid" width="22" height="24" viewBox="0 0 22 24">
  <path d="M19.662,16.071 C19.662,16.071 19.007,16.071 19.007,16.071 C19.025,15.852 19.034,15.632 19.034,15.411 C19.034,15.411 19.034,10.976 19.034,10.976 C19.034,10.976 19.662,10.976 19.662,10.976 C20.417,10.976 21.030,11.579 21.030,12.323 C21.030,12.323 21.030,14.723 21.030,14.723 C21.030,15.467 20.417,16.071 19.662,16.071 ZM13.994,18.765 C13.994,18.338 13.642,17.991 13.208,17.991 C13.208,17.991 7.793,17.991 7.793,17.991 C7.359,17.991 7.007,18.338 7.007,18.765 C7.007,18.765 7.007,19.985 7.007,19.985 C7.007,19.985 2.982,19.985 2.982,19.985 C2.982,19.985 2.982,16.264 2.982,16.264 C2.982,16.264 2.982,11.620 2.982,11.620 C2.982,11.403 2.993,11.188 3.012,10.975 C3.317,7.664 6.286,5.012 9.617,4.610 C9.617,4.610 9.617,4.090 9.617,4.090 C9.617,4.090 9.617,3.571 9.617,3.571 C9.617,3.571 9.617,3.290 9.617,3.290 C9.077,2.987 8.712,2.416 8.712,1.760 C8.712,0.787 9.513,-0.001 10.500,-0.001 C11.488,-0.001 12.289,0.787 12.289,1.759 C12.289,2.416 11.924,2.987 11.383,3.290 C11.383,3.290 11.383,3.571 11.383,3.571 C11.383,3.571 11.383,4.090 11.383,4.090 C11.383,4.090 11.383,4.610 11.383,4.610 C14.714,5.012 17.620,7.662 17.926,10.972 C17.945,11.186 17.956,11.402 17.956,11.620 C17.956,11.620 17.956,16.266 17.956,16.266 C17.956,16.266 17.956,19.985 17.956,19.985 C17.956,19.985 13.994,19.985 13.994,19.985 C13.994,19.985 13.994,18.765 13.994,18.765 ZM7.041,11.334 C5.963,11.334 5.089,12.195 5.089,13.256 C5.089,14.318 5.963,15.178 7.041,15.178 C8.119,15.178 8.993,14.318 8.993,13.256 C8.993,12.195 8.119,11.334 7.041,11.334 ZM16.193,13.256 C16.193,12.195 15.319,11.334 14.241,11.334 C13.163,11.334 12.289,12.195 12.289,13.256 C12.289,14.318 13.163,15.178 14.241,15.178 C15.319,15.178 16.193,14.318 16.193,13.256 ZM1.997,16.056 C1.997,16.056 1.370,16.056 1.370,16.056 C0.614,16.056 0.001,15.452 0.001,14.708 C0.001,14.708 0.001,12.308 0.001,12.308 C0.001,11.564 0.614,10.960 1.370,10.960 C1.370,10.960 2.024,10.960 2.024,10.960 C2.006,11.179 1.997,11.399 1.997,11.620 C1.997,11.620 1.997,16.056 1.997,16.056 ZM1.646,20.985 C1.646,20.985 1.747,20.985 1.747,20.985 C1.747,20.985 7.288,20.985 7.288,20.985 C7.288,20.985 13.713,20.985 13.713,20.985 C13.713,20.985 19.192,20.985 19.192,20.985 C19.192,20.985 19.292,20.985 19.292,20.985 C19.658,20.985 19.954,21.277 19.954,21.637 C19.954,21.637 19.954,23.348 19.954,23.348 C19.954,23.708 19.658,24.000 19.292,24.000 C19.292,24.000 1.646,24.000 1.646,24.000 C1.281,24.000 0.984,23.708 0.984,23.348 C0.984,23.348 0.984,21.637 0.984,21.637 C0.984,21.277 1.281,20.985 1.646,20.985 Z"/>
</svg>
