<svg xmlns="http://www.w3.org/2000/svg" xmlns:xlink="http://www.w3.org/1999/xlink" preserveAspectRatio="xMidYMid" width="13" height="11" viewBox="0 0 13 11">
  <path d="M13.000,8.990 C13.000,8.990 13.000,-0.000 13.000,-0.000 C13.000,-0.000 0.000,-0.000 0.000,-0.000 C0.000,-0.000 0.000,8.990 0.000,8.990 C0.000,8.990 6.000,8.990 6.000,8.990 C6.000,8.990 6.000,9.979 6.000,9.979 C6.000,9.979 4.000,9.979 4.000,9.979 C4.000,9.979 4.000,10.969 4.000,10.969 C4.000,10.969 8.969,10.969 8.969,10.969 C8.969,10.969 8.969,9.979 8.969,9.979 C8.969,9.979 7.000,9.979 7.000,9.979 C7.000,9.979 7.000,8.990 7.000,8.990 C7.000,8.990 13.000,8.990 13.000,8.990 ZM1.000,7.000 C1.000,7.000 1.000,1.021 1.000,1.021 C1.000,1.021 12.000,1.021 12.000,1.021 C12.000,1.021 12.000,7.000 12.000,7.000 C12.000,7.000 1.000,7.000 1.000,7.000 Z"/>
</svg>
