<svg xmlns="http://www.w3.org/2000/svg" xmlns:xlink="http://www.w3.org/1999/xlink" preserveAspectRatio="xMidYMid" width="24" height="18" viewBox="0 0 24 18">
  <path d="M23.424,1.204 C23.424,1.204 22.730,0.528 22.730,0.528 C21.969,-0.217 20.722,-0.217 19.959,0.528 C19.959,0.528 8.190,12.027 8.190,12.027 C8.190,12.027 4.014,7.949 4.014,7.949 C3.253,7.204 2.005,7.204 1.244,7.949 C1.244,7.949 0.552,8.625 0.552,8.625 C-0.209,9.369 -0.209,10.587 0.552,11.331 C0.552,11.331 6.801,17.442 6.801,17.442 C7.563,18.186 8.810,18.186 9.571,17.442 C9.571,17.442 23.424,3.911 23.424,3.911 C24.184,3.167 24.184,1.948 23.424,1.204 Z" fill="#FFFFFF"/>
</svg>
