<svg xmlns="http://www.w3.org/2000/svg" xmlns:xlink="http://www.w3.org/1999/xlink" preserveAspectRatio="xMidYMid" width="12" height="11" viewBox="0 0 12 11">
  <path d="M2.235,9.313 C2.204,9.282 2.188,9.241 2.189,9.198 C2.189,9.155 2.208,9.115 2.240,9.085 C2.240,9.085 3.320,8.077 3.320,8.077 C3.386,8.015 3.492,8.016 3.555,8.081 C4.527,9.058 5.970,9.447 7.322,9.095 C9.370,8.562 10.591,6.514 10.044,4.530 C9.497,2.546 7.386,1.365 5.338,1.899 C4.570,2.099 3.877,2.532 3.370,3.126 C3.370,3.126 4.775,3.912 4.775,3.912 C4.830,3.942 4.862,4.000 4.858,4.061 C4.854,4.122 4.815,4.175 4.758,4.200 C4.758,4.200 0.738,5.881 0.738,5.881 C0.689,5.901 0.634,5.898 0.589,5.872 C0.543,5.847 0.513,5.802 0.507,5.752 C0.507,5.752 0.000,1.540 0.000,1.540 C-0.007,1.479 0.021,1.420 0.074,1.386 C0.127,1.352 0.194,1.350 0.249,1.381 C0.249,1.381 1.769,2.231 1.769,2.231 C2.532,1.231 3.626,0.507 4.866,0.184 C7.889,-0.603 11.006,1.139 11.813,4.069 C12.621,6.998 10.818,10.022 7.795,10.809 C5.799,11.329 3.668,10.756 2.235,9.313 Z"/>
</svg>
