<svg xmlns="http://www.w3.org/2000/svg" xmlns:xlink="http://www.w3.org/1999/xlink" preserveAspectRatio="xMidYMid" width="13" height="12" viewBox="0 0 13 12">
  <path d="M1.028,12.000 C1.028,12.000 11.975,12.000 11.975,12.000 C12.741,12.000 13.234,11.176 12.888,10.480 C12.888,10.480 7.414,0.577 7.414,0.577 C7.036,-0.194 5.956,-0.194 5.579,0.577 C5.579,0.577 0.105,10.480 0.105,10.480 C-0.230,11.176 0.262,12.000 1.028,12.000 ZM7.362,9.698 C7.362,10.212 6.994,10.608 6.470,10.608 C5.946,10.608 5.579,10.212 5.579,9.698 C5.579,9.698 5.579,9.677 5.579,9.677 C5.579,9.163 5.946,8.767 6.470,8.767 C6.994,8.767 7.362,9.163 7.362,9.677 C7.362,9.677 7.362,9.698 7.362,9.698 ZM5.988,3.007 C5.988,3.007 7.015,3.007 7.015,3.007 C7.299,3.007 7.466,3.253 7.435,3.564 C7.435,3.564 6.984,7.589 6.984,7.589 C6.953,7.878 6.764,8.060 6.502,8.060 C6.239,8.060 6.051,7.878 6.019,7.589 C6.019,7.589 5.568,3.564 5.568,3.564 C5.537,3.253 5.705,3.007 5.988,3.007 Z"/>
</svg>
