<svg xmlns="http://www.w3.org/2000/svg" xmlns:xlink="http://www.w3.org/1999/xlink" preserveAspectRatio="xMidYMid" width="8.94" height="12.37" viewBox="0 0 8.94 12.37">
  <defs>
    <style>
      .cls-1 {
        fill: #3b3e45;
        fill-rule: evenodd;
      }
    </style>
  </defs>
  <path d="M7.953,6.790 L5.953,6.790 C5.401,6.790 4.167,6.153 5.934,5.540 C5.934,5.540 6.095,5.465 6.321,5.308 C6.120,5.266 5.922,5.166 5.753,4.997 L2.350,1.594 C1.960,1.204 1.866,0.664 2.256,0.274 L2.264,0.266 C2.655,-0.125 3.288,-0.125 3.678,0.266 L7.081,3.669 C7.230,3.817 7.304,4.004 7.339,4.196 C7.485,3.948 7.574,3.752 7.574,3.752 C8.537,2.019 8.953,3.238 8.953,3.790 L8.953,5.790 C8.953,6.342 8.505,6.790 7.953,6.790 ZM2.958,7.313 C2.958,7.313 2.838,7.274 2.663,7.255 C2.667,7.260 2.674,7.261 2.678,7.266 L6.081,10.669 C6.472,11.059 6.472,11.692 6.081,12.083 L6.073,12.091 C5.683,12.481 5.143,12.387 4.753,11.997 L1.515,8.760 C0.680,10.576 -0.016,9.366 -0.016,8.827 L-0.016,6.827 C-0.016,6.275 0.432,5.827 0.984,5.827 L2.984,5.827 C3.537,5.827 4.878,6.416 2.958,7.313 Z" class="cls-1"/>
</svg>
