<svg xmlns="http://www.w3.org/2000/svg" xmlns:xlink="http://www.w3.org/1999/xlink" preserveAspectRatio="xMidYMid" width="11" height="13" viewBox="0 0 11 13">
  <path d="M7.647,-0.000 C7.647,-0.000 3.529,-0.000 3.529,-0.000 C3.231,-0.000 2.987,0.244 2.987,0.542 C2.987,0.542 2.987,2.986 2.987,2.986 C2.987,2.986 0.543,2.986 0.543,2.986 C0.244,2.986 -0.000,3.230 -0.000,3.529 C-0.000,3.529 -0.000,12.463 -0.000,12.463 C-0.000,12.762 0.244,13.006 0.543,13.006 C0.543,13.006 7.456,13.006 7.456,13.006 C7.754,13.006 7.998,12.762 7.998,12.463 C7.998,12.463 7.998,11.023 7.998,11.023 C7.998,11.023 10.446,11.023 10.446,11.023 C10.744,11.023 10.988,10.778 10.988,10.480 C10.988,10.480 10.988,4.015 10.988,4.015 C10.988,3.870 11.049,3.705 10.976,3.168 C10.976,3.168 8.036,0.163 8.036,0.163 C7.936,0.054 7.792,-0.000 7.647,-0.000 ZM6.976,11.983 C6.976,11.983 1.022,11.983 1.022,11.983 C1.022,11.983 1.022,3.977 1.022,3.977 C1.022,3.977 2.987,3.977 2.987,3.977 C2.987,3.977 2.987,10.480 2.987,10.480 C2.987,10.778 3.231,11.023 3.529,11.023 C3.529,11.023 6.976,11.023 6.976,11.023 C6.976,11.023 6.976,11.983 6.976,11.983 C6.976,11.983 6.976,11.983 6.976,11.983 ZM3.978,9.969 C3.978,9.969 3.978,0.991 3.978,0.991 C3.978,0.991 6.992,0.991 6.992,0.991 C6.992,0.991 6.992,4.471 6.992,4.471 C6.992,4.769 7.205,5.013 7.503,5.013 C7.503,5.013 9.997,5.013 9.997,5.013 C9.997,5.013 9.997,9.969 9.997,9.969 C9.997,9.969 3.978,9.969 3.978,9.969 ZM9.935,3.928 C9.935,3.928 8.046,3.928 8.046,3.928 C8.046,3.928 8.046,1.723 8.046,1.723 C8.046,1.723 9.935,3.928 9.935,3.928 C9.935,3.928 9.935,3.928 9.935,3.928 Z"/>
</svg>
