<svg xmlns="http://www.w3.org/2000/svg" xmlns:xlink="http://www.w3.org/1999/xlink" preserveAspectRatio="xMidYMid" width="13" height="13" viewBox="0 0 13 13">
  <path d="M8.082,2.178 C8.082,2.178 10.726,4.841 10.726,4.841 C10.726,4.841 4.033,11.581 4.033,11.581 C4.033,11.581 1.391,8.918 1.391,8.918 C1.391,8.918 8.082,2.178 8.082,2.178 ZM12.732,1.535 C12.732,1.535 11.553,0.348 11.553,0.348 C11.097,-0.111 10.357,-0.111 9.900,0.348 C9.900,0.348 8.771,1.485 8.771,1.485 C8.771,1.485 11.414,4.148 11.414,4.148 C11.414,4.148 12.732,2.822 12.732,2.822 C13.085,2.466 13.085,1.891 12.732,1.535 ZM0.007,12.661 C-0.041,12.880 0.155,13.075 0.371,13.022 C0.371,13.022 3.317,12.302 3.317,12.302 C3.317,12.302 0.675,9.640 0.675,9.640 C0.675,9.640 0.007,12.661 0.007,12.661 Z"/>
</svg>
