<svg xmlns="http://www.w3.org/2000/svg" xmlns:xlink="http://www.w3.org/1999/xlink" preserveAspectRatio="xMidYMid" width="10" height="13" viewBox="0 0 10 13">
  <path d="M8.947,13.000 C8.947,13.000 1.053,13.000 1.053,13.000 C0.474,13.000 -0.000,12.533 -0.000,11.963 C-0.000,11.963 -0.000,1.037 -0.000,1.037 C-0.000,0.467 0.474,0.000 1.053,0.000 C1.053,0.000 6.579,0.000 6.579,0.000 C6.579,0.000 7.757,0.000 7.757,0.000 C7.757,0.000 10.000,2.767 10.000,2.767 C10.000,2.767 10.000,3.889 10.000,3.889 C10.000,3.889 10.000,11.963 10.000,11.963 C10.000,12.533 9.526,13.000 8.947,13.000 ZM6.003,3.111 C6.003,3.111 6.003,1.018 6.003,1.018 C6.003,1.018 1.521,1.018 1.521,1.018 C1.206,1.018 0.995,1.278 0.995,1.537 C0.995,1.537 0.995,11.463 0.995,11.463 C0.995,11.774 1.258,11.982 1.521,11.982 C1.521,11.982 8.510,11.982 8.510,11.982 C8.826,11.982 9.036,11.722 9.036,11.463 C9.036,11.463 9.036,4.023 9.036,4.023 C9.036,4.023 6.931,4.023 6.931,4.023 C6.352,4.023 6.003,3.682 6.003,3.111 ZM6.936,0.447 C6.936,0.447 6.936,2.486 6.936,2.486 C6.936,2.745 7.199,3.005 7.462,3.005 C7.462,3.005 9.142,3.005 9.142,3.005 C9.142,3.005 6.936,0.447 6.936,0.447 ZM5.974,9.638 C5.974,9.638 7.184,8.446 7.184,8.446 C7.184,8.446 5.974,7.253 5.974,7.253 C5.974,7.253 6.530,6.890 6.530,6.890 C6.530,6.890 8.109,8.446 8.109,8.446 C8.109,8.446 6.530,10.001 6.530,10.001 C6.530,10.001 5.974,9.638 5.974,9.638 ZM4.148,10.520 C4.148,10.520 5.201,6.372 5.201,6.372 C5.201,6.372 5.946,6.372 5.946,6.372 C5.946,6.372 4.893,10.520 4.893,10.520 C4.893,10.520 4.148,10.520 4.148,10.520 ZM3.314,10.001 C3.314,10.001 1.735,8.446 1.735,8.446 C1.735,8.446 3.314,6.890 3.314,6.890 C3.314,6.890 4.058,7.253 4.058,7.253 C4.058,7.253 2.847,8.446 2.847,8.446 C2.847,8.446 4.058,9.638 4.058,9.638 C4.058,9.638 3.314,10.001 3.314,10.001 Z"/>
</svg>
