<svg xmlns="http://www.w3.org/2000/svg" xmlns:xlink="http://www.w3.org/1999/xlink" preserveAspectRatio="xMidYMid" width="23" height="23" viewBox="0 0 23 23">
  <path d="M22.500,15.000 C22.500,15.000 20.500,15.000 20.500,15.000 C20.224,15.000 20.000,14.776 20.000,14.500 C20.000,14.224 20.224,14.000 20.500,14.000 C20.500,14.000 22.500,14.000 22.500,14.000 C22.776,14.000 23.000,14.224 23.000,14.500 C23.000,14.776 22.776,15.000 22.500,15.000 ZM22.500,13.000 C22.500,13.000 20.500,13.000 20.500,13.000 C20.224,13.000 20.000,12.776 20.000,12.500 C20.000,12.224 20.224,12.000 20.500,12.000 C20.500,12.000 22.500,12.000 22.500,12.000 C22.776,12.000 23.000,12.224 23.000,12.500 C23.000,12.776 22.776,13.000 22.500,13.000 ZM22.500,11.000 C22.500,11.000 20.500,11.000 20.500,11.000 C20.224,11.000 20.000,10.776 20.000,10.500 C20.000,10.224 20.224,10.000 20.500,10.000 C20.500,10.000 22.500,10.000 22.500,10.000 C22.776,10.000 23.000,10.224 23.000,10.500 C23.000,10.776 22.776,11.000 22.500,11.000 ZM22.500,9.000 C22.500,9.000 20.500,9.000 20.500,9.000 C20.224,9.000 20.000,8.776 20.000,8.500 C20.000,8.224 20.224,8.000 20.500,8.000 C20.500,8.000 22.500,8.000 22.500,8.000 C22.776,8.000 23.000,8.224 23.000,8.500 C23.000,8.776 22.776,9.000 22.500,9.000 ZM22.500,7.000 C22.500,7.000 20.500,7.000 20.500,7.000 C20.224,7.000 20.000,6.776 20.000,6.500 C20.000,6.224 20.224,6.000 20.500,6.000 C20.500,6.000 22.500,6.000 22.500,6.000 C22.776,6.000 23.000,6.224 23.000,6.500 C23.000,6.776 22.776,7.000 22.500,7.000 ZM16.918,19.005 C16.918,19.005 6.059,19.005 6.059,19.005 C4.920,19.005 3.991,18.078 3.991,16.937 C3.991,16.937 3.991,6.079 3.991,6.079 C3.991,4.939 4.920,4.011 6.059,4.011 C6.059,4.011 16.918,4.011 16.918,4.011 C18.058,4.011 18.987,4.939 18.987,6.078 C18.987,6.078 18.987,16.937 18.987,16.937 C18.987,18.078 18.058,19.005 16.918,19.005 ZM16.500,3.000 C16.224,3.000 16.000,2.776 16.000,2.500 C16.000,2.500 16.000,0.500 16.000,0.500 C16.000,0.224 16.224,-0.000 16.500,-0.000 C16.776,-0.000 17.000,0.224 17.000,0.500 C17.000,0.500 17.000,2.500 17.000,2.500 C17.000,2.776 16.776,3.000 16.500,3.000 ZM14.500,3.000 C14.224,3.000 14.000,2.776 14.000,2.500 C14.000,2.500 14.000,0.500 14.000,0.500 C14.000,0.224 14.224,-0.000 14.500,-0.000 C14.776,-0.000 15.000,0.224 15.000,0.500 C15.000,0.500 15.000,2.500 15.000,2.500 C15.000,2.776 14.776,3.000 14.500,3.000 ZM12.500,3.000 C12.224,3.000 12.000,2.776 12.000,2.500 C12.000,2.500 12.000,0.500 12.000,0.500 C12.000,0.224 12.224,-0.000 12.500,-0.000 C12.776,-0.000 13.000,0.224 13.000,0.500 C13.000,0.500 13.000,2.500 13.000,2.500 C13.000,2.776 12.776,3.000 12.500,3.000 ZM10.500,3.000 C10.224,3.000 10.000,2.776 10.000,2.500 C10.000,2.500 10.000,0.500 10.000,0.500 C10.000,0.224 10.224,-0.000 10.500,-0.000 C10.776,-0.000 11.000,0.224 11.000,0.500 C11.000,0.500 11.000,2.500 11.000,2.500 C11.000,2.776 10.776,3.000 10.500,3.000 ZM8.500,3.000 C8.224,3.000 8.000,2.776 8.000,2.500 C8.000,2.500 8.000,0.500 8.000,0.500 C8.000,0.224 8.224,-0.000 8.500,-0.000 C8.776,-0.000 9.000,0.224 9.000,0.500 C9.000,0.500 9.000,2.500 9.000,2.500 C9.000,2.776 8.776,3.000 8.500,3.000 ZM6.500,3.000 C6.224,3.000 6.000,2.776 6.000,2.500 C6.000,2.500 6.000,0.500 6.000,0.500 C6.000,0.224 6.224,-0.000 6.500,-0.000 C6.776,-0.000 7.000,0.224 7.000,0.500 C7.000,0.500 7.000,2.500 7.000,2.500 C7.000,2.776 6.776,3.000 6.500,3.000 ZM2.500,17.000 C2.500,17.000 0.500,17.000 0.500,17.000 C0.224,17.000 0.000,16.776 0.000,16.500 C0.000,16.224 0.224,16.000 0.500,16.000 C0.500,16.000 2.500,16.000 2.500,16.000 C2.776,16.000 3.000,16.224 3.000,16.500 C3.000,16.776 2.776,17.000 2.500,17.000 ZM2.500,15.000 C2.500,15.000 0.500,15.000 0.500,15.000 C0.224,15.000 0.000,14.776 0.000,14.500 C0.000,14.224 0.224,14.000 0.500,14.000 C0.500,14.000 2.500,14.000 2.500,14.000 C2.776,14.000 3.000,14.224 3.000,14.500 C3.000,14.776 2.776,15.000 2.500,15.000 ZM2.500,13.000 C2.500,13.000 0.500,13.000 0.500,13.000 C0.224,13.000 0.000,12.776 0.000,12.500 C0.000,12.224 0.224,12.000 0.500,12.000 C0.500,12.000 2.500,12.000 2.500,12.000 C2.776,12.000 3.000,12.224 3.000,12.500 C3.000,12.776 2.776,13.000 2.500,13.000 ZM2.500,11.000 C2.500,11.000 0.500,11.000 0.500,11.000 C0.224,11.000 0.000,10.776 0.000,10.500 C0.000,10.224 0.224,10.000 0.500,10.000 C0.500,10.000 2.500,10.000 2.500,10.000 C2.776,10.000 3.000,10.224 3.000,10.500 C3.000,10.776 2.776,11.000 2.500,11.000 ZM2.500,9.000 C2.500,9.000 0.500,9.000 0.500,9.000 C0.224,9.000 0.000,8.776 0.000,8.500 C0.000,8.224 0.224,8.000 0.500,8.000 C0.500,8.000 2.500,8.000 2.500,8.000 C2.776,8.000 3.000,8.224 3.000,8.500 C3.000,8.776 2.776,9.000 2.500,9.000 ZM2.500,7.000 C2.500,7.000 0.500,7.000 0.500,7.000 C0.224,7.000 0.000,6.776 0.000,6.500 C0.000,6.224 0.224,6.000 0.500,6.000 C0.500,6.000 2.500,6.000 2.500,6.000 C2.776,6.000 3.000,6.224 3.000,6.500 C3.000,6.776 2.776,7.000 2.500,7.000 ZM6.500,20.000 C6.776,20.000 7.000,20.224 7.000,20.500 C7.000,20.500 7.000,22.500 7.000,22.500 C7.000,22.776 6.776,23.000 6.500,23.000 C6.224,23.000 6.000,22.776 6.000,22.500 C6.000,22.500 6.000,20.500 6.000,20.500 C6.000,20.224 6.224,20.000 6.500,20.000 ZM8.500,20.000 C8.776,20.000 9.000,20.224 9.000,20.500 C9.000,20.500 9.000,22.500 9.000,22.500 C9.000,22.776 8.776,23.000 8.500,23.000 C8.224,23.000 8.000,22.776 8.000,22.500 C8.000,22.500 8.000,20.500 8.000,20.500 C8.000,20.224 8.224,20.000 8.500,20.000 ZM10.500,20.000 C10.776,20.000 11.000,20.224 11.000,20.500 C11.000,20.500 11.000,22.500 11.000,22.500 C11.000,22.776 10.776,23.000 10.500,23.000 C10.224,23.000 10.000,22.776 10.000,22.500 C10.000,22.500 10.000,20.500 10.000,20.500 C10.000,20.224 10.224,20.000 10.500,20.000 ZM12.500,20.000 C12.776,20.000 13.000,20.224 13.000,20.500 C13.000,20.500 13.000,22.500 13.000,22.500 C13.000,22.776 12.776,23.000 12.500,23.000 C12.224,23.000 12.000,22.776 12.000,22.500 C12.000,22.500 12.000,20.500 12.000,20.500 C12.000,20.224 12.224,20.000 12.500,20.000 ZM14.500,20.000 C14.776,20.000 15.000,20.224 15.000,20.500 C15.000,20.500 15.000,22.500 15.000,22.500 C15.000,22.776 14.776,23.000 14.500,23.000 C14.224,23.000 14.000,22.776 14.000,22.500 C14.000,22.500 14.000,20.500 14.000,20.500 C14.000,20.224 14.224,20.000 14.500,20.000 ZM16.500,20.000 C16.776,20.000 17.000,20.224 17.000,20.500 C17.000,20.500 17.000,22.500 17.000,22.500 C17.000,22.776 16.776,23.000 16.500,23.000 C16.224,23.000 16.000,22.776 16.000,22.500 C16.000,22.500 16.000,20.500 16.000,20.500 C16.000,20.224 16.224,20.000 16.500,20.000 ZM20.500,16.000 C20.500,16.000 22.500,16.000 22.500,16.000 C22.776,16.000 23.000,16.224 23.000,16.500 C23.000,16.776 22.776,17.000 22.500,17.000 C22.500,17.000 20.500,17.000 20.500,17.000 C20.224,17.000 20.000,16.776 20.000,16.500 C20.000,16.224 20.224,16.000 20.500,16.000 Z"/>
</svg>
