<svg xmlns="http://www.w3.org/2000/svg" xmlns:xlink="http://www.w3.org/1999/xlink" preserveAspectRatio="xMidYMid" width="13" height="8" viewBox="0 0 13 8">
  <path d="M0.281,7.964 C0.392,7.964 0.495,7.903 0.538,7.802 C0.538,7.802 0.538,7.802 0.538,7.802 C0.571,7.730 1.375,6.000 4.379,5.658 C5.005,5.585 5.755,5.548 6.665,5.541 C6.665,5.541 6.665,7.696 6.665,7.696 C6.665,7.796 6.722,7.886 6.814,7.933 C6.905,7.979 7.015,7.973 7.100,7.918 C7.100,7.918 12.873,4.191 12.873,4.191 C12.951,4.141 12.997,4.057 12.997,3.969 C12.997,3.880 12.951,3.798 12.873,3.746 C12.873,3.746 7.098,0.019 7.098,0.019 C7.012,-0.038 6.904,-0.042 6.811,0.005 C6.719,0.052 6.664,0.143 6.664,0.240 C6.664,0.240 6.664,2.245 6.664,2.245 C5.408,2.402 0.003,3.334 0.003,7.698 C0.003,7.825 0.096,7.936 0.226,7.961 C0.244,7.964 0.264,7.964 0.281,7.964 Z"/>
</svg>
